<svg xmlns="http://www.w3.org/2000/svg" width="500" height="226" viewBox="0 0 500 226">
  <g id="img10" transform="translate(9344.207 9354)">
    <rect id="Rectangle_455724" data-name="Rectangle 455724" width="198" height="125" transform="translate(-9190 -9315)" fill="#fff"/>
    <rect id="Rectangle_455662" data-name="Rectangle 455662" width="500" height="226" transform="translate(-9344.207 -9354)" fill="none"/>
    <g id="Grupo_69358" data-name="Grupo 69358" transform="translate(-2025.207 -334.619)">
      <ellipse id="Elipse_6349" data-name="Elipse 6349" cx="176.5" cy="16" rx="176.5" ry="16" transform="translate(-7245.5 -8849.174)" fill="#306ba8"/>
      <g id="Grupo_68605" data-name="Grupo 68605" transform="translate(-7869 -11139.091)">
        <path id="Trazado_119459" data-name="Trazado 119459" d="M177.655,427.084h58.932l-2.075-16.6H179.73Z" transform="translate(593.163 1883.192)" fill="#afbbd0"/>
        <path id="Trazado_119460" data-name="Trazado 119460" d="M171.044,454.621a3.32,3.32,0,1,0,0,6.641h59.762a3.32,3.32,0,0,0,0-6.641Z" transform="translate(599.358 1855.655)" fill="#bec8dc"/>
        <path id="Trazado_119467" data-name="Trazado 119467" d="M183.172,399.468h54.782l-.83-6.64H184Z" transform="translate(589.721 1903.509)" fill="#96a5b9"/>
        <path id="Trazado_119469" data-name="Trazado 119469" d="M199.8,39.724H7.136A7.136,7.136,0,0,0,0,46.86V161.034H206.94V46.86a7.136,7.136,0,0,0-7.14-7.136Zm-3.568,32.111v78.5H10.7V50.43H196.236Z" transform="translate(699 2115.926)" fill="#464655"/>
        <path id="Trazado_119471" data-name="Trazado 119471" d="M0,354.134a7.136,7.136,0,0,0,7.136,7.136H199.8a7.136,7.136,0,0,0,7.136-7.136V339.862H0Zm103.47-8.92a5.352,5.352,0,1,1-5.352,5.352,5.352,5.352,0,0,1,5.352-5.352Z" transform="translate(699 1937.098)" fill="#bec8dc"/>
        <circle id="Elipse_6340" data-name="Elipse 6340" cx="5.352" cy="5.352" r="5.352" transform="translate(797.118 2282.312)" fill="#96a5b9"/>
        <rect id="Rectángulo_7331" data-name="Rectángulo 7331" width="148" height="9" transform="translate(747 2166.308)" fill="#9ecfff"/>
      </g>
      <g id="Grupo_68601" data-name="Grupo 68601" transform="translate(0.5 517.826)">
        <path id="Trazado_119468" data-name="Trazado 119468" d="M47.458,90.5H67.379a3.32,3.32,0,1,0,0-6.641H47.458a3.32,3.32,0,0,0,0,6.641Z" transform="translate(-7192.537 -9569.339)" fill="#ffdc69"/>
        <g id="html" transform="translate(-7233.577 -9515.207)">
          <path id="Trazado_119398" data-name="Trazado 119398" d="M198.791,17.265V0H147a5.755,5.755,0,0,0-5.755,5.755V19.183H189.2a3.837,3.837,0,0,1,3.837,3.837V49.876a3.837,3.837,0,0,1-3.837,3.837H141.241v51.795A5.755,5.755,0,0,0,147,111.263h69.06a5.755,5.755,0,0,0,5.755-5.755V23.02S198.791,20.443,198.791,17.265Z" transform="translate(-110.548)" fill="#61e9c3"/>
          <path id="Trazado_119399" data-name="Trazado 119399" d="M411.824,23.02h17.265L406.069,0V17.265A5.755,5.755,0,0,0,411.824,23.02Z" transform="translate(-317.826)" fill="#37b995"/>
          <path id="Trazado_119400" data-name="Trazado 119400" d="M82.488,118.969V92.113a3.837,3.837,0,0,0-3.837-3.837H3.837A3.837,3.837,0,0,0,0,92.113v26.856a3.837,3.837,0,0,0,3.837,3.837H78.651a3.837,3.837,0,0,0,3.837-3.837ZM23.02,113.214a1.918,1.918,0,1,1-3.837,0v-3.837H9.592v3.837a1.918,1.918,0,1,1-3.837,0V97.867a1.918,1.918,0,1,1,3.837,0v7.673h9.592V97.867a1.918,1.918,0,1,1,3.837,0v15.347ZM38.366,99.786H34.53v13.428a1.919,1.919,0,1,1-3.837,0V99.786H26.856a1.918,1.918,0,1,1,0-3.837h11.51a1.918,1.918,0,1,1,0,3.837Zm21.1,13.428a1.919,1.919,0,0,1-3.837,0v-8.421l-2.192,3.653a1.92,1.92,0,0,1-1.645.931H49.876a1.92,1.92,0,0,1-1.645-.931l-2.192-3.653v8.421a1.919,1.919,0,0,1-3.837,0V97.867a1.918,1.918,0,0,1,3.563-.987l5.069,8.449L55.9,96.88a1.918,1.918,0,0,1,3.563.987v15.347Zm15.347,1.918h-9.59a1.918,1.918,0,0,1-1.918-1.918V97.867a1.918,1.918,0,0,1,3.837,0V111.3h7.673a1.918,1.918,0,1,1,0,3.837Z" transform="translate(0 -69.093)" fill="#19538d"/>
          <g id="Grupo_68589" data-name="Grupo 68589" transform="translate(5.755 26.856)">
            <path id="Trazado_119401" data-name="Trazado 119401" d="M41.829,123.586A1.918,1.918,0,0,0,39.91,125.5v7.673H30.319V125.5a1.919,1.919,0,1,0-3.837,0v15.347a1.918,1.918,0,1,0,3.837,0V137.01H39.91v3.837a1.919,1.919,0,1,0,3.837,0V125.5a1.918,1.918,0,0,0-1.918-1.914Z" transform="translate(-26.482 -123.586)" fill="#fff"/>
            <path id="Trazado_119402" data-name="Trazado 119402" d="M210.065,123.655a1.915,1.915,0,0,0-2.157.862l-5.069,8.449-5.069-8.449a1.918,1.918,0,0,0-3.563.987v15.347a1.919,1.919,0,0,0,3.837,0V132.43l2.192,3.653a1.92,1.92,0,0,0,1.645.931H203.8a1.92,1.92,0,0,0,1.645-.931l2.192-3.653v8.421a1.919,1.919,0,0,0,3.837,0V125.5a1.92,1.92,0,0,0-1.409-1.845Z" transform="translate(-157.758 -123.586)" fill="#fff"/>
            <path id="Trazado_119403" data-name="Trazado 119403" d="M128.186,123.586h-11.51a1.918,1.918,0,1,0,0,3.837h3.837v13.428a1.918,1.918,0,0,0,3.837,0V127.423h3.837a1.919,1.919,0,1,0,0-3.837Z" transform="translate(-95.575 -123.586)" fill="#fff"/>
            <path id="Trazado_119404" data-name="Trazado 119404" d="M302.82,138.933h-7.673V125.5a1.919,1.919,0,0,0-3.837,0v15.347a1.918,1.918,0,0,0,1.918,1.918h9.592a1.918,1.918,0,1,0,0-3.837Z" transform="translate(-233.76 -123.586)" fill="#fff"/>
          </g>
        </g>
      </g>
      <g id="Grupo_68606" data-name="Grupo 68606" transform="translate(-7862 -11723)">
        <path id="Trazado_155575" data-name="Trazado 155575" d="M-5765.06-8993.3l-43.314,17.83v35.759l43.314,18.938,44.724-18.937v-35.759Z" transform="translate(6575.262 11761.952)" fill="none" stroke="#26cb99" stroke-linecap="round" stroke-linejoin="round" stroke-width="4"/>
        <path id="Trazado_155576" data-name="Trazado 155576" d="M-5609.75-8874.03l-6.75,21.96" transform="translate(6423.571 11667.67)" fill="none" stroke="#12263f" stroke-linecap="round" stroke-width="4"/>
        <path id="Trazado_155577" data-name="Trazado 155577" d="M-5708.03-8859.12l-11.382,7.856,11.382,8.059" transform="translate(6504.929 11655.883)" fill="none" stroke="#12263f" stroke-linecap="round" stroke-linejoin="round" stroke-width="4"/>
        <path id="Trazado_155578" data-name="Trazado 155578" d="M-5530.42-8859.12l10.879,7.958L-5530.42-8843" transform="translate(6355.52 11655.883)" fill="none" stroke="#12263f" stroke-linecap="round" stroke-linejoin="round" stroke-width="4"/>
      </g>
      <g id="configuraciones" transform="translate(-7184 -8938.674)">
        <g id="Grupo_68616" data-name="Grupo 68616">
          <g id="Grupo_68615" data-name="Grupo 68615">
            <path id="Trazado_155616" data-name="Trazado 155616" d="M36.66,15.558l-4.386-1.064a14.215,14.215,0,0,0-.922-2.231l2.25-3.75a1.1,1.1,0,0,0-.165-1.342L30.33,4.063A1.1,1.1,0,0,0,28.988,3.9L25.237,6.15a14.2,14.2,0,0,0-2.231-.922L21.942.84A1.1,1.1,0,0,0,20.874,0h-4.4a1.1,1.1,0,0,0-1.068.84L14.347,5.226a14.209,14.209,0,0,0-2.231.922L8.366,3.9a1.1,1.1,0,0,0-1.342.165L3.917,7.17a1.1,1.1,0,0,0-.165,1.342L6,12.263A14.2,14.2,0,0,0,5.078,14.5L.832,15.56A1.1,1.1,0,0,0,0,16.626v4.4a1.1,1.1,0,0,0,.832,1.066l4.245,1.061A14.21,14.21,0,0,0,6,25.384l-2.25,3.75a1.1,1.1,0,0,0,.165,1.342l3.107,3.107a1.1,1.1,0,0,0,1.342.165l3.75-2.25a14.213,14.213,0,0,0,2.236.924l1.061,4.245a1.1,1.1,0,0,0,1.066.832h4.4a1.1,1.1,0,0,0,1.066-.832L23,32.422a14.209,14.209,0,0,0,2.236-.924l3.75,2.25a1.1,1.1,0,0,0,1.342-.165l3.107-3.107a1.1,1.1,0,0,0,.165-1.342l-2.25-3.75a14.207,14.207,0,0,0,.922-2.231l4.386-1.064a1.1,1.1,0,0,0,.84-1.068V16.626a1.1,1.1,0,0,0-.838-1.068Zm-1.358,4.6-4.163,1.01a1.1,1.1,0,0,0-.8.784,12,12,0,0,1-1.2,2.908,1.1,1.1,0,0,0,.009,1.115l2.133,3.555-1.894,1.894L25.828,29.29a1.1,1.1,0,0,0-1.115-.009,12.012,12.012,0,0,1-2.908,1.2,1.1,1.1,0,0,0-.782.8L20.016,35.3H17.337l-1.006-4.024a1.1,1.1,0,0,0-.782-.8,12.008,12.008,0,0,1-2.908-1.2,1.1,1.1,0,0,0-1.115.009L7.971,31.423,6.077,29.529,8.21,25.974a1.1,1.1,0,0,0,.009-1.115,12,12,0,0,1-1.2-2.908,1.1,1.1,0,0,0-.795-.782L2.2,20.163V17.484l4.024-1.006a1.1,1.1,0,0,0,.8-.782,12.006,12.006,0,0,1,1.2-2.908,1.1,1.1,0,0,0-.009-1.115L6.077,8.118,7.971,6.223l3.555,2.133a1.1,1.1,0,0,0,1.115.009,12,12,0,0,1,2.908-1.2,1.1,1.1,0,0,0,.784-.8L17.343,2.2H20.01l1.01,4.163a1.1,1.1,0,0,0,.784.8,12,12,0,0,1,2.908,1.2,1.1,1.1,0,0,0,1.115-.009l3.555-2.133,1.894,1.894L29.143,11.67a1.1,1.1,0,0,0-.009,1.115,12,12,0,0,1,1.2,2.908,1.1,1.1,0,0,0,.8.784L35.3,17.49Z" fill="#464655"/>
          </g>
        </g>
        <g id="Grupo_68618" data-name="Grupo 68618" transform="translate(10.986 11.133)">
          <g id="Grupo_68617" data-name="Grupo 68617">
            <path id="Trazado_155617" data-name="Trazado 155617" d="M157.69,152a7.69,7.69,0,1,0,7.69,7.69,7.69,7.69,0,0,0-7.69-7.69Zm0,13.184a5.493,5.493,0,1,1,5.493-5.493,5.493,5.493,0,0,1-5.493,5.493Z" transform="translate(-150 -152)" fill="#464655"/>
          </g>
        </g>
      </g>
      <rect id="Rectángulo_7628" data-name="Rectángulo 7628" width="400" height="180" transform="translate(-7269 -8997)" fill="none"/>
    </g>
  </g>
</svg>
