<svg xmlns="http://www.w3.org/2000/svg" width="51" height="51" viewBox="0 0 51 51">
  <g id="img6" transform="translate(-1264.711 -813.413)">
    <g id="Group_1179265" data-name="Group 1179265" transform="translate(29 -2830.587)">
      <path id="Path_998619" data-name="Path 998619" d="M10,0H41A10,10,0,0,1,51,10V41A10,10,0,0,1,41,51H10A10,10,0,0,1,0,41V10A10,10,0,0,1,10,0Z" transform="translate(1235.711 3644)" fill="#fff"/>
      <g id="Grupo_70142" data-name="Grupo 70142" transform="translate(847.302 -2098.352)">
        <path id="Trazado_156550" data-name="Trazado 156550" d="M673.162,0a1.857,1.857,0,0,0-1.849,1.848v26.9a1.862,1.862,0,0,0,1.849,1.854H706.47a1.861,1.861,0,0,0,1.848-1.854V1.848A1.856,1.856,0,0,0,706.469,0Zm0,1.233H706.47a.6.6,0,0,1,.614.614V7.4H672.548V1.848a.6.6,0,0,1,.614-.614m2.467,1.234a1.848,1.848,0,1,0,1.854,1.849,1.848,1.848,0,0,0-1.854-1.849m4.935,0a1.848,1.848,0,1,0,1.849,1.849,1.849,1.849,0,0,0-1.849-1.849m4.935,0a1.848,1.848,0,1,0,1.849,1.849A1.848,1.848,0,0,0,685.5,2.467m7.369,0a.62.62,0,0,0-.585.614V5.549a.617.617,0,0,0,.614.614h12.338a.617.617,0,0,0,.614-.614V3.081a.617.617,0,0,0-.614-.614ZM675.629,3.7a.617.617,0,1,1-.614.614.608.608,0,0,1,.614-.614m4.935,0a.617.617,0,1,1-.617.617.617.617,0,0,1,.617-.617m4.935,0a.617.617,0,1,1-.617.617A.617.617,0,0,1,685.5,3.7m8.018,0h11.1V4.935h-11.1ZM672.548,8.63h34.537V28.752a.6.6,0,0,1-.614.621H673.162a.6.6,0,0,1-.614-.62Zm3.086,1.39a.617.617,0,0,0-.619.614V26.676a.617.617,0,0,0,.617.612H704a.617.617,0,0,0,.619-.614V10.636a.617.617,0,0,0-.619-.614Zm.614,1.157h27.139v14.8H676.248Z" transform="translate(-276.064 5752.91)" fill="#12263f"/>
      </g>
    </g>
    <path id="Path_998620" data-name="Path 998620" d="M-11.119-2.516l2.484.9V-.559l-3.375-1.43v-.75Zm2.484-.734-2.488.914-.887.211v-.75L-8.635-4.3ZM-6.607-6V0H-7.732V-6Zm-.16,3.738h-.309a2.881,2.881,0,0,1,.117-.814,2.02,2.02,0,0,1,.324-.648,1.5,1.5,0,0,1,.506-.428A1.4,1.4,0,0,1-5.475-4.3a1.741,1.741,0,0,1,.568.088,1.1,1.1,0,0,1,.441.281,1.3,1.3,0,0,1,.287.506,2.471,2.471,0,0,1,.1.758V0H-5.209V-2.68a1.015,1.015,0,0,0-.08-.443.472.472,0,0,0-.23-.23.89.89,0,0,0-.369-.068.872.872,0,0,0-.412.09.712.712,0,0,0-.271.248,1.131,1.131,0,0,0-.148.369A2.086,2.086,0,0,0-6.768-2.262Zm5.613-1.965v.8H-3.615v-.8ZM-3.006-5.27h1.125v4a.645.645,0,0,0,.049.281.265.265,0,0,0,.146.135.7.7,0,0,0,.246.037A1.653,1.653,0,0,0-1.25-.83q.084-.01.143-.021l0,.828a2.114,2.114,0,0,1-.312.074,2.318,2.318,0,0,1-.371.027,1.573,1.573,0,0,1-.646-.123.881.881,0,0,1-.424-.4,1.5,1.5,0,0,1-.148-.719ZM.607-3.352V0H-.521V-4.227H.537Zm-.16,1.09H.139a2.934,2.934,0,0,1,.107-.814,1.956,1.956,0,0,1,.316-.648,1.444,1.444,0,0,1,.518-.428A1.6,1.6,0,0,1,1.795-4.3a1.519,1.519,0,0,1,.516.084,1.034,1.034,0,0,1,.4.262,1.2,1.2,0,0,1,.264.461,2.167,2.167,0,0,1,.094.678V0H1.947V-2.7a1.019,1.019,0,0,0-.078-.445.445.445,0,0,0-.221-.219.848.848,0,0,0-.342-.062.773.773,0,0,0-.381.09.762.762,0,0,0-.268.248A1.172,1.172,0,0,0,.5-2.715,1.864,1.864,0,0,0,.447-2.262Zm2.52-.129-.4.051a2.742,2.742,0,0,1,.1-.77,1.9,1.9,0,0,1,.309-.625,1.424,1.424,0,0,1,.51-.42,1.569,1.569,0,0,1,.7-.15,1.663,1.663,0,0,1,.555.088,1.059,1.059,0,0,1,.428.277,1.262,1.262,0,0,1,.273.494,2.516,2.516,0,0,1,.1.746V0H4.412V-2.7a1.04,1.04,0,0,0-.076-.447.428.428,0,0,0-.219-.215.861.861,0,0,0-.338-.061.753.753,0,0,0-.355.08.726.726,0,0,0-.254.221,1,1,0,0,0-.152.326A1.528,1.528,0,0,0,2.967-2.391ZM7.6-6V0H6.471V-6Zm3.461,3.641-2.5-.895V-4.3l3.4,1.43v.754Zm-2.5.75,2.508-.914.895-.215v.75l-3.4,1.43Z" transform="translate(1289.711 845)" fill="#12263f"/>
  </g>
</svg>
