<svg xmlns="http://www.w3.org/2000/svg" xmlns:xlink="http://www.w3.org/1999/xlink" width="86.289" height="86" viewBox="0 0 86.289 86">
  <defs>
    <clipPath id="clip-path">
      <rect id="Rectangle_455533" data-name="Rectangle 455533" width="86.225" height="81.79" fill="#19538d"/>
    </clipPath>
    <clipPath id="clip-path-2">
      <rect id="Rectangle_456165" data-name="Rectangle 456165" width="55.335" height="43.131" fill="none"/>
    </clipPath>
    <clipPath id="clip-path-3">
      <rect id="Rectangle_456158" data-name="Rectangle 456158" width="14.173" height="1.604" fill="none"/>
    </clipPath>
    <clipPath id="clip-path-4">
      <rect id="Rectangle_456160" data-name="Rectangle 456160" width="12.049" height="18.925" fill="none"/>
    </clipPath>
    <clipPath id="clip-path-5">
      <rect id="Rectangle_456161" data-name="Rectangle 456161" width="2.329" height="9.86" fill="none"/>
    </clipPath>
    <clipPath id="clip-path-6">
      <rect id="Rectangle_456162" data-name="Rectangle 456162" width="4.133" height="11.928" fill="none"/>
    </clipPath>
    <clipPath id="clip-path-7">
      <rect id="Rectangle_456163" data-name="Rectangle 456163" width="5.613" height="16.176" fill="none"/>
    </clipPath>
  </defs>
  <g id="img4" transform="translate(-619.711 -1739.536)">
    <g id="Group_1179697" data-name="Group 1179697" transform="translate(416 -1400.439)">
      <g id="Group_1179620" data-name="Group 1179620" transform="translate(203.711 3140)">
        <ellipse id="Ellipse_13674" data-name="Ellipse 13674" cx="38" cy="37" rx="38" ry="37" transform="translate(5 6.976)" fill="#19538d"/>
        <g id="Group_1179062" data-name="Group 1179062">
          <rect id="Rectangle_455531" data-name="Rectangle 455531" width="86" height="86" transform="translate(0 -0.024)" fill="none"/>
          <g id="Group_1179061" data-name="Group 1179061" transform="translate(0.064 2.612)">
            <path id="Path_998445" data-name="Path 998445" d="M117.237,96.538H96.727l2.78-5.184h20.51Z" transform="translate(-37.054 -31.371)" fill="#19538d"/>
            <path id="Path_998446" data-name="Path 998446" d="M1.686,86.893,0,90.324H22.613L24.3,86.893Z" transform="translate(0 -29.548)" fill="#19538d"/>
            <path id="Path_998447" data-name="Path 998447" d="M120.465,31.812H98.809l1.7-3.845h21.655Z" transform="translate(-37.369 -9.532)" fill="#19538d"/>
            <path id="Path_998448" data-name="Path 998448" d="M31.931,12.066H3.483l1.7-3.845H33.629Z" transform="translate(-0.525 -1.241)" fill="#19538d"/>
            <g id="Group_1179060" data-name="Group 1179060" transform="translate(0)">
              <g id="Group_1179059" data-name="Group 1179059" clip-path="url(#clip-path)">
                <path id="Path_998449" data-name="Path 998449" d="M43.965,93.524a36.4,36.4,0,0,1-36.6-36.192,35.911,35.911,0,0,1,.93-8.095H3.426a40.631,40.631,0,0,0-.814,8.095A41.443,41.443,0,0,0,76.173,82.97H69.794A36.687,36.687,0,0,1,43.965,93.524" transform="translate(-0.852 -16.437)" fill="#19538d"/>
                <path id="Path_998450" data-name="Path 998450" d="M110.835,87.6h5.411c.434-.855.829-1.733,1.2-2.621h-5.2c-.437.894-.905,1.769-1.413,2.621" transform="translate(-36.173 -28.369)" fill="#19538d"/>
                <path id="Path_998451" data-name="Path 998451" d="M86.219,40.895A41.42,41.42,0,0,0,5.373,28.733h5.02A36.659,36.659,0,0,1,81.464,40.895a35.665,35.665,0,0,1-2.643,13.5h5.07a40.308,40.308,0,0,0,2.328-13.5" transform="translate(-1.754)" fill="#19538d"/>
                <path id="Path_998452" data-name="Path 998452" d="M108.562,81.649v2.219h2.944q.534-1.09.994-2.219Z" transform="translate(-35.431 -27.257)" fill="#19538d"/>
                <path id="Path_998453" data-name="Path 998453" d="M125.6,81.649h-4.088q-.4,1.125-.86,2.219H125.6Z" transform="translate(-39.378 -27.257)" fill="#19538d"/>
              </g>
            </g>
            <path id="Path_998444" data-name="Path 998444" d="M2.547,37.025,0,42.209H15.4l2.547-5.184Z" transform="translate(0 -12.714)" fill="#19538d"/>
          </g>
        </g>
      </g>
    </g>
    <rect id="Rectangle_456154" data-name="Rectangle 456154" width="14.173" height="5.009" transform="translate(657.035 1788.75)" fill="#d6d6d6"/>
    <rect id="Rectangle_456166" data-name="Rectangle 456166" width="55.335" height="48.131" transform="translate(636.711 1755.268)" fill="none"/>
    <g id="Group_1179735" data-name="Group 1179735" transform="translate(0 243.807)">
      <g id="Group_1179734" data-name="Group 1179734" transform="translate(636.711 1515.002)">
        <g id="Group_1179733" data-name="Group 1179733" clip-path="url(#clip-path-2)">
          <path id="Path_998794" data-name="Path 998794" d="M50.528.827V24.6H5.84V.827A.829.829,0,0,1,6.668,0H49.7a.826.826,0,0,1,.828.827" transform="translate(-0.774 0)" fill="#d6d6d6"/>
          <path id="Path_998808" data-name="Path 998808" d="M0,0H40.4V20.272H0Z" transform="translate(7.209 2.134)" fill="#9ecfff"/>
          <rect id="Rectangle_456156" data-name="Rectangle 456156" width="20.726" height="2.059" transform="translate(17.048 34.947)" fill="#f0f0f0"/>
          <g id="Group_1179720" data-name="Group 1179720" transform="translate(20.324 30.514)" opacity="0.25" style="mix-blend-mode: multiply;isolation: isolate">
            <g id="Group_1179719" data-name="Group 1179719">
              <g id="Group_1179718" data-name="Group 1179718" clip-path="url(#clip-path-3)">
                <rect id="Rectangle_456157" data-name="Rectangle 456157" width="14.173" height="1.604" transform="translate(0)" fill="#aaa1ac"/>
              </g>
            </g>
          </g>
          <path id="Path_998795" data-name="Path 998795" d="M50.528,28.354v5.093a.825.825,0,0,1-.828.827H6.668a.829.829,0,0,1-.828-.827V28.354Z" transform="translate(-0.774 -3.758)" fill="#f0f0f0"/>
          <path id="Path_998796" data-name="Path 998796" d="M32.781,31.551a1.4,1.4,0,1,1-1.395-1.4,1.394,1.394,0,0,1,1.395,1.4" transform="translate(-3.975 -3.997)" fill="#ccc"/>
          <path id="Path_998797" data-name="Path 998797" d="M60.069,21.838H51.416a1.894,1.894,0,0,0-1.837,1.945v20.3a1.893,1.893,0,0,0,1.837,1.942h8.653a1.892,1.892,0,0,0,1.838-1.942v-20.3a1.893,1.893,0,0,0-1.838-1.945m.992,21.075H50.426V24.951H61.061Z" transform="translate(-6.572 -2.894)" fill="#fff"/>
          <rect id="Rectangle_456159" data-name="Rectangle 456159" width="10.635" height="17.961" transform="translate(43.855 22.057)" fill="#cf9eff"/>
          <path id="Path_998798" data-name="Path 998798" d="M58.522,23.62a.229.229,0,0,1-.229.228H54.416a.228.228,0,1,1,0-.456h3.877a.229.229,0,0,1,.229.228" transform="translate(-7.183 -3.1)" fill="#ccc"/>
          <g id="Group_1179723" data-name="Group 1179723" transform="translate(8.566 3.351)" opacity="0.24">
            <g id="Group_1179722" data-name="Group 1179722">
              <g id="Group_1179721" data-name="Group 1179721" clip-path="url(#clip-path-4)">
                <path id="Path_998799" data-name="Path 998799" d="M9.875,3.862V22.787h5.962L21.924,3.862Z" transform="translate(-9.875 -3.862)" fill="#fff"/>
              </g>
            </g>
          </g>
          <g id="Group_1179726" data-name="Group 1179726" transform="translate(40.694 20.654)" opacity="0.52" style="mix-blend-mode: multiply;isolation: isolate">
            <g id="Group_1179725" data-name="Group 1179725">
              <g id="Group_1179724" data-name="Group 1179724" clip-path="url(#clip-path-5)">
                <path id="Path_998800" data-name="Path 998800" d="M49.241,23.81a2.335,2.335,0,0,0-.014.238V33.67H46.912V25.754A1.894,1.894,0,0,1,48.75,23.81Z" transform="translate(-46.912 -23.81)" fill="#7a8494"/>
              </g>
            </g>
          </g>
          <g id="Group_1179729" data-name="Group 1179729" transform="translate(19.292 18.586)" opacity="0.52" style="mix-blend-mode: multiply;isolation: isolate">
            <g id="Group_1179728" data-name="Group 1179728">
              <g id="Group_1179727" data-name="Group 1179727" clip-path="url(#clip-path-6)">
                <path id="Path_998801" data-name="Path 998801" d="M26.373,23.26V33.353H22.24V21.425h2.431a1.774,1.774,0,0,1,1.7,1.835" transform="translate(-22.24 -21.426)" fill="#7a8494"/>
              </g>
            </g>
          </g>
          <g id="Group_1179732" data-name="Group 1179732" transform="translate(44.804 22.861)" opacity="0.24">
            <g id="Group_1179731" data-name="Group 1179731">
              <g id="Group_1179730" data-name="Group 1179730" clip-path="url(#clip-path-7)">
                <path id="Path_998802" data-name="Path 998802" d="M51.65,26.354V42.531h2.778l2.835-16.176Z" transform="translate(-51.65 -26.354)" fill="#fff"/>
              </g>
            </g>
          </g>
          <path id="Path_998804" data-name="Path 998804" d="M26.161,10.229v1.75l-4.786,1.983,4.786,2.008v1.751l-6.948-3V13.2Z" transform="translate(-2.547 -1.356)" fill="#62249e"/>
          <path id="Path_998805" data-name="Path 998805" d="M34.677,5.387h1.706L30.59,20.581H28.881Z" transform="translate(-3.828 -0.714)" fill="#62249e"/>
          <path id="Path_998806" data-name="Path 998806" d="M39.192,10.229l6.95,3v1.517l-6.95,2.97V15.984l4.787-2-4.787-2Z" transform="translate(-5.195 -1.356)" fill="#62249e"/>
        </g>
      </g>
      <path id="Path_998807" data-name="Path 998807" d="M19.292,45.355a1.878,1.878,0,0,1-1.7,2.013H1.7A1.876,1.876,0,0,1,0,45.355V20.915A1.875,1.875,0,0,1,1.7,18.9H17.592a1.876,1.876,0,0,1,1.7,2.011Z" transform="translate(636.711 1514.079)" fill="#fff"/>
      <path id="Path_998809" data-name="Path 998809" d="M0,0H15.772V23.276H0Z" transform="translate(638.45 1534.857)" fill="#61e9c3"/>
    </g>
    <rect id="Rectangle_456167" data-name="Rectangle 456167" width="12.128" height="0.794" transform="translate(639.949 1781.959)" fill="#62249e"/>
    <rect id="Rectangle_456171" data-name="Rectangle 456171" width="12.128" height="0.794" transform="translate(639.949 1787.959)" fill="#62249e"/>
    <rect id="Rectangle_456168" data-name="Rectangle 456168" width="12.128" height="0.792" transform="translate(639.949 1783.459)" fill="#62249e"/>
    <rect id="Rectangle_456172" data-name="Rectangle 456172" width="12.128" height="0.792" transform="translate(639.949 1789.459)" fill="#62249e"/>
    <rect id="Rectangle_456169" data-name="Rectangle 456169" width="12.128" height="0.793" transform="translate(639.949 1784.961)" fill="#62249e"/>
    <rect id="Rectangle_456173" data-name="Rectangle 456173" width="12.128" height="0.793" transform="translate(639.949 1790.961)" fill="#62249e"/>
    <rect id="Rectangle_456170" data-name="Rectangle 456170" width="12.128" height="0.792" transform="translate(639.949 1786.463)" fill="#62249e"/>
    <path id="Path_998810" data-name="Path 998810" d="M0,0H12.128V.792H0Z" transform="translate(639.949 1792.463)" fill="#62249e"/>
    <path id="Path_998811" data-name="Path 998811" d="M0,0H7.2V.792H0Z" transform="translate(639.949 1793.959)" fill="#62249e"/>
  </g>
</svg>
