<svg id="img12" xmlns="http://www.w3.org/2000/svg" width="1020" height="483.93" viewBox="0 0 1020 483.93">
  <path id="Rectangle_389225" data-name="Rectangle 389225" d="M9,0H1011a9,9,0,0,1,9,9V55a0,0,0,0,1,0,0H0a0,0,0,0,1,0,0V9A9,9,0,0,1,9,0Z" fill="#3a1d71"/>
  <path id="Rectangle_389226" data-name="Rectangle 389226" d="M0,0H1020a0,0,0,0,1,0,0V419.93a9,9,0,0,1-9,9H9a9,9,0,0,1-9-9V0A0,0,0,0,1,0,0Z" transform="translate(0 55)" fill="#110628"/>
  <circle id="Ellipse_11380" data-name="Ellipse 11380" cx="8" cy="8" r="8" transform="translate(32 19)" fill="#9ecfff"/>
  <circle id="Ellipse_11381" data-name="Ellipse 11381" cx="8" cy="8" r="8" transform="translate(67 19)" fill="#cf9eff"/>
  <circle id="Ellipse_11382" data-name="Ellipse 11382" cx="8" cy="8" r="8" transform="translate(102 19)" fill="#61e9c3"/>
</svg>
