<svg id="img6" xmlns="http://www.w3.org/2000/svg" xmlns:xlink="http://www.w3.org/1999/xlink" width="263.002" height="228.58" viewBox="0 0 263.002 228.58">
  <defs>
    <clipPath id="clip-path">
      <rect id="Rectangle_8226" data-name="Rectangle 8226" width="263.002" height="228.58" fill="none"/>
    </clipPath>
    <clipPath id="clip-path-3">
      <rect id="Rectangle_8224" data-name="Rectangle 8224" width="4.729" height="1.861" fill="none"/>
    </clipPath>
  </defs>
  <g id="Group_70343" data-name="Group 70343" clip-path="url(#clip-path)">
    <g id="Group_70342" data-name="Group 70342">
      <g id="Group_70341" data-name="Group 70341" clip-path="url(#clip-path)">
        <path id="Path_157085" data-name="Path 157085" d="M266.631,322.982c0,3.567-56.053,6.459-125.2,6.459s-125.2-2.892-125.2-6.459,56.053-6.458,125.2-6.458,125.2,2.892,125.2,6.458" transform="translate(-5.173 -100.861)" fill="#ced3e6"/>
        <path id="Path_157086" data-name="Path 157086" d="M241.79,317.515H75.648v-7.2A10.849,10.849,0,0,1,86.5,299.472H230.942A10.848,10.848,0,0,1,241.79,310.32Z" transform="translate(-24.105 -95.427)" fill="#fff"/>
        <rect id="Rectangle_8221" data-name="Rectangle 8221" width="60.224" height="38.662" transform="translate(104.034 165.382)" fill="#fff"/>
        <path id="Path_157087" data-name="Path 157087" d="M152.688,282.971l60.224-4.822.009-7.05-60.224.071Z" transform="translate(-48.654 -86.386)" fill="#ced3e6"/>
        <path id="Path_157088" data-name="Path 157088" d="M263,28.773V180.391a8.047,8.047,0,0,1-8.047,8.046H8.047A8.047,8.047,0,0,1,0,180.391V28.773a8.047,8.047,0,0,1,8.047-8.047H254.955c.121,0,.239,0,.357.008.089,0,.174.008.261.016h.01c.062,0,.124.01.187.018.1.008.206.022.311.036.068.008.134.018.2.032.032,0,.065.01.1.016.066.01.13.022.2.038A8.048,8.048,0,0,1,263,28.773" transform="translate(0 -6.604)" fill="#fff"/>
        <path id="Path_157089" data-name="Path 157089" d="M199.8,248.29a5.562,5.562,0,1,1-5.563-5.563,5.562,5.562,0,0,1,5.563,5.563" transform="translate(-60.121 -77.345)" fill="#ced3e6"/>
        <path id="Path_157090" data-name="Path 157090" d="M256.576,20.891c-.066-.016-.131-.028-.2-.038-.032-.006-.064-.012-.1-.016-.068-.014-.134-.024-.2-.032-.1-.014-.207-.028-.311-.036-.062-.008-.124-.014-.187-.018h-.01c-.087-.008-.173-.012-.261-.016-.119-.006-.237-.007-.357-.007H8.047A8.047,8.047,0,0,0,0,28.773V169.179H263V28.773a8.048,8.048,0,0,0-6.425-7.882M252.57,155.154a2.188,2.188,0,0,1-2.188,2.189H12.621a2.188,2.188,0,0,1-2.189-2.189V33.347a2.188,2.188,0,0,1,2.189-2.188H250.381a2.188,2.188,0,0,1,2.188,2.188Z" transform="translate(0 -6.605)" fill="#39393b"/>
        <path id="Path_157091" data-name="Path 157091" d="M257.448,38.225V160.033a2.188,2.188,0,0,1-2.188,2.188H17.5a2.188,2.188,0,0,1-2.189-2.188V38.225A2.188,2.188,0,0,1,17.5,36.037H255.26a2.188,2.188,0,0,1,2.188,2.188" transform="translate(-4.879 -11.483)" fill="#ced3e6"/>
        <path id="Path_157092" data-name="Path 157092" d="M257.448,38.225v11.5H15.31v-11.5A2.188,2.188,0,0,1,17.5,36.037H255.26a2.188,2.188,0,0,1,2.188,2.188" transform="translate(-4.879 -11.483)" fill="#fff"/>
        <path id="Path_157093" data-name="Path 157093" d="M341.426,44.939a1.859,1.859,0,1,1-1.859-1.859,1.86,1.86,0,0,1,1.859,1.859" transform="translate(-107.611 -13.727)" fill="#df615c"/>
        <path id="Path_157094" data-name="Path 157094" d="M350.27,44.939a1.859,1.859,0,1,1-1.859-1.859,1.86,1.86,0,0,1,1.859,1.859" transform="translate(-110.429 -13.727)" fill="#21b573"/>
        <path id="Path_157095" data-name="Path 157095" d="M237.313,46.856H48A1.663,1.663,0,0,1,46.342,45.2V44.58A1.663,1.663,0,0,1,48,42.922H237.313a1.664,1.664,0,0,1,1.659,1.658V45.2a1.664,1.664,0,0,1-1.659,1.659" transform="translate(-14.767 -13.677)" fill="#d2dcec"/>
        <path id="Path_157096" data-name="Path 157096" d="M26.355,44.8v1.821a.334.334,0,0,1-.5.29L24.277,46,22.7,45.09a.333.333,0,0,1,0-.578l1.577-.911,1.577-.91a.334.334,0,0,1,.5.29Z" transform="translate(-7.18 -13.589)"/>
        <path id="Path_157097" data-name="Path 157097" d="M32.208,44.8v1.821a.334.334,0,0,0,.5.29L34.285,46l1.577-.911a.333.333,0,0,0,0-.578L34.285,43.6l-1.577-.91a.334.334,0,0,0-.5.29Z" transform="translate(-10.263 -13.589)"/>
        <path id="Path_157098" data-name="Path 157098" d="M355.595,46.52l-.112-.112a.446.446,0,0,1,0-.631l2.526-2.526a.446.446,0,0,1,.631,0l.112.112a.446.446,0,0,1,0,.631l-2.526,2.526a.446.446,0,0,1-.631,0" transform="translate(-113.233 -13.741)" fill="#39393b"/>
        <path id="Path_157099" data-name="Path 157099" d="M358.639,46.52l.112-.112a.446.446,0,0,0,0-.631l-2.526-2.526a.446.446,0,0,0-.631,0l-.112.112a.446.446,0,0,0,0,.631l2.526,2.526a.446.446,0,0,0,.631,0" transform="translate(-113.233 -13.741)" fill="#39393b"/>
        <path id="Path_157100" data-name="Path 157100" d="M237.854,165.018h-178a4.375,4.375,0,0,1-4.376-4.376V64.568a4.376,4.376,0,0,1,4.376-4.376h178a4.376,4.376,0,0,1,4.376,4.376v96.074a4.375,4.375,0,0,1-4.376,4.376" transform="translate(-17.679 -19.18)" fill="#fff"/>
        <path id="Path_157101" data-name="Path 157101" d="M109.913,161.053H66.684A2.053,2.053,0,0,1,64.63,159V136.534a2.053,2.053,0,0,1,2.054-2.054h43.23a2.053,2.053,0,0,1,2.054,2.054V159a2.053,2.053,0,0,1-2.054,2.054" transform="translate(-20.594 -42.852)" fill="#ced3e6"/>
        <path id="Path_157102" data-name="Path 157102" d="M294.894,95.926h-43.23a2.053,2.053,0,0,1-2.053-2.054V71.407a2.053,2.053,0,0,1,2.053-2.054h43.23a2.053,2.053,0,0,1,2.053,2.054V93.873a2.053,2.053,0,0,1-2.053,2.054" transform="translate(-79.539 -22.099)" fill="#ced3e6"/>
        <path id="Path_157103" data-name="Path 157103" d="M110.846,104.753H65.614a1.087,1.087,0,0,1-1.087-1.087v-.1a1.088,1.088,0,0,1,1.087-1.088h45.232a1.088,1.088,0,0,1,1.087,1.088v.1a1.087,1.087,0,0,1-1.087,1.087" transform="translate(-20.562 -32.655)" fill="#ced3e6"/>
        <path id="Path_157104" data-name="Path 157104" d="M110.846,90.629H65.614a1.087,1.087,0,0,1-1.087-1.087v-.1a1.088,1.088,0,0,1,1.087-1.088h45.232a1.088,1.088,0,0,1,1.087,1.088v.1a1.087,1.087,0,0,1-1.087,1.087" transform="translate(-20.562 -28.154)" fill="#ced3e6"/>
        <path id="Path_157105" data-name="Path 157105" d="M110.846,118.878H65.614a1.087,1.087,0,0,1-1.087-1.087v-.1a1.088,1.088,0,0,1,1.087-1.088h45.232a1.088,1.088,0,0,1,1.087,1.088v.1a1.087,1.087,0,0,1-1.087,1.087" transform="translate(-20.562 -37.156)" fill="#ced3e6"/>
        <path id="Path_157106" data-name="Path 157106" d="M295.859,137.847H250.7a1.088,1.088,0,0,1-1.087-1.087v-.1a1.088,1.088,0,0,1,1.087-1.088h45.162a1.088,1.088,0,0,1,1.087,1.088v.1a1.087,1.087,0,0,1-1.087,1.087" transform="translate(-79.538 -43.2)" fill="#ced3e6"/>
        <path id="Path_157107" data-name="Path 157107" d="M295.859,123.723H250.7a1.088,1.088,0,0,1-1.087-1.087v-.1a1.088,1.088,0,0,1,1.087-1.088h45.162a1.088,1.088,0,0,1,1.087,1.088v.1a1.087,1.087,0,0,1-1.087,1.087" transform="translate(-79.538 -38.7)" fill="#ced3e6"/>
        <path id="Path_157108" data-name="Path 157108" d="M295.859,151.972H250.7a1.088,1.088,0,0,1-1.087-1.087v-.1A1.088,1.088,0,0,1,250.7,149.7h45.162a1.088,1.088,0,0,1,1.087,1.088v.1a1.087,1.087,0,0,1-1.087,1.087" transform="translate(-79.538 -47.701)" fill="#ced3e6"/>
        <path id="Path_157109" data-name="Path 157109" d="M55.482,190.15H242.229v15.311a.97.97,0,0,1-.97.968H56.452a.97.97,0,0,1-.97-.968Z" transform="translate(-17.679 -60.591)" fill="#39393b"/>
        <path id="Path_157110" data-name="Path 157110" d="M309.342,197.786v-1.38h1.727v-1.228h-2.341a.614.614,0,0,0-.614.614v1.994Z" transform="translate(-98.181 -62.194)" fill="#fff"/>
        <path id="Path_157111" data-name="Path 157111" d="M309.342,202.611h-1.228v2.1a.614.614,0,0,0,.614.614h2.341V204.1h-1.727Z" transform="translate(-98.181 -64.562)" fill="#fff"/>
        <path id="Path_157112" data-name="Path 157112" d="M316.96,197.786h1.228v-1.994a.614.614,0,0,0-.614-.614h-2.251v1.228h1.637Z" transform="translate(-100.478 -62.194)" fill="#fff"/>
        <path id="Path_157113" data-name="Path 157113" d="M316.96,202.611V204.1h-1.637v1.228h2.251a.614.614,0,0,0,.614-.614v-2.1Z" transform="translate(-100.478 -64.562)" fill="#fff"/>
        <rect id="Rectangle_8222" data-name="Rectangle 8222" width="186.748" height="3.061" transform="translate(37.803 126.498)" fill="#ced3e6"/>
        <path id="Path_157114" data-name="Path 157114" d="M75.394,64.884H77.5V69.5h2.821v1.634H75.394Z" transform="translate(-24.024 -20.675)" fill="#39393b"/>
        <rect id="Rectangle_8223" data-name="Rectangle 8223" width="2.107" height="6.249" transform="translate(56.877 44.209)" fill="#39393b"/>
        <path id="Path_157115" data-name="Path 157115" d="M94.422,64.884,91.78,71.133H89.709l-2.642-6.249h2.268l1.491,3.651,1.526-3.651Z" transform="translate(-27.744 -20.675)" fill="#39393b"/>
        <path id="Path_157116" data-name="Path 157116" d="M103.358,69.544v1.589h-5.2V64.883h5.08v1.59h-3.009V67.2h2.643v1.517h-2.643v.822Z" transform="translate(-31.28 -20.675)" fill="#39393b"/>
        <path id="Path_157117" data-name="Path 157117" d="M67.9,68.193a2.57,2.57,0,1,1-2.569-2.569A2.57,2.57,0,0,1,67.9,68.193" transform="translate(-19.999 -20.911)" fill="#df615c"/>
        <path id="Path_157118" data-name="Path 157118" d="M291.742,169.37a2.257,2.257,0,1,1-2.257-2.257,2.257,2.257,0,0,1,2.257,2.257" transform="translate(-91.525 -53.251)" fill="#df615c"/>
        <path id="Path_157119" data-name="Path 157119" d="M292.787,177.554h-8.438a4.364,4.364,0,0,1,4.155-2.681l.063,0,.064,0a4.366,4.366,0,0,1,4.156,2.681" transform="translate(-90.608 -55.723)" fill="#df615c"/>
        <path id="Path_157120" data-name="Path 157120" d="M305.422,168.42v1.415l-2.274,5.418h-2.518l2.167-5.047h-1.318v1h-1.9V168.42Z" transform="translate(-95.46 -53.667)" fill="#39393b"/>
        <path id="Path_157121" data-name="Path 157121" d="M314.2,173.394v1.786h-5.477v-1.416l2.47-2.284c.469-.439.537-.7.537-.937,0-.332-.224-.536-.664-.536a1.117,1.117,0,0,0-1.006.634l-1.737-.869a3.134,3.134,0,0,1,2.958-1.581c1.62,0,2.763.839,2.763,2.137a2.691,2.691,0,0,1-1.171,2.177l-.976.888Z" transform="translate(-98.249 -53.594)" fill="#39393b"/>
        <path id="Path_157122" data-name="Path 157122" d="M266.841,88.916s1.682,5.413,5.9,5.836c3.407.34,6.07-3.257,6.97-4.653.215-.335.328-.542.328-.542a5.6,5.6,0,0,0,.615-.065c.857-.131,2.359-.52,2.81-1.659.643-1.624-2.6-2.219-2.6-2.219s1.392-1.642.85-2.619c-.534-.96-2.7-.875-2.7-.875s2.088-1.811,1.138-3c-1.429-1.793-3.5.689-3.677.834.126-.193,5.479-8.329,3.774-8.655-1.489-.285-6.411,6.282-7.727,8.081-.209.285-.326.45-.326.45s-.1-.057-.279-.142c-.841-.407-3.392-1.454-4.719.011-1.606,1.77-.358,9.223-.358,9.223" transform="translate(-84.882 -22.715)" fill="#ea9b7a"/>
        <path id="Path_157123" data-name="Path 157123" d="M280.857,92.131a3.463,3.463,0,0,0-1.295,1.746,1.022,1.022,0,0,0,.263.97,1.94,1.94,0,0,0,.773.416,10.661,10.661,0,0,0,2.73.361c.216-.335.328-.542.328-.542a5.475,5.475,0,0,0,.615-.065.321.321,0,0,0-.177-.045c-1.218.027-3.329-.106-3.807-.587a.377.377,0,0,1-.086-.376,3.921,3.921,0,0,1,2.157-2.02.326.326,0,0,0-.17-.625c-.8.126-3.019.3-3.715-.4-.1-.1-.089-.166-.08-.2a1.1,1.1,0,0,1,.428-.516,8.055,8.055,0,0,1,1.817-.988.313.313,0,0,0,.153-.125.317.317,0,0,0,.033-.3.328.328,0,0,0-.424-.186,8.8,8.8,0,0,0-1.831.968,2.785,2.785,0,0,0-.621.6,1.131,1.131,0,0,0-.2.416.849.849,0,0,0,.258.8,4.148,4.148,0,0,0,2.847.709" transform="translate(-88.5 -28.24)" fill="#d46a43"/>
        <path id="Path_157124" data-name="Path 157124" d="M277.3,86.757a.32.32,0,0,1,.077.358,2.106,2.106,0,0,0-.212,1.031.376.376,0,0,0,.21.323,1.3,1.3,0,0,0,.569.073,9.658,9.658,0,0,0,2.222-.482.322.322,0,0,1-.153.124,8.027,8.027,0,0,0-1.817.987c-.078.008-.155.012-.229.016a2.473,2.473,0,0,1-.644-.048,1.155,1.155,0,0,1-.224-.078,1.018,1.018,0,0,1-.581-.819,2.727,2.727,0,0,1,.255-1.386.319.319,0,0,1,.517-.106l.008.007" transform="translate(-88.107 -27.614)" fill="#d46a43"/>
        <path id="Path_157125" data-name="Path 157125" d="M269.023,86.732a10.734,10.734,0,0,0,2.325,1.13,3.675,3.675,0,0,0,1.936.187,1.631,1.631,0,0,0,1.079-.826c.834-1.522-.3-3.2-1.044-4.065-.209.285-.326.45-.326.45s-.1-.057-.279-.142c.64.709,1.753,2.21,1.077,3.443a.983.983,0,0,1-.663.506c-1.125.279-3.084-.791-3.744-1.227a.327.327,0,0,0-.36.545" transform="translate(-85.678 -26.498)" fill="#d46a43"/>
        <path id="Path_157126" data-name="Path 157126" d="M273.46,97.788a.327.327,0,0,0,.345-.529,2.941,2.941,0,0,1-.832-2.356c.249-2.15,2.823-3.972,2.849-3.99a.327.327,0,0,0-.375-.536c-.116.081-2.842,2.013-3.124,4.451a3.567,3.567,0,0,0,.994,2.868.327.327,0,0,0,.142.093" transform="translate(-86.769 -28.78)" fill="#d46a43"/>
        <path id="Path_157127" data-name="Path 157127" d="M207.039,61.909l3.317,8.4q.746,2.107,1.513,4.2t1.53,4.172c.522,1.38,1.036,2.756,1.562,4.115s1.068,2.7,1.615,4,1.1,2.577,1.647,3.711c.273.563.549,1.092.781,1.5l.157.271.064.109a.2.2,0,0,1,.019.048.582.582,0,0,1,.034.119c.01.057-.011.087.013.139s.1.125.275.2a5.168,5.168,0,0,0,2.038.223,16.454,16.454,0,0,0,3.228-.529,35.436,35.436,0,0,0,3.636-1.157A66.575,66.575,0,0,0,236,87.967c2.514-1.325,4.36-2.4,6.8-3.927a10.942,10.942,0,0,0,7.061,7.951,88.345,88.345,0,0,1-7.5,6.094,68.759,68.759,0,0,1-8.447,5.289,43.852,43.852,0,0,1-4.837,2.192,30.771,30.771,0,0,1-5.63,1.57,21.552,21.552,0,0,1-3.3.319,18.272,18.272,0,0,1-3.727-.316,15.745,15.745,0,0,1-4-1.337,15.166,15.166,0,0,1-3.658-2.535,15.979,15.979,0,0,1-1.477-1.584l-.322-.409-.264-.356c-.091-.123-.164-.228-.245-.343s-.162-.229-.231-.334c-.587-.867-1.068-1.658-1.517-2.432-.891-1.54-1.651-3-2.383-4.462s-1.395-2.9-2.052-4.346-1.291-2.877-1.9-4.318-1.207-2.877-1.79-4.318-1.141-2.885-1.7-4.329-1.092-2.894-1.62-4.348l-.78-2.187-.38-1.1c-.129-.373-.249-.729-.38-1.126Z" transform="translate(-61.095 -19.727)" fill="#21b573"/>
        <path id="Path_157128" data-name="Path 157128" d="M227.262,111.264a.418.418,0,0,0,.335-.168,18.105,18.105,0,0,1,3.007-3.135.419.419,0,0,0-.487-.681,18.578,18.578,0,0,0-3.19,3.314.419.419,0,0,0,.335.67" transform="translate(-72.284 -34.16)" fill="#217c58"/>
        <path id="Path_157129" data-name="Path 157129" d="M231.354,111.821a.42.42,0,0,0,.41-.509,7.679,7.679,0,0,1-.006-3.144.419.419,0,0,0-.805-.23,8.41,8.41,0,0,0-.006,3.556.418.418,0,0,0,.408.328" transform="translate(-73.529 -34.297)" fill="#217c58"/>
        <path id="Path_157130" data-name="Path 157130" d="M205.482,165.415c-7.752,4.463-26.5,6.762-38.722,1.906-4.486-1.781-5.272-2.876-4.932-10.929q.018-.45.042-.9c.033-.634.075-1.267.12-1.893.022-.3.047-.606.071-.906.092-1.124.2-2.226.319-3.285.033-.293.066-.581.1-.867a49.055,49.055,0,0,1,1.139-6.116c.074-.3.149-.577.22-.84.433-1.608.785-2.573.785-2.573a50.947,50.947,0,0,0,6.043.585c.29.012.577.023.867.029,10.574.279,21.333-2.116,26.32-3.412.3-.078.58-.153.837-.221,1.3-.348,2.027-.576,2.027-.576s.457.8,1.1,2.121c.118.245.243.506.371.784a43.875,43.875,0,0,1,3.048,8.638c.01.04.019.082.028.121.062.284.125.57.185.858l.037.173c.506,2.393.967,4.9,1.28,7.3h0c.042.309.078.615.114.918.612,5.265.7,7.869-1.395,9.077" transform="translate(-51.544 -43.152)" fill="#39393b"/>
        <path id="Path_157131" data-name="Path 157131" d="M222.362,148.385l-.057-.029a12.206,12.206,0,0,1-4.158-3.881q-.241-.352-.475-.728h0a26.656,26.656,0,0,1-2.94-7.26c.3-.078.58-.153.837-.222a25.523,25.523,0,0,0,2.888,7.1c.154.251.317.493.482.728a11.57,11.57,0,0,0,3.176,3.141c.01.039.019.081.028.121.062.284.125.57.185.858.012.057.025.114.037.173" transform="translate(-68.424 -43.421)" fill="#585859"/>
        <path id="Path_157132" data-name="Path 157132" d="M171.638,141.583a24.181,24.181,0,0,1-2.018,7.7c-.132.275-.269.542-.414.8a11.67,11.67,0,0,1-3,3.611,9.348,9.348,0,0,1-4.11,1.861c.022-.3.047-.606.072-.907a8.477,8.477,0,0,0,3.521-1.65,10.7,10.7,0,0,0,2.621-3.087c.149-.258.293-.523.428-.8a22.913,22.913,0,0,0,2.035-7.562c.289.012.576.022.866.029" transform="translate(-51.652 -45.106)" fill="#585859"/>
        <path id="Path_157133" data-name="Path 157133" d="M203.054,139.317c-.6.263-1.241.537-1.926.814-.266.108-.538.217-.816.324a57.935,57.935,0,0,1-14.859,3.741c-.217.02-.433.043-.65.062a81.188,81.188,0,0,1-14.619-.149c-.307-.03-.61-.058-.908-.091-1.812-.185-3.437-.4-4.791-.6.074-.3.149-.576.22-.84,1.388.2,3.06.423,4.924.61l.894.085a78.724,78.724,0,0,0,14.841.061,57.084,57.084,0,0,0,14.526-3.643h0c.277-.107.546-.215.809-.322.707-.284,1.369-.567,1.982-.837.118.244.243.506.371.783" transform="translate(-52.413 -44.144)" fill="#585859"/>
        <path id="Path_157134" data-name="Path 157134" d="M225.552,211.6c-1.132-17.483-3.7-33.691-7.464-46.828l-20.787,9.68a116.307,116.307,0,0,0,7.521,37.148Z" transform="translate(-62.87 -52.505)" fill="#39393b"/>
        <path id="Path_157135" data-name="Path 157135" d="M209.548,218.6a135.469,135.469,0,0,1-7.1-31.462.433.433,0,0,0-.865.061,136.375,136.375,0,0,0,7.05,31.4Z" transform="translate(-64.234 -59.504)" fill="#585859"/>
        <path id="Path_157136" data-name="Path 157136" d="M180.8,212.056c1.282-12.418,2.762-27.673,2.948-33.581L160.788,166.2s-4.046,13.97-1.393,45.857Z" transform="translate(-50.504 -52.959)" fill="#39393b"/>
        <path id="Path_157137" data-name="Path 157137" d="M187.684,218.37l3.852-31.8a.492.492,0,1,0-.977-.119l-3.867,31.923Z" transform="translate(-59.49 -59.273)" fill="#585859"/>
        <path id="Path_157138" data-name="Path 157138" d="M197.463,169.107a.434.434,0,0,0,.478.379h0a.433.433,0,0,0,.378-.482c-.193-1.614-.377-3.268-.553-4.923q-.047-.436-.091-.873c-.562-5.408-1.017-10.734-1.318-14.5-.023-.3-.048-.6-.069-.884-.065-.826-.121-1.559-.168-2.18-.291,0-.582,0-.87,0,.047.62.1,1.36.17,2.195.021.284.046.579.069.884.3,3.73.749,9.009,1.305,14.385.03.3.061.594.091.891.182,1.714.373,3.431.573,5.1" transform="translate(-62.218 -46.411)" fill="#585859"/>
        <path id="Path_157139" data-name="Path 157139" d="M195.175,163.623a11.018,11.018,0,0,0,1.59.335,8.381,8.381,0,0,0,.881.076,5.966,5.966,0,0,0,.826-.03,2.906,2.906,0,0,0,1.393-.479,1.84,1.84,0,0,0,.745-1.519c.033-1.7-.459-8.631-.83-13.527-.021-.3-.044-.595-.065-.88-.06-.783-.116-1.495-.163-2.1-.288.013-.578.027-.867.037.047.608.1,1.329.163,2.122q.032.425.067.88c.367,4.885.861,11.8.827,13.453a.968.968,0,0,1-.389.835,2.96,2.96,0,0,1-1.8.335c-.3-.016-.6-.05-.881-.093a10.082,10.082,0,0,1-1.251-.275.433.433,0,0,0-.248.83" transform="translate(-62.094 -46.363)" fill="#585859"/>
        <path id="Path_157140" data-name="Path 157140" d="M156.92,49.43l33.139-.854c-1.027-1.439-.933-15.172-1.392-18.008-.474-2.926-.108-8.73.33-13.47A15.057,15.057,0,0,0,173.319.642c-.138.006-.276.014-.415.023-13.931.887-14.956,12.823-13.659,20.05,1.182,6.583,2.012,24.519-2.325,28.715" transform="translate(-50.003 -0.199)" fill="#39393b"/>
        <path id="Path_157141" data-name="Path 157141" d="M167.476,135.426l2.672,11.2c6.676-.532,14.574-1.5,20.522-4.573,0,0,7.925,2.665,11.943,1.421l-2.941-8.053Z" transform="translate(-53.366 -43.154)" fill="#fff"/>
        <path id="Path_157142" data-name="Path 157142" d="M200.091,117.551c-7.7-.051-12.319-1.049-16.519-4.487-7.874,8.182-27.327,8.5-27.327,8.5,1.948-6.284,2.582-17.393,2.582-17.393-.155-1.155-.236-2.353-.358-3.57a23.966,23.966,0,0,0-.6-3.66c-1.919-5.541-4.166-9.514-6.163-15.239-.129-.372-.261-.739-.394-1.112-.087-.242-.174-.482-.264-.724-.657-1.791-1.361-3.576-2.1-5.3-3.221-7.5-3.74-15.962,4.006-18.544.563-.187,1.117-.367,1.658-.539,3.664-1.158,6.717-1.919,7.568-2.124l.233-.057,16.262,1.347,1.547.129c2.273.254,4.681.189,6.2.525,1.339.3,2.149.222,3.512.625,3.205.948,3.115,5.257,4.111,10.613.016.091.033.183.05.279.007.029.014.062.019.09.175.912.384,1.812.618,2.7.263,1,.557,1.979.864,2.939,1.875,5.881,4.135,8.582,3.75,12.283-.352,3.351-3.77,7.923-4.677,8.9-.21.225-.334.345-.334.345,0,.016,0,.033.007.051.013.132.029.274.048.422.069.566.168,1.236.293,2,.281,2.83.679,5.394,1.133,7.679q.369,1.847.777,3.449a45.777,45.777,0,0,0,3.5,9.881" transform="translate(-46.756 -16.985)" fill="#21b573"/>
        <path id="Path_157143" data-name="Path 157143" d="M217.287,131.484c-2.2,1.167-3.978,1.943-3.978,1.943l-1.642-3.09a32.487,32.487,0,0,0,4.844-2.3,10.58,10.58,0,0,1,.777,3.448" transform="translate(-67.448 -40.799)" fill="#217c58"/>
        <path id="Path_157144" data-name="Path 157144" d="M167.589,128.841s7.4,3.14,12.875,3.671l-.836,3.4s-8.971-1.481-12.567-4.038Z" transform="translate(-53.234 -41.055)" fill="#217c58"/>
        <path id="Path_157145" data-name="Path 157145" d="M217.174,98.3a.418.418,0,0,0,.3-.13c.2-.211,4.9-5.224,3.261-9.8-.454-1.271-.984-2.554-1.545-3.914-1.7-4.126-3.63-8.8-4.124-14.868a.419.419,0,1,0-.835.068c.506,6.2,2.46,10.937,4.185,15.119.557,1.35,1.083,2.625,1.53,3.877,1.464,4.089-3.034,8.892-3.08,8.94a.419.419,0,0,0,.3.707" transform="translate(-68.266 -22.053)" fill="#217c58"/>
        <path id="Path_157146" data-name="Path 157146" d="M197.642,85.253a.913.913,0,1,1-.913-.913.913.913,0,0,1,.913.913" transform="translate(-62.397 -26.875)" fill="#217c58"/>
        <path id="Path_157147" data-name="Path 157147" d="M199.634,97.12a.913.913,0,1,1-.913-.913.913.913,0,0,1,.913.913" transform="translate(-63.032 -30.656)" fill="#217c58"/>
        <path id="Path_157148" data-name="Path 157148" d="M200.833,109.182a.913.913,0,1,1-.913-.913.913.913,0,0,1,.913.913" transform="translate(-63.414 -34.5)" fill="#217c58"/>
        <path id="Path_157149" data-name="Path 157149" d="M201.348,121.589a.913.913,0,1,1-.913-.913.913.913,0,0,1,.913.913" transform="translate(-63.578 -38.454)" fill="#217c58"/>
        <path id="Path_157150" data-name="Path 157150" d="M201.288,134.494a.913.913,0,1,1-.913-.913.914.914,0,0,1,.913.913" transform="translate(-63.559 -42.566)" fill="#217c58"/>
        <path id="Path_157151" data-name="Path 157151" d="M190.873,55.218a21.188,21.188,0,0,1,6.007.338l-.268,9.277-2.111.454,1.778,1.75-2.132,6.225s-2.914-10.358-3.275-18.043" transform="translate(-60.822 -17.571)" fill="#217c58"/>
        <path id="Path_157152" data-name="Path 157152" d="M166.724,53.3l-6.463,1.767,7.588,10.085,5.689-.453-1.995,4.35,12.85,3.623S169.51,58.544,168.32,53.435Z" transform="translate(-51.067 -16.985)" fill="#217c58"/>
        <path id="Path_157153" data-name="Path 157153" d="M171.4,54.411s3.711,7.9,16.544,18.618a101.667,101.667,0,0,0-3.27-17.463s-7.551,2.63-13.274-1.155" transform="translate(-54.616 -17.338)" fill="#fff"/>
        <path id="Path_157154" data-name="Path 157154" d="M192.057,88.2c-4.226,0-12.85-6.053-13.215-6.311a.347.347,0,1,1,.4-.567c.088.061,8.808,6.183,12.815,6.183,3.834,0,4.684-4.188,4.692-4.23a.347.347,0,1,1,.681.131c-.009.048-.972,4.793-5.373,4.793" transform="translate(-56.941 -25.893)" fill="#217c58"/>
        <path id="Path_157155" data-name="Path 157155" d="M184.667,54.985l.174,2.191c.324,4.082-2.579,5.24-6.806,3.077-3.339-1.709-6.173-4.262-6.637-5.842Z" transform="translate(-54.616 -17.338)" fill="#ea9b7a"/>
        <path id="Path_157156" data-name="Path 157156" d="M181.965,115.042a.375.375,0,0,0,.326.187.368.368,0,0,0,.185-.048,21.652,21.652,0,0,1,13.622-2.02,23.452,23.452,0,0,0,9.505.1c-.019-.148-.036-.289-.049-.422,0-.019,0-.036-.005-.052,0,0,.124-.121.332-.343a22.376,22.376,0,0,1-9.639-.025,22.019,22.019,0,0,0-14.138,2.106.375.375,0,0,0-.139.512" transform="translate(-57.967 -35.703)" fill="#217c58"/>
        <path id="Path_157157" data-name="Path 157157" d="M200.028,15.262s1.876,7.365.675,8.649-2.977-1.473-2.977-1.473.875-6.88,2.3-7.176" transform="translate(-63.005 -4.863)" fill="#39393b"/>
        <path id="Path_157158" data-name="Path 157158" d="M198.069,29.1s1.939-2.291,3.035,0,.253,6.929-2.7,6.17Z" transform="translate(-63.115 -8.948)" fill="#d46a43"/>
        <path id="Path_157159" data-name="Path 157159" d="M194.446,37.53a3.15,3.15,0,1,0,1.517-.29c-.076-.195-.14-.394-.224-.585h.037a3.745,3.745,0,1,1-1.851.493Z" transform="translate(-61.193 -11.68)" fill="#fff"/>
        <path id="Path_157160" data-name="Path 157160" d="M184.672,45.23v6.319S181.341,57,171.4,50.394c1.884-2.1,1.94-6.166,1.179-8.59a13.863,13.863,0,0,0,1.933,1.028q.37.166.792.344c2.485,1.043,6.223,2.3,9.369,2.054" transform="translate(-54.616 -13.321)" fill="#ea9b7a"/>
        <path id="Path_157161" data-name="Path 157161" d="M186.128,45.711v2.958c-2.7-.6-7.442-2.076-10.162-5.355q.37.166.792.344c2.485,1.043,6.223,2.3,9.369,2.054" transform="translate(-56.072 -13.802)" fill="#39393b"/>
        <path id="Path_157162" data-name="Path 157162" d="M190.194,32.859c-5.309,5.492-17.092-1.063-17.47-1.275l-.009-.006q-.165-.737-.3-1.461a38.465,38.465,0,0,1-.382-11.483,8.694,8.694,0,0,1,5.64-8.645c3.706-1.35,7.028.279,9.025.895,3.014.929,4.91,4.825,4.927,10.374.021,6.811-.118,10.239-1.436,11.6" transform="translate(-54.737 -3.017)" fill="#ea9b7a"/>
        <path id="Path_157163" data-name="Path 157163" d="M191.086,13.5q-1.84.254-3.78.4l-.711-3.393-.229,3.461c-2.383.161-4.86.223-7.4.227l-.316-3.574-.7,3.572c-1.878-.009-3.787-.046-5.71-.1-1.537-7.119,6.178-10.221,12.67-8.741s6.17,8.142,6.17,8.142" transform="translate(-54.823 -1.592)" fill="#39393b"/>
        <path id="Path_157164" data-name="Path 157164" d="M176.1,15.215s-2.392,3.189-1.082,6.15.4,5.864-.228,8.028c0,0-1.356-4.767-4.55-5.658s-1.543-9.631,5.86-8.52" transform="translate(-53.755 -4.817)" fill="#39393b"/>
        <path id="Path_157165" data-name="Path 157165" d="M191.549,38.991a2.986,2.986,0,0,0,1.3-.093.227.227,0,1,0-.146-.429,2.42,2.42,0,0,1-2.025-.307.227.227,0,1,0-.268.366,2.552,2.552,0,0,0,1.136.464" transform="translate(-60.646 -12.146)" fill="#d46a43"/>
        <path id="Path_157166" data-name="Path 157166" d="M194.052,33.936s-3.692,1.29-6.466-.54a4.472,4.472,0,0,0,3.365,2.732,3.035,3.035,0,0,0,3.1-2.192" transform="translate(-59.774 -10.642)" fill="#fff"/>
        <path id="Path_157167" data-name="Path 157167" d="M186.806,19.363s1.1.109.715,1.119-2.6-.1-4.179,1.757c0,0-.672-2.422,3.464-2.876" transform="translate(-58.409 -6.17)" fill="#39393b"/>
        <path id="Path_157168" data-name="Path 157168" d="M195.4,19.363s-1.1.109-.715,1.119,2.6-.1,4.179,1.757c0,0,.672-2.422-3.464-2.876" transform="translate(-62.01 -6.17)" fill="#39393b"/>
        <g id="Group_70340" data-name="Group 70340" transform="translate(123.068 19.748)" opacity="0.8">
          <g id="Group_70339" data-name="Group 70339">
            <g id="Group_70338" data-name="Group 70338" clip-path="url(#clip-path-3)">
              <path id="Path_157169" data-name="Path 157169" d="M185.354,29.913c0,.514-1.059.931-2.364.931s-2.364-.417-2.364-.931,1.058-.931,2.364-.931,2.364.417,2.364.931" transform="translate(-180.624 -28.983)" fill="#d46a43"/>
            </g>
          </g>
        </g>
        <path id="Path_157170" data-name="Path 157170" d="M200.331,30.816a5.507,5.507,0,0,1-.57.028c-1.3,0-2.364-.417-2.364-.931s1.059-.931,2.364-.931c.176,0,.348.007.514.023Z" transform="translate(-62.901 -9.235)" fill="#d46a43"/>
        <path id="Path_157171" data-name="Path 157171" d="M187.292,26.172c0,.706-.32,1.278-.715,1.278s-.715-.572-.715-1.278.32-1.278.715-1.278.715.572.715,1.278" transform="translate(-59.225 -7.932)" fill="#39393b"/>
        <path id="Path_157172" data-name="Path 157172" d="M197.542,26.172c0,.706-.32,1.278-.715,1.278s-.715-.572-.715-1.278.32-1.278.715-1.278.715.572.715,1.278" transform="translate(-62.491 -7.932)" fill="#39393b"/>
        <path id="Path_157173" data-name="Path 157173" d="M193.491,28.986a2.567,2.567,0,0,0,.587-.061.291.291,0,0,0,.2-.377L193.2,25.469a.29.29,0,0,0-.548.191l.957,2.741a2.284,2.284,0,0,1-1.19-.256.291.291,0,1,0-.275.512,2.834,2.834,0,0,0,1.342.329" transform="translate(-61.179 -8.054)" fill="#39393b"/>
        <path id="Path_157174" data-name="Path 157174" d="M175.321,37.724c-.034.079-.962,2.231-2.3,2.864h0l-.007-.007q-.164-.737-.3-1.461a5.4,5.4,0,0,0,2.6-1.4" transform="translate(-55.037 -12.021)" fill="#39393b"/>
        <path id="Path_157175" data-name="Path 157175" d="M172.133,29.615s-2.823-3.792-4.89-.812c-1.7,2.456,1.5,8.992,4.955,6.6Z" transform="translate(-53.142 -8.814)" fill="#ea9b7a"/>
        <path id="Path_157176" data-name="Path 157176" d="M169.221,38.689a3.173,3.173,0,1,0,2.7.033,3.133,3.133,0,0,0-1.184-.308c-.076-.195-.141-.394-.224-.585h.037a3.7,3.7,0,0,1,1.461.3,3.739,3.739,0,1,1-5.2,3.442,3.8,3.8,0,0,1,1.91-3.271,4.047,4.047,0,0,0,.5.393" transform="translate(-53.155 -12.054)" fill="#fff"/>
        <path id="Path_157177" data-name="Path 157177" d="M172.535,35.226l.032,0a.29.29,0,0,0,.257-.32,5.432,5.432,0,0,0-3.181-4.387.29.29,0,1,0-.215.539,4.852,4.852,0,0,1,2.819,3.911.29.29,0,0,0,.288.259" transform="translate(-53.93 -9.718)" fill="#39393b"/>
        <path id="Path_157178" data-name="Path 157178" d="M169.96,34.271a.289.289,0,0,0,.183-.065c.253-.205,1.019-.708,1.519-.58a.29.29,0,1,0,.144-.563,2.794,2.794,0,0,0-2.029.692.29.29,0,0,0,.183.516" transform="translate(-54.065 -10.524)" fill="#39393b"/>
        <path id="Path_157179" data-name="Path 157179" d="M139.772,118.6s.927,2-.143,6.373a24.966,24.966,0,0,1-2.864,7.113s-4.484-6.807,3.007-13.487" transform="translate(-43.156 -37.794)" fill="#217c58"/>
        <path id="Path_157180" data-name="Path 157180" d="M112.76,95.876c.011.22.027.44.046.657s.059.431.095.645c.018.1.035.214.059.317l.072.309a10.884,10.884,0,0,0,.816,2.254c.166.325.344.66.527.946.093.144.186.3.282.435l.288.4a14.568,14.568,0,0,0,2.4,2.522,22.52,22.52,0,0,0,2.379,1.724c.39.251.778.479,1.163.7s.766.432,1.147.635c.764.4,1.513.767,2.263,1.109,1.5.685,2.986,1.264,4.469,1.792s2.961.993,4.437,1.421,2.952.831,4.429,1.193,2.96.692,4.446,1a17.5,17.5,0,0,0,2.056.243c1.187.092,2.474.155,3.317.3.2-1.225-.833-2.215-.628-3.44.238-1.432.477-2.868.738-4.3l-.594-1.28c-.9-.215-1.8-.447-2.7-.692l-.081-.022q-1.969-.536-3.91-1.17-1.977-.638-3.908-1.359c-1.28-.486-2.537-1-3.756-1.553s-2.4-1.132-3.5-1.75c-.547-.309-1.083-.623-1.575-.957-.245-.165-.487-.33-.715-.5s-.445-.341-.647-.513a8.233,8.233,0,0,1-.828-.786c-.069-.074-.132-.146-.189-.215l-.01-.012.211-.289.379-.519c.2-.27.389-.541.6-.817.42-.549.831-1.1,1.258-1.647l1.3-1.651c.886-1.1,1.763-2.208,2.668-3.307l.675-.827.685-.824.958-1.158.407-.493.5-.6.877-1.054,1.387-1.646q1.383-1.65,2.779-3.293L145.4,71.25l.035-.042a6.57,6.57,0,0,0-9.965-8.566l-1.46,1.677-1.433,1.674q-.715.838-1.419,1.684c-.471.561-.945,1.125-1.412,1.692q-1.4,1.7-2.794,3.412l-1.38,1.722-.183.232-1.191,1.5c-.459.576-.913,1.162-1.365,1.746l-.678.878-.3.4-.371.486c-.9,1.175-1.794,2.371-2.68,3.576l-1.32,1.834c-.439.617-.873,1.252-1.309,1.878-.218.307-.435.636-.651.964l-.648.978-.163.246-.041.061-.02.031-.031.05-.135.219c-.089.146-.176.3-.264.442-.044.072-.087.155-.127.236l-.125.243c-.082.164-.165.322-.243.493s-.149.356-.221.535l-.1.269c-.033.092-.065.19-.1.286-.062.191-.122.386-.179.58s-.1.408-.144.613-.088.411-.115.63-.057.429-.078.645-.026.439-.032.659l0,.328c0,.11.007.22.012.33" transform="translate(-35.927 -19.244)" fill="#ea9b7a"/>
        <path id="Path_157181" data-name="Path 157181" d="M152.916,123.969a2.918,2.918,0,0,0-2.374-.767s-3.09,5.242-1.487,9.737a3.031,3.031,0,0,0,2.222.521s-1.5-5.405,1.639-9.491" transform="translate(-47.349 -39.244)"/>
        <path id="Path_157182" data-name="Path 157182" d="M146.126,129.521a3.124,3.124,0,1,0,2.945-3.294,3.124,3.124,0,0,0-2.945,3.294" transform="translate(-46.562 -40.221)"/>
        <path id="Path_157183" data-name="Path 157183" d="M149.744,132.047a2.336,2.336,0,1,0-2.463-2.2,2.339,2.339,0,0,0,2.463,2.2" transform="translate(-46.93 -40.589)" fill="#fff"/>
        <path id="Path_157184" data-name="Path 157184" d="M158.579,134.7c1.187.091,2.474.155,3.317.3.2-1.225-.833-2.215-.628-3.44.238-1.432.477-2.867.738-4.3l-.594-1.28c-.9-.215-1.8-.446-2.7-.692l-.082-.022c-.366,2.036-.942,6.3-.048,9.434" transform="translate(-50.38 -39.915)" fill="#d46a43"/>
        <path id="Path_157185" data-name="Path 157185" d="M146,65.126a6.212,6.212,0,0,1-1.254,5.9c-2.633,3.04-7.66,8.911-10.447,12.6-3.894,5.152-8.819,11.616-8.819,11.616a72.442,72.442,0,0,0,6.027,4.759,12.267,12.267,0,0,0-3.007,13.487s-10.919-6-16.447-11.767c-4.036-4.211-2.917-9.467.771-14.492,1.861-2.535,16.214-18.892,21.311-24.614a7.045,7.045,0,0,1,7.523-2.037A6.663,6.663,0,0,1,146,65.126" transform="translate(-34.893 -19.183)" fill="#21b573"/>
        <path id="Path_157186" data-name="Path 157186" d="M159.158,124.026s.429-2.5,1.075-4.9a4.246,4.246,0,0,1,1.629-2.623,21.493,21.493,0,0,1,.616,4.667,1.986,1.986,0,0,1,1.708-.34c1.1.223,4.908,1.03,4.957,1.908.112,2.009-4.656,1.055-4.656,1.055s5.1.961,4.973,2.369c-.1,1.139-4.725,1.355-4.725,1.355s4.453.041,3.919,1.639c-.568,1.7-4.7.629-4.7.629s2.975,1.428,2.688,2.028c-.414.863-2.177,1.106-5.028.412-2.918-.712-2.459-8.2-2.459-8.2" transform="translate(-50.707 -37.124)" fill="#ea9b7a"/>
        <path id="Path_157187" data-name="Path 157187" d="M151.237,85.15a.394.394,0,0,1-.361-.643l6.594-7.828a.394.394,0,0,1,.6.508l-6.594,7.828a.4.4,0,0,1-.242.136" transform="translate(-48.047 -24.389)" fill="#217c58"/>
        <path id="Path_157188" data-name="Path 157188" d="M160.593,80.295l-2.492.382a.394.394,0,0,1-.12-.779l2.493-.382a.394.394,0,1,1,.119.779" transform="translate(-50.234 -25.336)" fill="#217c58"/>
        <path id="Path_157189" data-name="Path 157189" d="M122.561,112.233a.255.255,0,0,0,.359.052c1.88-1.4,5.226-1.546,6.883-1.526-.068-.073-.13-.145-.189-.215l-.01-.012.211-.29c-.15,0-.313,0-.489,0a14.413,14.413,0,0,0-3.953-2.006.256.256,0,1,0-.166.485,17.754,17.754,0,0,1,3.322,1.541c-1.823.079-4.317.425-5.914,1.612a.256.256,0,0,0-.053.36" transform="translate(-39.038 -34.485)" fill="#217c58"/>
      </g>
    </g>
  </g>
</svg>
