<svg xmlns="http://www.w3.org/2000/svg" xmlns:xlink="http://www.w3.org/1999/xlink" width="84.995" height="63.211" viewBox="0 0 84.995 63.211">
  <defs>
    <clipPath id="clip-path">
      <rect id="Rectangle_456181" data-name="Rectangle 456181" width="67.219" height="20.711" fill="none"/>
    </clipPath>
  </defs>
  <g id="img12" transform="translate(-185.005 -2201.03)">
    <g id="Group_1179745" data-name="Group 1179745" transform="translate(-0.706 114.03)">
      <g id="Group_1179715" data-name="Group 1179715" transform="translate(-519.923 1677)">
        <path id="Subtraction_110" data-name="Subtraction 110" d="M16060.959,19892.723h0l-50.412,0-1.583-3.795h-27l-1.583,3.795h-4.414v-63.207h51.369l2,4.793h27l2-4.793h2.629v63.209Z" transform="translate(-15270.33 -19419.512)" fill="#61e9c3"/>
        <path id="Path_998455" data-name="Path 998455" d="M-3,0H20l3,7H0Z" transform="translate(766.629 410)" fill="#19538d"/>
      </g>
    </g>
    <g id="Group_1179748" data-name="Group 1179748" transform="translate(193.893 2222.28)">
      <path id="Path_998821" data-name="Path 998821" d="M0,9v1.552L13.329,17.42V15.437L2.1,9.806V9.748L13.329,4.12V2.134Z" transform="translate(0 2.978)"/>
      <g id="Group_1179747" data-name="Group 1179747" transform="translate(0 0)">
        <g id="Group_1179746" data-name="Group 1179746" clip-path="url(#clip-path)">
          <path id="Path_998822" data-name="Path 998822" d="M19.829,0V16.8c0,1.234.029,2.642.115,3.59H17.676l-.115-2.412H17.5a5.147,5.147,0,0,1-4.74,2.728c-3.36,0-5.947-2.843-5.947-7.066-.029-4.628,2.846-7.471,6.235-7.471A4.65,4.65,0,0,1,17.245,8.3H17.3V0ZM17.3,12.151a4.465,4.465,0,0,0-.115-1.063,3.717,3.717,0,0,0-3.648-2.929c-2.616,0-4.168,2.3-4.168,5.372,0,2.814,1.38,5.14,4.11,5.14a3.8,3.8,0,0,0,3.705-3.016,4.393,4.393,0,0,0,.115-1.092Z" transform="translate(9.51 0)"/>
          <path id="Path_998823" data-name="Path 998823" d="M17,2a1.565,1.565,0,0,1-3.131,0A1.543,1.543,0,0,1,15.453.419,1.5,1.5,0,0,1,17,2M14.188,5.906h2.529v13.9H14.188Z" transform="translate(19.354 0.585)"/>
          <path id="Path_998824" data-name="Path 998824" d="M18.791,2.71l2.731,7.813a35.735,35.735,0,0,1,1.119,3.564h.086c.316-1.15.719-2.3,1.178-3.564L26.6,2.71h2.644l-5.459,13.9H21.378L16.092,2.71Z" transform="translate(22.452 3.781)"/>
          <path id="Path_998825" data-name="Path 998825" d="M35.829,10.58,22.5,17.416V15.435L33.819,9.8V9.747L22.5,4.118V2.135L35.829,8.973Z" transform="translate(31.392 2.978)"/>
        </g>
      </g>
    </g>
  </g>
</svg>
