<svg xmlns="http://www.w3.org/2000/svg" width="51" height="51" viewBox="0 0 51 51">
  <g id="img24" transform="translate(-926.711 -3644)">
    <g id="Group_1179653" data-name="Group 1179653" transform="translate(-309)">
      <path id="Path_998619" data-name="Path 998619" d="M10,0H41A10,10,0,0,1,51,10V41A10,10,0,0,1,41,51H10A10,10,0,0,1,0,41V10A10,10,0,0,1,10,0Z" transform="translate(1235.711 3644)" fill="#fff"/>
    </g>
    <g id="Grupo_70168" data-name="Grupo 70168" transform="translate(932.711 3654)">
      <g id="Grupo_70141" data-name="Grupo 70141" transform="translate(0 0)">
        <path id="Trazado_156553" data-name="Trazado 156553" d="M1310.437,28.637h-1.713a3.891,3.891,0,0,0,.931-2.527V7.761a3.905,3.905,0,0,0-3.9-3.9H1276.88a3.905,3.905,0,0,0-3.9,3.9V26.11a3.9,3.9,0,0,0,.936,2.527H1272.2a.617.617,0,0,0-.617.617,4.791,4.791,0,0,0,4.785,4.785h29.9a4.79,4.79,0,0,0,4.785-4.785.617.617,0,0,0-.617-.617Zm-36.223-2.527V7.761a2.67,2.67,0,0,1,2.667-2.667h28.874a2.67,2.67,0,0,1,2.667,2.667V26.11a2.669,2.669,0,0,1-1.819,2.527h-30.568a2.679,2.679,0,0,1-1.821-2.527Zm23.86,3.761c-.2.454-.506.755-.788.755H1285.35c-.283,0-.584-.3-.788-.755Zm8.2,2.935h-29.9a3.558,3.558,0,0,1-3.5-2.935h10.381a2.4,2.4,0,0,0,2.1,1.988h11.936a2.4,2.4,0,0,0,2.1-1.988h10.382a3.557,3.557,0,0,1-3.5,2.935Zm-.515-25.891h-28.874a.858.858,0,0,0-.847.847V26.11a.858.858,0,0,0,.847.847h28.874a.858.858,0,0,0,.847-.847V7.762a.858.858,0,0,0-.847-.847m-.386,18.808h-28.1V8.148h28.1Z" transform="translate(-1271.581 -3.861)" fill="#12263f"/>
        <path id="Trazado_156554" data-name="Trazado 156554" d="M1570.613,144.847a.489.489,0,0,0,.333.919,2.934,2.934,0,0,0,0-5.517.489.489,0,0,0-.333.919,1.956,1.956,0,0,1,0,3.678" transform="translate(-1547.26 -129.71)" fill="#12263f"/>
        <path id="Trazado_156555" data-name="Trazado 156555" d="M1594.55,116.745a.489.489,0,0,0-.531.823,4.4,4.4,0,0,1,0,7.4.489.489,0,1,0,.53.823,5.057,5.057,0,0,0,2.137-2.567,6.172,6.172,0,0,0,.043-3.694,5.357,5.357,0,0,0-2.181-2.783" transform="translate(-1568.953 -107.971)" fill="#12263f"/>
        <path id="Trazado_156556" data-name="Trazado 156556" d="M1421.712,92.47h3.035L1430,95.816a.489.489,0,0,0,.751-.412V81.716A.489.489,0,0,0,1430,81.3l-5.255,3.346h-3.035A1.713,1.713,0,0,0,1420,86.36v4.4a1.713,1.713,0,0,0,1.711,1.711m3.664-7.064,4.4-2.8V94.516l-4.4-2.8Zm-4.4.954a.734.734,0,0,1,.733-.733h2.688v5.866h-2.688a.734.734,0,0,1-.733-.733Z" transform="translate(-1408.555 -75.263)" fill="#12263f"/>
      </g>
    </g>
  </g>
</svg>
