<svg xmlns="http://www.w3.org/2000/svg" width="51" height="51" viewBox="0 0 51 51">
  <g id="img22" transform="translate(-1235.711 -3644)">
    <path id="Path_998619" data-name="Path 998619" d="M10,0H41A10,10,0,0,1,51,10V41A10,10,0,0,1,41,51H10A10,10,0,0,1,0,41V10A10,10,0,0,1,10,0Z" transform="translate(1235.711 3644)" fill="#fff"/>
    <g id="Grupo_70140" data-name="Grupo 70140" transform="translate(1241.711 3654)">
      <path id="Trazado_156552" data-name="Trazado 156552" d="M1902.718,28.637h-1.712a3.891,3.891,0,0,0,.931-2.527V7.761a3.906,3.906,0,0,0-3.9-3.9h-28.874a3.905,3.905,0,0,0-3.9,3.9V26.11a3.9,3.9,0,0,0,.936,2.527h-1.719a.617.617,0,0,0-.617.617,4.791,4.791,0,0,0,4.785,4.785h29.9a4.791,4.791,0,0,0,4.785-4.785.617.617,0,0,0-.618-.617ZM1866.5,26.11V7.761a2.669,2.669,0,0,1,2.667-2.667h28.874a2.67,2.67,0,0,1,2.667,2.667V26.11a2.669,2.669,0,0,1-1.819,2.527h-30.568a2.679,2.679,0,0,1-1.821-2.527Zm23.86,3.761c-.2.454-.506.755-.788.755h-11.935c-.283,0-.584-.3-.788-.755Zm8.2,2.935h-29.9a3.558,3.558,0,0,1-3.5-2.935h10.381a2.4,2.4,0,0,0,2.1,1.988h11.935a2.4,2.4,0,0,0,2.1-1.988h10.381a3.557,3.557,0,0,1-3.5,2.935Zm-.514-25.891h-28.874a.858.858,0,0,0-.847.847V26.11a.858.858,0,0,0,.846.847h28.874a.858.858,0,0,0,.847-.847V7.762a.858.858,0,0,0-.847-.847m-.386,18.808h-28.1V8.148h28.1ZM1883.6,24.05a7.115,7.115,0,1,0-7.115-7.115h0a7.123,7.123,0,0,0,7.115,7.115m0-13a5.882,5.882,0,1,1-5.882,5.882,5.882,5.882,0,0,1,5.882-5.882m-1.933,9.6a.617.617,0,0,0,.617,0l5.513-3.182a.617.617,0,0,0,0-1.068l-5.513-3.182a.617.617,0,0,0-.925.534v6.364a.617.617,0,0,0,.309.534Zm.925-5.834,3.664,2.115-3.664,2.114Z" transform="translate(-1863.864 -3.861)" fill="#12263f"/>
    </g>
  </g>
</svg>
