<svg xmlns="http://www.w3.org/2000/svg" width="51" height="51" viewBox="0 0 51 51">
  <g id="img23" transform="translate(-619.711 -3644)">
    <g id="Group_1179654" data-name="Group 1179654" transform="translate(-616)">
      <path id="Path_998619" data-name="Path 998619" d="M10,0H41A10,10,0,0,1,51,10V41A10,10,0,0,1,41,51H10A10,10,0,0,1,0,41V10A10,10,0,0,1,10,0Z" transform="translate(1235.711 3644)" fill="#fff"/>
    </g>
    <g id="Grupo_70149" data-name="Grupo 70149" transform="translate(626.559 3654)">
      <g id="Grupo_70143" data-name="Grupo 70143" transform="translate(0 0)">
        <path id="Trazado_156551" data-name="Trazado 156551" d="M1.849,0A1.857,1.857,0,0,0,0,1.848v26.9a1.862,1.862,0,0,0,1.849,1.855H35.157a1.861,1.861,0,0,0,1.848-1.854V1.848A1.856,1.856,0,0,0,35.157,0Zm0,1.233H35.157a.6.6,0,0,1,.614.614V7.4H1.235V1.848a.6.6,0,0,1,.614-.615M4.316,2.467A1.849,1.849,0,1,0,6.171,4.316,1.849,1.849,0,0,0,4.316,2.467m4.935,0A1.849,1.849,0,1,0,11.1,4.316,1.849,1.849,0,0,0,9.251,2.467m4.935,0a1.849,1.849,0,1,0,1.849,1.849,1.849,1.849,0,0,0-1.849-1.849m7.37,0a.621.621,0,0,0-.583.614V5.549a.617.617,0,0,0,.614.614H33.924a.617.617,0,0,0,.614-.614V3.081a.617.617,0,0,0-.614-.614ZM4.316,3.7a.617.617,0,1,1-.614.614A.608.608,0,0,1,4.316,3.7m4.935,0a.617.617,0,1,1-.617.617A.617.617,0,0,1,9.251,3.7m4.935,0a.617.617,0,1,1-.617.617.617.617,0,0,1,.617-.617m8.018,0H33.3V4.935H22.2ZM1.235,8.63H35.772V28.753a.6.6,0,0,1-.614.621H1.849a.6.6,0,0,1-.614-.621ZM4.32,10.02a.617.617,0,0,0-.619.614V26.677a.617.617,0,0,0,.617.612H32.687a.617.617,0,0,0,.619-.614V10.637a.617.617,0,0,0-.619-.614Zm.614,1.157h27.14v14.8H4.933Zm11.077,3.778a.618.618,0,0,0-.594.618v6.171a.617.617,0,0,0,.943.523L21.3,19.182a.617.617,0,0,0,0-1.043l-4.935-3.086a.617.617,0,0,0-.351-.092Zm.641,1.726,3.159,1.977L16.653,20.63Z" transform="translate(0 0)" fill="#12263f"/>
      </g>
    </g>
  </g>
</svg>
