<svg id="img5" xmlns="http://www.w3.org/2000/svg" width="429.202" height="346.021" viewBox="0 0 429.202 346.021">
  <path id="Rectangle_389225" data-name="Rectangle 389225" d="M9,0H420.2a9,9,0,0,1,9,9V43a0,0,0,0,1,0,0H0a0,0,0,0,1,0,0V9A9,9,0,0,1,9,0Z" transform="translate(0)" fill="#3a1d71"/>
  <path id="Rectangle_389226" data-name="Rectangle 389226" d="M0,0H429.2a0,0,0,0,1,0,0V294.021a9,9,0,0,1-9,9H9a9,9,0,0,1-9-9V0A0,0,0,0,1,0,0Z" transform="translate(0 43)" fill="#110628"/>
  <circle id="Ellipse_11380" data-name="Ellipse 11380" cx="6" cy="6" r="6" transform="translate(25 15)" fill="#9ecfff"/>
  <ellipse id="Ellipse_11381" data-name="Ellipse 11381" cx="6.5" cy="6" rx="6.5" ry="6" transform="translate(52 15)" fill="#cf9eff"/>
  <ellipse id="Ellipse_11382" data-name="Ellipse 11382" cx="6.5" cy="6" rx="6.5" ry="6" transform="translate(74.13 15)" fill="#61e9c3"/>
</svg>
