<svg xmlns="http://www.w3.org/2000/svg" width="421.087" height="346.021" viewBox="0 0 421.087 346.021">
  <g id="img6" transform="translate(6189.544 11886.53)">
    <g id="Group_1179600" data-name="Group 1179600" transform="translate(477.456 -1492.53)">
      <g id="Group_1179131" data-name="Group 1179131" transform="translate(-6667 -10394)">
        <path id="Rectangle_389225" data-name="Rectangle 389225" d="M9,0H412.087a9,9,0,0,1,9,9V43a0,0,0,0,1,0,0H0a0,0,0,0,1,0,0V9A9,9,0,0,1,9,0Z" transform="translate(0)" fill="#3a1d71"/>
        <path id="Rectangle_389226" data-name="Rectangle 389226" d="M0,0H421.087a0,0,0,0,1,0,0V294.021a9,9,0,0,1-9,9H9a9,9,0,0,1-9-9V0A0,0,0,0,1,0,0Z" transform="translate(0 43)" fill="#110628"/>
        <circle id="Ellipse_11380" data-name="Ellipse 11380" cx="6" cy="6" r="6" transform="translate(25 15)" fill="#9ecfff"/>
        <ellipse id="Ellipse_11381" data-name="Ellipse 11381" cx="6.5" cy="6" rx="6.5" ry="6" transform="translate(52 15)" fill="#cf9eff"/>
        <ellipse id="Ellipse_11382" data-name="Ellipse 11382" cx="6.5" cy="6" rx="6.5" ry="6" transform="translate(72.685 15)" fill="#61e9c3"/>
      </g>
    </g>
    <text id="_DOCTYPE_html_html_head_head_body_body_html_" data-name="&lt;!DOCTYPE html&gt;
&lt;html&gt;
     &lt;head&gt;
       
     &lt;/head&gt;
     &lt;body&gt;

     &lt;/body&gt;

&lt;/html&gt;
" transform="translate(-6148 -11816.53)" fill="#fff" font-size="16" font-family="Roboto-Regular, Roboto" letter-spacing="0.003em"><tspan x="0" y="17">&lt;!DOCTYPE html&gt;</tspan><tspan x="0" y="41">&lt;html&gt;</tspan><tspan x="0" y="65" xml:space="preserve">     &lt;head&gt;</tspan><tspan x="0" y="89" xml:space="preserve">       </tspan><tspan x="0" y="113" xml:space="preserve">     &lt;/head&gt;</tspan><tspan x="0" y="137" xml:space="preserve">     &lt;</tspan><tspan y="137" fill="#68fbd2">body</tspan><tspan y="137">&gt;</tspan><tspan x="0" y="161"></tspan><tspan x="0" y="185" xml:space="preserve">     &lt;/</tspan><tspan y="185" fill="#68fbd2">body</tspan><tspan y="185">&gt;</tspan><tspan x="0" y="209"></tspan><tspan x="0" y="233">&lt;/html&gt;</tspan><tspan x="0" y="257"></tspan></text>
    <g id="Rectangle_456020" data-name="Rectangle 456020" transform="translate(-6140 -11651)" fill="none" stroke="#8dc2ff" stroke-width="2" stroke-dasharray="2">
      <rect width="81" height="25" stroke="none"/>
      <rect x="1" y="1" width="79" height="23" fill="none"/>
    </g>
    <g id="Rectangle_456021" data-name="Rectangle 456021" transform="translate(-6140 -11700)" fill="none" stroke="#8dc2ff" stroke-width="2" stroke-dasharray="2">
      <rect width="81" height="27" stroke="none"/>
      <rect x="1" y="1" width="79" height="25" fill="none"/>
    </g>
    <path id="Path_998700" data-name="Path 998700" d="M-6059-11758h149.228" transform="translate(0.001 72)" fill="none" stroke="#8dc2ff" stroke-width="2" stroke-dasharray="2"/>
    <path id="Path_998701" data-name="Path 998701" d="M-6059-11758h149.228" transform="translate(0.001 120)" fill="none" stroke="#8dc2ff" stroke-width="2" stroke-dasharray="2"/>
    <path id="Path_998702" data-name="Path 998702" d="M-6059-11758h64.093" transform="translate(-12047 -23419) rotate(180)" fill="none" stroke="#68fbd2" stroke-width="2" stroke-dasharray="2"/>
    <path id="Polygon_12" data-name="Polygon 12" d="M5,0l5,9H0Z" transform="translate(-5903 -11643) rotate(90)" fill="#8dc2ff"/>
    <path id="Polygon_14" data-name="Polygon 14" d="M5,0l5,9H0Z" transform="translate(-6054 -11656) rotate(-90)" fill="#68fbd2"/>
    <path id="Polygon_13" data-name="Polygon 13" d="M5,0l5,9H0Z" transform="translate(-5903 -11691) rotate(90)" fill="#8dc2ff"/>
    <text id="Apertura" transform="translate(-5888.544 -11695.5)" fill="#8dc2ff" font-size="16" font-family="Roboto-Regular, Roboto" letter-spacing="0.003em"><tspan x="0" y="17">Apertura</tspan></text>
    <text id="Cierre" transform="translate(-5888.544 -11647.5)" fill="#8dc2ff" font-size="16" font-family="Roboto-Regular, Roboto" letter-spacing="0.003em"><tspan x="0" y="17">Cierre</tspan></text>
  </g>
</svg>
