<svg xmlns="http://www.w3.org/2000/svg" width="500" height="226" viewBox="0 0 500 226">
  <g id="img11" transform="translate(9344.207 9048)">
    <rect id="Rectangle_455725" data-name="Rectangle 455725" width="206" height="129" transform="translate(-9196 -9000)" fill="#fff"/>
    <rect id="Rectangle_455663" data-name="Rectangle 455663" width="500" height="226" transform="translate(-9344.207 -9048)" fill="none"/>
    <g id="Grupo_69357" data-name="Grupo 69357" transform="translate(-2023 -551.853)">
      <ellipse id="Elipse_6351" data-name="Elipse 6351" cx="176.5" cy="16" rx="176.5" ry="16" transform="translate(-7242 -8325.94)" fill="#306ba8"/>
      <g id="Grupo_68609" data-name="Grupo 68609" transform="translate(-7869 -11700)">
        <path id="Trazado_155584" data-name="Trazado 155584" d="M47.458,90.5H67.379a3.32,3.32,0,1,0,0-6.641H47.458a3.32,3.32,0,0,0,0,6.641Z" transform="translate(680.463 3171.721)" fill="#ffdc69"/>
        <g id="Grupo_68607" data-name="Grupo 68607" transform="translate(4 523.624)">
          <g id="ordenador-portatil" transform="translate(675.744 2633.405)">
            <g id="Grupo_68594" data-name="Grupo 68594" transform="translate(0 228.529)">
              <path id="Trazado_119432" data-name="Trazado 119432" d="M496.007,423.366a8.3,8.3,0,0,1-1.663.168,8.326,8.326,0,0,0,1.662-.168Z" transform="translate(-263.339 -407.033)" fill="#bec8dc"/>
              <path id="Trazado_119433" data-name="Trazado 119433" d="M15.759,423.533a8.306,8.306,0,0,1-1.664-.168,8.262,8.262,0,0,0,1.664.168Z" transform="translate(-7.509 -407.033)" fill="#bec8dc"/>
              <path id="Trazado_119434" data-name="Trazado 119434" d="M97.292,393.244l-2.415-4.83H4.125A4.126,4.126,0,0,0,0,392.538v4.126H102.826a6.19,6.19,0,0,1-5.534-3.42Z" transform="translate(0 -388.414)" fill="#bec8dc"/>
              <path id="Trazado_119435" data-name="Trazado 119435" d="M497.9,416.048a8.259,8.259,0,0,0,6.42-6.42,8.261,8.261,0,0,1-6.42,6.42Z" transform="translate(-265.235 -399.715)" fill="#bec8dc"/>
              <path id="Trazado_119436" data-name="Trazado 119436" d="M.359,409.628a8.259,8.259,0,0,0,6.42,6.42,8.261,8.261,0,0,1-6.42-6.42Z" transform="translate(-0.191 -399.715)" fill="#bec8dc"/>
              <path id="Trazado_119437" data-name="Trazado 119437" d="M390.656,388.414H299.9l-2.414,4.83a6.187,6.187,0,0,1-5.534,3.42h102.83v-4.125a4.125,4.125,0,0,0-4.126-4.125Z" transform="translate(-155.526 -388.414)" fill="#bec8dc"/>
              <path id="Trazado_119438" data-name="Trazado 119438" d="M.168,407.732A8.3,8.3,0,0,1,0,406.069a8.3,8.3,0,0,0,.168,1.665Z" transform="translate(0 -397.819)" fill="#bec8dc"/>
              <path id="Trazado_119439" data-name="Trazado 119439" d="M511.809,406.069a8.3,8.3,0,0,1-.168,1.664,8.3,8.3,0,0,0,.168-1.665Z" transform="translate(-272.553 -397.819)" fill="#bec8dc"/>
            </g>
            <path id="Trazado_119440" data-name="Trazado 119440" d="M102.826,406.069H0a8.242,8.242,0,0,0,8.251,8.251H231.006a8.242,8.242,0,0,0,8.251-8.251Z" transform="translate(0 -169.29)" fill="#afbbd0"/>
            <path id="Trazado_119441" data-name="Trazado 119441" d="M205.449,393.244a6.187,6.187,0,0,0,5.534,3.42h33.6a6.188,6.188,0,0,0,5.534-3.42l2.415-4.83h-49.5Z" transform="translate(-108.157 -159.885)" fill="#96a5b9"/>
            <path id="Trazado_119442" data-name="Trazado 119442" d="M153.783,228.529H240.41V96.011a7.735,7.735,0,0,0-7.735-7.735H25.39a7.735,7.735,0,0,0-7.735,7.735V228.529ZM30.03,125.4V100.651h198v115.5h-198Z" transform="translate(-9.405)" fill="#464655"/>
            <path id="Trazado_119444" data-name="Trazado 119444" d="M242.142,114.759h-198V139.51h198Zm-144.378,16.5H56.513a4.126,4.126,0,0,1,0-8.251H97.764a4.125,4.125,0,0,1,0,8.251Zm33,0h-16.5a4.126,4.126,0,1,1,0-8.251h16.5a4.125,4.125,0,1,1,0,8.251Zm33,0h-16.5a4.126,4.126,0,0,1,0-8.251h16.5a4.125,4.125,0,1,1,0,8.251Zm33,0h-16.5a4.126,4.126,0,0,1,0-8.251h16.5a4.125,4.125,0,1,1,0,8.251Zm33,0h-16.5a4.126,4.126,0,0,1,0-8.251h16.5a4.125,4.125,0,1,1,0,8.251Z" transform="translate(-23.513 -14.108)" fill="#cf9eff"/>
            <path id="Trazado_119445" data-name="Trazado 119445" d="M107.169,132.414H65.918a4.126,4.126,0,1,0,0,8.251h41.251a4.126,4.126,0,0,0,0-8.251Z" transform="translate(-32.917 -23.513)" fill="#62249e"/>
            <g id="Grupo_68595" data-name="Grupo 68595" transform="translate(86.627 108.901)">
              <path id="Trazado_119446" data-name="Trazado 119446" d="M206,132.414H189.5a4.126,4.126,0,1,0,0,8.251H206a4.126,4.126,0,1,0,0-8.251Z" transform="translate(-185.379 -132.414)" fill="#62249e"/>
              <path id="Trazado_119447" data-name="Trazado 119447" d="M276.626,132.414h-16.5a4.126,4.126,0,1,0,0,8.251h16.5a4.126,4.126,0,1,0,0-8.251Z" transform="translate(-222.999 -132.414)" fill="#62249e"/>
              <path id="Trazado_119448" data-name="Trazado 119448" d="M347.247,132.414h-16.5a4.126,4.126,0,0,0,0,8.251h16.5a4.126,4.126,0,1,0,0-8.251Z" transform="translate(-260.619 -132.414)" fill="#62249e"/>
              <path id="Trazado_119449" data-name="Trazado 119449" d="M417.866,132.414h-16.5a4.126,4.126,0,1,0,0,8.251h16.5a4.126,4.126,0,1,0,0-8.251Z" transform="translate(-298.239 -132.414)" fill="#62249e"/>
            </g>
          </g>
        </g>
        <g id="Grupo_68608" data-name="Grupo 68608" transform="translate(4 1084.752)">
          <g id="html" transform="translate(635.423 2141.101)">
            <path id="Trazado_119398" data-name="Trazado 119398" d="M198.791,17.265V0H147a5.755,5.755,0,0,0-5.755,5.755V19.183H189.2a3.837,3.837,0,0,1,3.837,3.837V49.876a3.837,3.837,0,0,1-3.837,3.837H141.241v51.795A5.755,5.755,0,0,0,147,111.263h69.06a5.755,5.755,0,0,0,5.755-5.755V23.02S198.791,20.443,198.791,17.265Z" transform="translate(-110.548)" fill="#61e9c3"/>
            <path id="Trazado_119399" data-name="Trazado 119399" d="M411.824,23.02h17.265L406.069,0V17.265A5.755,5.755,0,0,0,411.824,23.02Z" transform="translate(-317.826)" fill="#37b995"/>
            <path id="Trazado_119400" data-name="Trazado 119400" d="M82.488,118.969V92.113a3.837,3.837,0,0,0-3.837-3.837H3.837A3.837,3.837,0,0,0,0,92.113v26.856a3.837,3.837,0,0,0,3.837,3.837H78.651a3.837,3.837,0,0,0,3.837-3.837ZM23.02,113.214a1.918,1.918,0,1,1-3.837,0v-3.837H9.592v3.837a1.918,1.918,0,1,1-3.837,0V97.867a1.918,1.918,0,1,1,3.837,0v7.673h9.592V97.867a1.918,1.918,0,1,1,3.837,0v15.347ZM38.366,99.786H34.53v13.428a1.919,1.919,0,1,1-3.837,0V99.786H26.856a1.918,1.918,0,1,1,0-3.837h11.51a1.918,1.918,0,1,1,0,3.837Zm21.1,13.428a1.919,1.919,0,0,1-3.837,0v-8.421l-2.192,3.653a1.92,1.92,0,0,1-1.645.931H49.876a1.92,1.92,0,0,1-1.645-.931l-2.192-3.653v8.421a1.919,1.919,0,0,1-3.837,0V97.867a1.918,1.918,0,0,1,3.563-.987l5.069,8.449L55.9,96.88a1.918,1.918,0,0,1,3.563.987v15.347Zm15.347,1.918h-9.59a1.918,1.918,0,0,1-1.918-1.918V97.867a1.918,1.918,0,0,1,3.837,0V111.3h7.673a1.918,1.918,0,1,1,0,3.837Z" transform="translate(0 -69.093)" fill="#19538d"/>
            <g id="Grupo_68589" data-name="Grupo 68589" transform="translate(5.755 26.856)">
              <path id="Trazado_119401" data-name="Trazado 119401" d="M41.829,123.586A1.918,1.918,0,0,0,39.91,125.5v7.673H30.319V125.5a1.919,1.919,0,1,0-3.837,0v15.347a1.918,1.918,0,1,0,3.837,0V137.01H39.91v3.837a1.919,1.919,0,1,0,3.837,0V125.5a1.918,1.918,0,0,0-1.918-1.914Z" transform="translate(-26.482 -123.586)" fill="#fff"/>
              <path id="Trazado_119402" data-name="Trazado 119402" d="M210.065,123.655a1.915,1.915,0,0,0-2.157.862l-5.069,8.449-5.069-8.449a1.918,1.918,0,0,0-3.563.987v15.347a1.919,1.919,0,0,0,3.837,0V132.43l2.192,3.653a1.92,1.92,0,0,0,1.645.931H203.8a1.92,1.92,0,0,0,1.645-.931l2.192-3.653v8.421a1.919,1.919,0,0,0,3.837,0V125.5a1.92,1.92,0,0,0-1.409-1.845Z" transform="translate(-157.758 -123.586)" fill="#fff"/>
              <path id="Trazado_119403" data-name="Trazado 119403" d="M128.186,123.586h-11.51a1.918,1.918,0,1,0,0,3.837h3.837v13.428a1.918,1.918,0,0,0,3.837,0V127.423h3.837a1.919,1.919,0,1,0,0-3.837Z" transform="translate(-95.575 -123.586)" fill="#fff"/>
              <path id="Trazado_119404" data-name="Trazado 119404" d="M302.82,138.933h-7.673V125.5a1.919,1.919,0,0,0-3.837,0v15.347a1.918,1.918,0,0,0,1.918,1.918h9.592a1.918,1.918,0,1,0,0-3.837Z" transform="translate(-233.76 -123.586)" fill="#fff"/>
            </g>
          </g>
        </g>
        <path id="Trazado_155585" data-name="Trazado 155585" d="M56.533,156.358H95.78a3.568,3.568,0,0,0,3.568-3.568v-3.568a3.568,3.568,0,0,0-3.568-3.568H56.533a3.568,3.568,0,0,0-3.568,3.568v3.568a3.569,3.569,0,0,0,3.568,3.568Z" transform="translate(701.77 3153.829)" fill="#607b82"/>
        <path id="Trazado_155586" data-name="Trazado 155586" d="M55.356,154.231h26.3a2.657,2.657,0,0,0,2.391-2.859v-2.859a2.657,2.657,0,0,0-2.391-2.859h-26.3a2.657,2.657,0,0,0-2.391,2.859v2.859A2.657,2.657,0,0,0,55.356,154.231Z" transform="translate(793.105 3153.829)" fill="#7dbfff"/>
        <rect id="Rectángulo_7339" data-name="Rectángulo 7339" width="46" height="40" rx="6" transform="translate(755 3315.06)" fill="#e8e8e8"/>
        <rect id="Rectángulo_7340" data-name="Rectángulo 7340" width="30.78" height="32.052" rx="6" transform="translate(846.283 3311.964)" fill="#e8e8e8"/>
      </g>
      <g id="Grupo_68619" data-name="Grupo 68619" transform="translate(-8406.555 -11676.874)">
        <g id="browser" transform="translate(1230 3260.598)">
          <rect id="Rectángulo_7341" data-name="Rectángulo 7341" width="137.296" height="58.054" transform="translate(4.372 21.216)" fill="#fff"/>
          <path id="Trazado_155587" data-name="Trazado 155587" d="M137.6,61.793H7.506C3.36,61.793,0,64.306,0,67.407v71.109c0,3.1,3.36,5.614,7.506,5.614H137.6c4.145,0,7.506-2.513,7.506-5.614V67.407C145.108,64.306,141.748,61.793,137.6,61.793Zm-12.509,3.743h2.5c1.382,0,2.5.838,2.5,1.871s-1.12,1.871-2.5,1.871h-2.5c-1.382,0-2.5-.838-2.5-1.871s1.121-1.871,2.5-1.871Zm-70.052,0h60.045c1.382,0,2.5.838,2.5,1.871s-1.12,1.871-2.5,1.871H55.041c-1.382,0-2.5-.838-2.5-1.871s1.118-1.871,2.5-1.871Zm-12.509,0h2.5c1.382,0,2.5.838,2.5,1.871s-1.12,1.871-2.5,1.871h-2.5c-1.382,0-2.5-.838-2.5-1.871s1.12-1.871,2.5-1.871Zm-10.007,0h2.5c1.382,0,2.5.838,2.5,1.871s-1.12,1.871-2.5,1.871h-2.5c-1.382,0-2.5-.838-2.5-1.871s1.12-1.871,2.5-1.871Zm-10.008,0c1.382,0,2.5.838,2.5,1.871s-1.12,1.871-2.5,1.871-2.5-.838-2.5-1.871,1.12-1.871,2.5-1.871Zm-7.505,0c1.382,0,2.5.838,2.5,1.871s-1.12,1.871-2.5,1.871-2.5-.838-2.5-1.871,1.119-1.871,2.5-1.871Zm-7.506,0c1.382,0,2.5.838,2.5,1.871s-1.12,1.871-2.5,1.871S5,68.44,5,67.407s1.124-1.871,2.506-1.871ZM140.1,84.249v54.268c0,1.033-1.12,1.871-2.5,1.871H7.506c-1.382,0-2.5-.838-2.5-1.871V74.892c0-1.033,1.12-1.871,2.5-1.871H137.6c1.382,0,2.5.838,2.5,1.871Zm-2.5-14.97h-2.5c-1.382,0-2.5-.838-2.5-1.871s1.12-1.871,2.5-1.871h2.5c1.382,0,2.5.838,2.5,1.871s-1.116,1.87-2.5,1.87Z" transform="translate(0 -61.793)" fill="#d2dcf0"/>
          <ellipse id="Elipse_6352" data-name="Elipse 6352" cx="2.502" cy="1.871" rx="2.502" ry="1.871" transform="translate(5.004 3.743)" fill="#ff6469"/>
          <ellipse id="Elipse_6353" data-name="Elipse 6353" cx="2.502" cy="1.871" rx="2.502" ry="1.871" transform="translate(12.509 3.743)" fill="#ffe169"/>
          <ellipse id="Elipse_6354" data-name="Elipse 6354" cx="2.502" cy="1.871" rx="2.502" ry="1.871" transform="translate(20.015 3.743)" fill="#87e1aa"/>
          <g id="Grupo_68610" data-name="Grupo 68610" transform="translate(30.022 3.742)">
            <path id="Trazado_155589" data-name="Trazado 155589" d="M108.433,83.19h2.5c1.382,0,2.5-.838,2.5-1.871s-1.12-1.871-2.5-1.871h-2.5c-1.382,0-2.5.838-2.5,1.871S107.051,83.19,108.433,83.19Z" transform="translate(-105.931 -79.447)" fill="#e4eaf6"/>
            <path id="Trazado_155590" data-name="Trazado 155590" d="M143.743,83.19h2.5c1.382,0,2.5-.838,2.5-1.871s-1.12-1.871-2.5-1.871h-2.5c-1.382,0-2.5.838-2.5,1.871S142.361,83.19,143.743,83.19Z" transform="translate(-131.234 -79.447)" fill="#e4eaf6"/>
            <path id="Trazado_155591" data-name="Trazado 155591" d="M435.053,83.19h2.5c1.382,0,2.5-.838,2.5-1.871s-1.12-1.871-2.5-1.871h-2.5c-1.382,0-2.5.838-2.5,1.871S433.671,83.19,435.053,83.19Z" transform="translate(-339.982 -79.447)" fill="#e4eaf6"/>
            <path id="Trazado_155592" data-name="Trazado 155592" d="M472.865,79.448h-2.5c-1.382,0-2.5.838-2.5,1.871s1.12,1.871,2.5,1.871h2.5c1.382,0,2.5-.838,2.5-1.871S474.247,79.448,472.865,79.448Z" transform="translate(-365.285 -79.448)" fill="#e4eaf6"/>
            <path id="Trazado_155593" data-name="Trazado 155593" d="M187.881,83.19h60.045c1.382,0,2.5-.838,2.5-1.871s-1.12-1.871-2.5-1.871H187.881c-1.382,0-2.5.838-2.5,1.871S186.5,83.19,187.881,83.19Z" transform="translate(-162.862 -79.447)" fill="#e4eaf6"/>
          </g>
          <path id="Trazado_155594" data-name="Trazado 155594" d="M150.254,114.759H20.157c-1.382,0-2.5.838-2.5,1.871v9.357h135.1V116.63C152.756,115.6,151.636,114.759,150.254,114.759ZM45.176,122.244H25.161c-1.382,0-2.5-.838-2.5-1.871s1.12-1.871,2.5-1.871H45.176c1.382,0,2.5.838,2.5,1.871S46.557,122.244,45.176,122.244Zm20.015,0H55.183c-1.382,0-2.5-.838-2.5-1.871s1.12-1.871,2.5-1.871H65.19c1.382,0,2.5.838,2.5,1.871s-1.118,1.871-2.5,1.871Zm20.015,0H75.2c-1.382,0-2.5-.838-2.5-1.871s1.12-1.871,2.5-1.871H85.206c1.382,0,2.5.838,2.5,1.871s-1.119,1.871-2.5,1.871Zm20.015,0H95.213c-1.382,0-2.5-.838-2.5-1.871s1.12-1.871,2.5-1.871H105.22c1.382,0,2.5.838,2.5,1.871s-1.12,1.871-2.5,1.871Zm20.015,0H115.228c-1.382,0-2.5-.838-2.5-1.871s1.12-1.871,2.5-1.871h10.007c1.382,0,2.5.838,2.5,1.871s-1.118,1.871-2.5,1.871Zm20.015,0H135.243c-1.382,0-2.5-.838-2.5-1.871s1.12-1.871,2.5-1.871H145.25c1.382,0,2.5.838,2.5,1.871s-1.118,1.871-2.5,1.871Z" transform="translate(-12.651 -103.531)" fill="#9ecfff"/>
          <path id="Trazado_155595" data-name="Trazado 155595" d="M57.827,132.414H37.812c-1.382,0-2.5.838-2.5,1.871s1.12,1.871,2.5,1.871H57.827c1.382,0,2.5-.838,2.5-1.871S59.209,132.414,57.827,132.414Z" transform="translate(-25.303 -117.444)" fill="#62249e"/>
          <g id="Grupo_68611" data-name="Grupo 68611" transform="translate(40.03 14.97)">
            <path id="Trazado_155596" data-name="Trazado 155596" d="M153.75,132.414H143.743c-1.382,0-2.5.838-2.5,1.871s1.12,1.871,2.5,1.871H153.75c1.382,0,2.5-.838,2.5-1.871S155.132,132.414,153.75,132.414Z" transform="translate(-141.241 -132.414)" fill="#dfefff"/>
            <path id="Trazado_155597" data-name="Trazado 155597" d="M224.371,132.414H214.364c-1.382,0-2.5.838-2.5,1.871s1.12,1.871,2.5,1.871h10.007c1.382,0,2.5-.838,2.5-1.871S225.753,132.414,224.371,132.414Z" transform="translate(-191.847 -132.414)" fill="#dfefff"/>
            <path id="Trazado_155598" data-name="Trazado 155598" d="M294.992,132.414H284.985c-1.382,0-2.5.838-2.5,1.871s1.12,1.871,2.5,1.871h10.007c1.382,0,2.5-.838,2.5-1.871S296.374,132.414,294.992,132.414Z" transform="translate(-242.453 -132.414)" fill="#dfefff"/>
            <path id="Trazado_155599" data-name="Trazado 155599" d="M365.612,132.414H355.605c-1.382,0-2.5.838-2.5,1.871s1.12,1.871,2.5,1.871h10.007c1.382,0,2.5-.838,2.5-1.871S366.994,132.414,365.612,132.414Z" transform="translate(-293.058 -132.414)" fill="#dfefff"/>
            <path id="Trazado_155600" data-name="Trazado 155600" d="M436.233,132.414H426.226c-1.382,0-2.5.838-2.5,1.871s1.12,1.871,2.5,1.871h10.007c1.382,0,2.5-.838,2.5-1.871S437.615,132.414,436.233,132.414Z" transform="translate(-343.664 -132.414)" fill="#dfefff"/>
          </g>
          <path id="Trazado_155602" data-name="Trazado 155602" d="M205.536,228.7h15.011c1.382,0,2.5-.838,2.5-1.871v-14.97c0,1.033-1.12,1.871-2.5,1.871H205.536c-1.382,0-2.5-.838-2.5-1.871v14.97C203.034,227.865,204.154,228.7,205.536,228.7Z" transform="translate(-190.526 -180.049)" fill="#dee3ed"/>
          <path id="Trazado_155620" data-name="Trazado 155620" d="M205.536,228.7h15.011c1.382,0,2.5-.838,2.5-1.871v-14.97c0,1.033-1.12,1.871-2.5,1.871H205.536c-1.382,0-2.5-.838-2.5-1.871v14.97C203.034,227.865,204.154,228.7,205.536,228.7Z" transform="translate(-190.526 -155.722)" fill="#dee3ed"/>
          <path id="Trazado_155604" data-name="Trazado 155604" d="M399.743,228.7h15.011c1.382,0,2.5-.838,2.5-1.871v-14.97c0,1.033-1.12,1.871-2.5,1.871H399.743c-1.382,0-2.5-.838-2.5-1.871v14.97C397.241,227.865,398.361,228.7,399.743,228.7Z" transform="translate(-284.658 -180.049)" fill="#dee3ed"/>
          <path id="Trazado_155619" data-name="Trazado 155619" d="M399.743,228.7h15.011c1.382,0,2.5-.838,2.5-1.871v-14.97c0,1.033-1.12,1.871-2.5,1.871H399.743c-1.382,0-2.5-.838-2.5-1.871v14.97C397.241,227.865,398.361,228.7,399.743,228.7Z" transform="translate(-284.658 -155.722)" fill="#dee3ed"/>
          <path id="Trazado_155606" data-name="Trazado 155606" d="M205.536,199.82h15.011c1.382,0,2.5-.838,2.5-1.871v-1.871c0-1.033-1.12-1.871-2.5-1.871H205.536c-1.382,0-2.5.838-2.5,1.871v1.871C203.034,198.982,204.154,199.82,205.536,199.82Z" transform="translate(-190.525 -166.137)" fill="#dda2ff"/>
          <path id="Trazado_155621" data-name="Trazado 155621" d="M205.536,199.82h15.011c1.382,0,2.5-.838,2.5-1.871v-1.871c0-1.033-1.12-1.871-2.5-1.871H205.536c-1.382,0-2.5.838-2.5,1.871v1.871C203.034,198.982,204.154,199.82,205.536,199.82Z" transform="translate(-190.525 -141.809)" fill="#c8bdf1"/>
          <path id="Trazado_155608" data-name="Trazado 155608" d="M399.743,199.82h15.011c1.382,0,2.5-.838,2.5-1.871v-1.871c0-1.033-1.12-1.871-2.5-1.871H399.743c-1.382,0-2.5.838-2.5,1.871v1.871C397.241,198.982,398.361,199.82,399.743,199.82Z" transform="translate(-284.657 -166.137)" fill="#a0dcf0"/>
          <path id="Trazado_155618" data-name="Trazado 155618" d="M399.743,199.82h15.011c1.382,0,2.5-.838,2.5-1.871v-1.871c0-1.033-1.12-1.871-2.5-1.871H399.743c-1.382,0-2.5.838-2.5,1.871v1.871C397.241,198.982,398.361,199.82,399.743,199.82Z" transform="translate(-284.657 -141.809)" fill="#dda2ff"/>
        </g>
      </g>
      <g id="Grupo_68614" data-name="Grupo 68614" transform="translate(-7913.142 -11696.81)">
        <path id="Trazado_155613" data-name="Trazado 155613" d="M-5608.84-8874.03l-7.656,24.911" transform="translate(6421.468 12190.862)" fill="none" stroke="#12263f" stroke-linecap="round" stroke-width="4"/>
        <path id="Trazado_155614" data-name="Trazado 155614" d="M-5706.5-8859.12l-12.912,8.912,12.912,9.142" transform="translate(6499.929 12179.495)" fill="none" stroke="#12263f" stroke-linecap="round" stroke-linejoin="round" stroke-width="4"/>
        <path id="Trazado_155615" data-name="Trazado 155615" d="M-5530.42-8859.12l12.341,9.027-12.341,9.256" transform="translate(6355.84 12179.495)" fill="none" stroke="#12263f" stroke-linecap="round" stroke-linejoin="round" stroke-width="4"/>
      </g>
      <rect id="Rectángulo_7629" data-name="Rectángulo 7629" width="400" height="180" transform="translate(-7269 -8474)" fill="none"/>
    </g>
  </g>
</svg>
