<svg xmlns="http://www.w3.org/2000/svg" width="51" height="51" viewBox="0 0 51 51">
  <g id="img25" transform="translate(-1234.711 -3644)">
    <g id="Group_1179652" data-name="Group 1179652" transform="translate(-1)">
      <path id="Path_998619" data-name="Path 998619" d="M10,0H41A10,10,0,0,1,51,10V41A10,10,0,0,1,41,51H10A10,10,0,0,1,0,41V10A10,10,0,0,1,10,0Z" transform="translate(1235.711 3644)" fill="#fff"/>
    </g>
    <g id="Grupo_70142" data-name="Grupo 70142" transform="translate(1241.708 3654.429)">
      <path id="Trazado_156550" data-name="Trazado 156550" d="M673.162,0a1.857,1.857,0,0,0-1.849,1.848v26.9a1.862,1.862,0,0,0,1.849,1.854H706.47a1.861,1.861,0,0,0,1.848-1.854V1.848A1.856,1.856,0,0,0,706.47,0Zm0,1.233H706.47a.6.6,0,0,1,.614.614V7.4H672.548V1.848a.6.6,0,0,1,.614-.614m2.467,1.234a1.849,1.849,0,1,0,1.854,1.849,1.849,1.849,0,0,0-1.854-1.849m4.935,0a1.849,1.849,0,1,0,1.849,1.849,1.849,1.849,0,0,0-1.849-1.849m4.935,0a1.849,1.849,0,1,0,1.849,1.849A1.849,1.849,0,0,0,685.5,2.467m7.37,0a.62.62,0,0,0-.585.614V5.549a.617.617,0,0,0,.614.614h12.339a.617.617,0,0,0,.614-.614V3.081a.617.617,0,0,0-.614-.614ZM675.629,3.7a.617.617,0,1,1-.614.614.608.608,0,0,1,.614-.614m4.935,0a.617.617,0,1,1-.617.617.617.617,0,0,1,.617-.617m4.935,0a.617.617,0,1,1-.617.617A.617.617,0,0,1,685.5,3.7m8.018,0h11.1V4.935h-11.1ZM672.548,8.63h34.537V28.753a.6.6,0,0,1-.614.621H673.162a.6.6,0,0,1-.614-.621Zm3.086,1.39a.617.617,0,0,0-.619.614V26.677a.617.617,0,0,0,.617.612H704a.617.617,0,0,0,.619-.614V10.637a.617.617,0,0,0-.619-.614Zm.614,1.157h27.14v14.8h-27.14Z" transform="translate(-671.313 0)" fill="#12263f"/>
      <path id="Trazado_156557" data-name="Trazado 156557" d="M785.027,162.494h-1.536l-1.061-2.3a.652.652,0,0,0-.737-.268.5.5,0,0,0-.386.315l-1.309,4.5-1.407-6.811a.584.584,0,0,0-.662-.356.519.519,0,0,0-.495.371l-1.18,7.6-1.529-9.752a.569.569,0,0,0-.645-.372.526.526,0,0,0-.514.372l-1.528,9.755-1.181-7.6a.57.57,0,0,0-.646-.371.534.534,0,0,0-.51.356l-1.377,6.658L767,159.32a.6.6,0,0,0-.679-.337.545.545,0,0,0-.46.309l-1.081,3.007h-1.771c-.254,0-.461.149-.461.333s.206.333.461.333h2.03a.583.583,0,0,0,.565-.316l.762-2.121,1.421,5.628a.6.6,0,0,0,.679.337.52.52,0,0,0,.472-.352l1.3-6.271,1.228,7.9a.569.569,0,0,0,.645.372.526.526,0,0,0,.515-.372L774.146,158l1.529,9.764a.569.569,0,0,0,.645.372.526.526,0,0,0,.514-.372l1.229-7.9,1.3,6.31a.585.585,0,0,0,.664.354.54.54,0,0,0,.482-.33l1.436-4.949.771,1.676a.473.473,0,0,0,.437.228h1.868c.609-.016.61-.652,0-.668" transform="translate(-755.513 -143.431)" fill="#12263f"/>
    </g>
  </g>
</svg>
