<svg xmlns="http://www.w3.org/2000/svg" xmlns:xlink="http://www.w3.org/1999/xlink" width="264" height="156.91" viewBox="0 0 264 156.91">
  <defs>
    <clipPath id="clip-path">
      <rect id="Rectangle_456211" data-name="Rectangle 456211" width="227.393" height="156.91" transform="translate(0 0)" fill="none"/>
    </clipPath>
  </defs>
  <g id="img2" transform="translate(-213.711 -842.546)">
    <rect id="Rectangle_456210" data-name="Rectangle 456210" width="264" height="156" transform="translate(213.711 843)" fill="none"/>
    <g id="Group_1179755" data-name="Group 1179755" transform="translate(232.132 842.55)">
      <g id="Group_1179754" data-name="Group 1179754" transform="translate(0 -0.004)" clip-path="url(#clip-path)">
        <path id="Path_998918" data-name="Path 998918" d="M213.757,164.351,213.635,16.11a5.13,5.13,0,0,1,5.125-5.134L404.8,10.823a5.13,5.13,0,0,1,5.134,5.125l.122,148.241Z" transform="translate(-182.665 -9.253)" fill="#59a7ca"/>
        <path id="Path_998919" data-name="Path 998919" d="M424.553,245.772l-190.67.157.178-136.244,190.67-.157Z" transform="translate(-199.977 -93.65)" fill="#fff"/>
        <path id="Path_998920" data-name="Path 998920" d="M395.719,166.8l-81.618.067a3.033,3.033,0,1,1,0-6.066l81.618-.067a3.033,3.033,0,0,1,0,6.066" transform="translate(-265.971 -137.433)" fill="#ababab"/>
        <path id="Path_998921" data-name="Path 998921" d="M377.876,227.948,314.151,228a3.033,3.033,0,1,1-.005-6.066l63.724-.052a3.033,3.033,0,1,1,.005,6.066" transform="translate(-266.014 -189.715)" fill="#ababab"/>
        <path id="Path_998922" data-name="Path 998922" d="M341.577,289.2l-27.376.023a3.033,3.033,0,1,1,0-6.066l27.376-.022a3.033,3.033,0,0,1,0,6.066" transform="translate(-266.056 -242.087)" fill="#ababab"/>
        <path id="Path_998923" data-name="Path 998923" d="M364.637,350.113l-50.385.041a3.033,3.033,0,0,1,0-6.066l50.385-.041a3.033,3.033,0,0,1,0,6.066" transform="translate(-266.1 -294.17)" fill="#ababab"/>
        <path id="Path_998924" data-name="Path 998924" d="M737.913,349.977l-15.039.012a3.033,3.033,0,0,1,0-6.066l15.039-.012a3.033,3.033,0,1,1,0,6.066" transform="translate(-615.484 -294.054)" fill="#ababab"/>
        <path id="Path_998925" data-name="Path 998925" d="M900.728,349.843l-15.039.012a3.033,3.033,0,1,1-.005-6.066l15.039-.012a3.033,3.033,0,0,1,0,6.066" transform="translate(-754.696 -293.94)" fill="#ababab"/>
        <path id="Path_998926" data-name="Path 998926" d="M832.876,227.81l-15.039.012a3.033,3.033,0,1,1-.005-6.066l15.039-.012a3.033,3.033,0,0,1,.005,6.066" transform="translate(-696.68 -189.597)" fill="#ababab"/>
        <path id="Path_998927" data-name="Path 998927" d="M996.043,227.675l-15.04.012a3.033,3.033,0,0,1,0-6.066l15.039-.012a3.033,3.033,0,0,1,.005,6.066" transform="translate(-836.193 -189.482)" fill="#ababab"/>
        <path id="Path_998928" data-name="Path 998928" d="M1162.023,227.539l-15.039.012a3.033,3.033,0,1,1-.005-6.066l15.039-.012a3.033,3.033,0,0,1,0,6.066" transform="translate(-978.111 -189.366)" fill="#ababab"/>
        <path id="Path_998929" data-name="Path 998929" d="M1059.793,349.712l-15.039.012a3.033,3.033,0,0,1,0-6.066l15.039-.012a3.033,3.033,0,0,1,0,6.066" transform="translate(-890.702 -293.828)" fill="#ababab"/>
        <path id="Path_998930" data-name="Path 998930" d="M1218.74,349.581l-15.04.012a3.033,3.033,0,0,1,0-6.066l15.039-.012a3.033,3.033,0,0,1,.005,6.066" transform="translate(-1026.606 -293.716)" fill="#ababab"/>
        <path id="Path_998931" data-name="Path 998931" d="M442.208,410.717l-127.906.105a3.033,3.033,0,1,1,0-6.066l127.906-.105a3.033,3.033,0,0,1,0,6.066" transform="translate(-266.142 -345.989)" fill="#ababab"/>
        <path id="Path_998932" data-name="Path 998932" d="M385.86,472.082l-71.509.059a3.033,3.033,0,1,1,0-6.066l71.509-.059a3.033,3.033,0,1,1,0,6.066" transform="translate(-266.185 -398.458)" fill="#ababab"/>
        <path id="Path_998933" data-name="Path 998933" d="M375.221,533.188l-60.818.05a3.033,3.033,0,0,1-.005-6.066l60.818-.05a3.033,3.033,0,0,1,0,6.066" transform="translate(-266.229 -450.705)" fill="#ababab"/>
        <path id="Path_998934" data-name="Path 998934" d="M828.5,532.922l-38.66.032a3.033,3.033,0,0,1,0-6.066l38.659-.032a3.033,3.033,0,0,1,.005,6.066" transform="translate(-672.74 -450.478)" fill="#ababab"/>
        <path id="Path_998935" data-name="Path 998935" d="M1151.081,532.657l-38.659.032a3.033,3.033,0,0,1-.005-6.066l38.66-.032a3.033,3.033,0,1,1,0,6.066" transform="translate(-948.56 -450.251)" fill="#ababab"/>
        <path id="Path_998936" data-name="Path 998936" d="M411.989,594.024l-97.537.08a3.033,3.033,0,0,1-.005-6.066l97.537-.08a3.033,3.033,0,1,1,.005,6.066" transform="translate(-266.271 -502.722)" fill="#ababab"/>
        <path id="Path_998937" data-name="Path 998937" d="M1071.359,593.826l-26.4.022a3.033,3.033,0,0,1-.005-6.066l26.4-.022a3.033,3.033,0,1,1,.005,6.066" transform="translate(-890.874 -502.553)" fill="#ababab"/>
        <path id="Path_998938" data-name="Path 998938" d="M392.857,655.177l-78.355.064a3.033,3.033,0,1,1,0-6.066l78.355-.064a3.033,3.033,0,1,1,.005,6.066" transform="translate(-266.314 -555.01)" fill="#ababab"/>
        <path id="Path_998939" data-name="Path 998939" d="M931.527,655.024l-18.744.015a3.033,3.033,0,1,1-.005-6.066l18.744-.015a3.033,3.033,0,0,1,.005,6.066" transform="translate(-777.863 -554.879)" fill="#ababab"/>
        <path id="Path_998940" data-name="Path 998940" d="M357.018,716.425l-42.466.035a3.033,3.033,0,0,1,0-6.066l42.466-.035a3.033,3.033,0,0,1,0,6.066" transform="translate(-266.357 -607.379)" fill="#ababab"/>
        <path id="Path_998941" data-name="Path 998941" d="M340.653,777.563l-26.051.021a3.033,3.033,0,1,1-.005-6.066l26.051-.022a3.033,3.033,0,0,1,0,6.066" transform="translate(-266.4 -659.654)" fill="#ababab"/>
        <path id="Path_998942" data-name="Path 998942" d="M569.266,777.43l-14.835.012a3.033,3.033,0,0,1-.005-6.066l14.835-.012a3.033,3.033,0,0,1,3.035,3.03h0a3.033,3.033,0,0,1-3.03,3.035" transform="translate(-471.46 -659.54)" fill="#ababab"/>
        <path id="Path_998943" data-name="Path 998943" d="M729.62,777.3l-14.836.012a3.033,3.033,0,0,1,0-6.066l14.835-.012a3.033,3.033,0,0,1,.005,6.066" transform="translate(-608.568 -659.426)" fill="#ababab"/>
        <path id="Path_998944" data-name="Path 998944" d="M891.381,777.164l-14.835.012a3.033,3.033,0,0,1-.005-6.066l14.836-.012a3.033,3.033,0,0,1,.005,6.066" transform="translate(-746.879 -659.313)" fill="#ababab"/>
        <path id="Path_998945" data-name="Path 998945" d="M384.715,838.358l-70.062.057a3.033,3.033,0,1,1-.005-6.066l70.062-.058a3.033,3.033,0,1,1,0,6.066" transform="translate(-266.442 -711.635)" fill="#ababab"/>
        <path id="Path_998946" data-name="Path 998946" d="M878.906,838.174l-24.114.02a3.033,3.033,0,0,1-.005-6.066l24.113-.02a3.033,3.033,0,0,1,.005,6.066" transform="translate(-728.279 -711.478)" fill="#ababab"/>
        <path id="Path_998947" data-name="Path 998947" d="M1099.746,837.993l-24.114.02a3.033,3.033,0,0,1-.005-6.066l24.114-.02a3.033,3.033,0,0,1,.005,6.066" transform="translate(-917.104 -711.323)" fill="#ababab"/>
        <path id="Path_998948" data-name="Path 998948" d="M352.274,899.587l-37.572.031a3.033,3.033,0,0,1,0-6.066l37.572-.031a3.033,3.033,0,1,1,0,6.066" transform="translate(-266.485 -763.988)" fill="#ababab"/>
        <path id="Path_998949" data-name="Path 998949" d="M646.931,899.455l-14.8.012a3.033,3.033,0,0,1,0-6.066l14.8-.012a3.033,3.033,0,0,1,0,6.066" transform="translate(-537.895 -763.875)" fill="#ababab"/>
        <path id="Path_998950" data-name="Path 998950" d="M804.94,899.326l-14.8.012a3.033,3.033,0,1,1,0-6.066l14.8-.012a3.033,3.033,0,0,1,0,6.066" transform="translate(-672.998 -763.765)" fill="#ababab"/>
        <path id="Path_998951" data-name="Path 998951" d="M1389.863,63.618h0a1.659,1.659,0,1,1,1.658-1.661,1.66,1.66,0,0,1-1.658,1.661" transform="translate(-1186.956 -51.557)" fill="#cf9eff"/>
        <path id="Path_998952" data-name="Path 998952" d="M1438.943,50.839h0a2.739,2.739,0,1,1,2.736-2.741,2.739,2.739,0,0,1-2.736,2.741" transform="translate(-1227.998 -38.785)" fill="#cf9eff"/>
        <path id="Path_998953" data-name="Path 998953" d="M1499.583,43.939h0a3.319,3.319,0,1,1,3.316-3.321,3.319,3.319,0,0,1-3.316,3.321" transform="translate(-1279.351 -31.894)" fill="#68fbd2"/>
        <path id="Path_998954" data-name="Path 998954" d="M16.556,737.685h-3l11.184-58.114,2.5.474Z" transform="translate(-11.59 -581.054)" fill="#2a4f60"/>
        <path id="Path_998955" data-name="Path 998955" d="M541.489,737.424l2.495-.474L533.2,679.572l-2.495.474Z" transform="translate(-453.772 -581.054)" fill="#2a4f60"/>
        <path id="Path_998956" data-name="Path 998956" d="M395.567,737.685h-3l11.184-58.114,2.5.474Z" transform="translate(-335.656 -581.054)" fill="#2a4f60"/>
        <path id="Path_998957" data-name="Path 998957" d="M159.293,739.225l2.437.029-10.722-57.882-2.5.474Z" transform="translate(-126.983 -582.594)" fill="#2a4f60"/>
        <path id="Path_998958" data-name="Path 998958" d="M43.2,138.229c-9.88,1.062-22.666,2.182-35.5,24.038-14.029,23.888-6.644,59.571,4.429,69.487s47.237,22.159,77.637,3.83c0,0,18.356-11.108,8.936-29.543-14.5-28.369-12.449-34.285-18.931-45.4s-15.6-24.663-36.568-22.41" transform="translate(0 -117.977)" fill="#cf9eff"/>
        <path id="Path_998959" data-name="Path 998959" d="M7.694,173.707c8.761-14.918,17.5-20.174,25.3-22.347a65.578,65.578,0,0,0-9.145,12.386c-14.029,23.888-6.644,59.571,4.428,69.486,9.82,8.794,39.371,19.414,67.137,8.923a28.242,28.242,0,0,1-5.661,4.868c-30.4,18.329-66.564,6.086-77.637-3.83s-18.458-45.6-4.429-69.487" transform="translate(0 -129.417)" fill="#b379d5"/>
        <path id="Path_998960" data-name="Path 998960" d="M486.111,390.151l2.539,7.644-7.739-3.054Z" transform="translate(-411.194 -333.591)" fill="#7b90ba"/>
        <path id="Path_998961" data-name="Path 998961" d="M432.613,233.232c.516.021,1.93.494,4,4.4,2.64,4.99,6.5,20.062,6.5,20.062l-11.518,4.29-1.48-3.146-2.437-24.221s4.8-1.393,4.939-1.387" transform="translate(-365.675 -199.42)" fill="#104a84"/>
        <path id="Path_998962" data-name="Path 998962" d="M236.228,218.246a70.345,70.345,0,0,1,15.225,2.174s2.779,23.883-2.5,42.031c-1.182,4.062.978,16.84.978,16.84l-34.13-.45s4.043-30.891,2.52-35.88-1.559-22.379-1.559-22.379.234-.036,7.668-1.322a77.234,77.234,0,0,1,11.8-1.013" transform="translate(-184.516 -186.606)" fill="#29629b"/>
        <path id="Path_998963" data-name="Path 998963" d="M272.068,945.107s.755,8.715,2.143,11.128-.073,6.516-.146,7.079-2.923,1.368-7.453.885-4.457-1.528-4.092-3.218,2.777-3.861,2.923-5.47-1.388-7.4-1.388-7.4Z" transform="translate(-224.332 -808.096)" fill="#7b99bc"/>
        <path id="Path_998964" data-name="Path 998964" d="M242.646,586.563s23.56-1.308,28.821,1.878-.951,9.729-.951,9.729-19.18,8.34-51.291,10.193c-7.6.439-8.259-19.827-6.837-21.5s30.259-.3,30.259-.3" transform="translate(-181.083 -501.072)" fill="#42b692"/>
        <path id="Path_998965" data-name="Path 998965" d="M264.409,1033.6c-4.665-.5-4.088-2.789-3.712-4.528.235-1.089,1.573-2.373,2.371-3.588A7.773,7.773,0,0,0,266.19,1027c2.1.621,4.987-.609,6.825-1.379a22.539,22.539,0,0,1,.624,6.017c-.075.58-4.564,2.457-9.229,1.961" transform="translate(-222.694 -876.821)" fill="#14538c"/>
        <path id="Path_998966" data-name="Path 998966" d="M200.212,604.8c.941,7.123,5.6,42.581,5.6,42.581L195,648.719s-13.3-46.282-12.616-53.361,5.66-7.674,5.66-7.674,9.677-1.742,12.169,17.113" transform="translate(-155.922 -502.452)" fill="#62e6c5"/>
        <path id="Path_998967" data-name="Path 998967" d="M188.474,252.446c3.191-1.2,4.752,27.555,5.182,39.39,5.651.544,15.5,0,17.953-.18,1.153-.087,3.813-1.061,4.96-1.211a11.493,11.493,0,0,1,2.819-.134c.212.037,6.1,2.446,6.606,2.974.625.655,2.314,2.308,2.029,3.022s-3.249-1.991-3.249-1.991l-1.449-.813c1.8,1.762,5.243,4.082,4.747,4.926-.483.824-3.586-1.53-5.8-3.135,1.9,1.713,4.253,4.779,3.71,5.257-.488.43-3.168-3.12-6.033-4.142-1.061-.379-2.119.67-2.954.8a6.01,6.01,0,0,1-2.163.12l-3.1-.88c-1.057.1-1.083.721-2.15.948-1.239.264-3.271.541-4.848.927-9.083,2.219-12.112,3.25-14.893,3.248-8.424,0-8.912-46.295-1.37-49.124" transform="translate(-156.601 -215.818)" fill="#f7a491"/>
        <path id="Path_998968" data-name="Path 998968" d="M176.727,263.592c-.6-12.122-.51-27.063,6.285-29.613,2.681-1.006,7.408,5.042,6.558,29.859-3.628.3-8.954.541-12.843-.246" transform="translate(-150.91 -199.971)" fill="#104a84"/>
        <path id="Path_998969" data-name="Path 998969" d="M374.838,402.935h-.693l-10.413,25.59.717-.109Z" transform="translate(-311.003 -344.521)" fill="#7b90ba"/>
        <path id="Path_998970" data-name="Path 998970" d="M497.423,996.527s-.943,3.025.746,5.026,8.71,3.964,9.632,5.047a3.037,3.037,0,0,1,.852,2.007l-19.7-.542.215-5.951.908-4.276Z" transform="translate(-418.066 -852.061)" fill="#7b99bc"/>
        <path id="Path_998971" data-name="Path 998971" d="M492.891,1035.4s-5.063,2.048-7.509.836-2.372-1.549-3.08-1.1-.961,6.031-.961,6.031l22.157.651c1.542-.036,2.322-1.171,1.069-2.143a18.1,18.1,0,0,0-2.416-1.436c-1.733-.994-9.261-2.841-9.261-2.841" transform="translate(-411.562 -884.913)" fill="#14538c"/>
        <path id="Path_998972" data-name="Path 998972" d="M498.918,595.005c1.523-3.2,4.987-7.378,11.081-4.865,5.813,2.4,7.373,8.288,5.539,14.321s-13.907,41.495-14.328,46.37l-9.64.064s1.752-28.079,2.182-34.867a65.721,65.721,0,0,1,5.166-21.024" transform="translate(-420.308 -503.93)" fill="#62e6c5"/>
        <path id="Path_998973" data-name="Path 998973" d="M280.08,402.935H247.857a2.1,2.1,0,0,0-1.944,1.308l-9.922,24.282H218.225a.9.9,0,0,0,0,1.8h50.561a3.529,3.529,0,0,0,3.22-2.091L282,405.907a2.108,2.108,0,0,0-1.917-2.972" transform="translate(-185.821 -344.522)" fill="#636363"/>
        <path id="Path_998974" data-name="Path 998974" d="M509.936,486.6a1.774,1.774,0,1,1-1.329-2.321,1.9,1.9,0,0,1,1.329,2.321" transform="translate(-433.025 -414.049)" fill="#fff"/>
        <path id="Path_998975" data-name="Path 998975" d="M303.752,2.466A24.657,24.657,0,0,1,300.9,1.324,14.3,14.3,0,0,0,297.651.1c-1.8-.278-4.888-.092-6.594,1.758-2.125,2.306-5.9.417-5.141,12.493.861,13.669,8.462,12.169,8.646,11.937s6.778-8.745,6.778-8.745,2.306,5.043,2.306,4.858,11.772-16.007.107-19.935" transform="translate(-244.381 0.004)"/>
        <path id="Path_998976" data-name="Path 998976" d="M323.7,142.949l.656,4.884s1.47,7.037-.421,8.393-8.041-8.594-8.041-8.594l.65-12.376Z" transform="translate(-270.098 -115.648)" fill="#f7a491"/>
        <path id="Path_998977" data-name="Path 998977" d="M318.926,139.267a14.012,14.012,0,0,0,7.923,7.823l-.556-4.141-7.157-7.693Z" transform="translate(-272.692 -115.648)" fill="#f7a491"/>
        <path id="Path_998978" data-name="Path 998978" d="M318.354,41.866a6.513,6.513,0,0,1,7.5,6.586,49.552,49.552,0,0,1-.549,6.265c-.871,5.638-4.718,10.6-7.261,10.16s-8.943-5.307-7.816-13.33c.7-4.954,3.922-9,8.126-9.68" transform="translate(-265.142 -35.725)" fill="#f7a491"/>
        <path id="Path_998979" data-name="Path 998979" d="M301.356,100.479a1.9,1.9,0,1,1-1.441-2.564,2.1,2.1,0,0,1,1.441,2.564" transform="translate(-254.505 -83.7)" fill="#f7a491"/>
        <path id="Path_998980" data-name="Path 998980" d="M307.512,38.9s3.075.764,4.216-1.214,5.222-6.246,10.41-4.476-4.565-4.3-4.98-4.3-5.395-.035-5.395-.035-3.839,3.158-3.977,3.5-1.245,4.129-1.245,4.129Z" transform="translate(-262.102 -24.69)"/>
        <path id="Path_998981" data-name="Path 998981" d="M351.926,154.976l5.6,1.07a2.491,2.491,0,0,1-3.008,1.709c-3.017-.487-2.588-2.779-2.588-2.779" transform="translate(-300.889 -132.509)" fill="#fff"/>
        <path id="Path_998982" data-name="Path 998982" d="M1063.975,150.572h53.8a5.284,5.284,0,0,1,5.3,5.269v21.9a5.284,5.284,0,0,1-5.3,5.269h-41.027l-8.2,5.993,1.649-5.993h-6.223a5.284,5.284,0,0,1-5.3-5.269v-21.9a5.284,5.284,0,0,1,5.3-5.269" transform="translate(-905.201 -128.743)" fill="#19538d"/>
        <path id="Path_998983" data-name="Path 998983" d="M1135.11,232.163h-3.158v-4.849h-3.728v4.849h-3.158v-12.08h3.158v4.383h3.728v-4.383h3.158Z" transform="translate(-961.967 -188.177)" fill="#dfefff"/>
        <path id="Path_998984" data-name="Path 998984" d="M1207.443,222.845v-2.761h8.974v2.761h-2.951v9.319h-3.054v-9.319Z" transform="translate(-1032.401 -188.178)" fill="#dfefff"/>
        <path id="Path_998985" data-name="Path 998985" d="M1293.124,219.846h1.1V231.96h-3.158v-5.384l-2.571,2.692h-.345l-2.554-2.692v5.384h-3.158V219.846h1.139l4.729,5.246Z" transform="translate(-1096.528 -187.974)" fill="#dfefff"/>
        <path id="Path_998986" data-name="Path 998986" d="M1387.924,229.385h4.383v2.778h-7.49v-12.08h3.107Z" transform="translate(-1184.062 -188.178)" fill="#dfefff"/>
        <path id="Path_998987" data-name="Path 998987" d="M1027.275,688.327h52.058a4.833,4.833,0,0,0,4.847-4.82V660.736a4.833,4.833,0,0,0-4.847-4.82h-9.019l2.858-6.957-9.222,6.957h-36.675a4.833,4.833,0,0,0-4.847,4.82v22.771a4.833,4.833,0,0,0,4.847,4.82" transform="translate(-874.208 -554.88)" fill="#7dbfff"/>
        <path id="Path_998988" data-name="Path 998988" d="M1112.45,774.211v7.75a3.775,3.775,0,0,1-.525,1.99,3.6,3.6,0,0,1-1.434,1.348,4.259,4.259,0,0,1-2.014.478,5.066,5.066,0,0,1-2.085-.4,3.047,3.047,0,0,1-1.395-1.226,3.918,3.918,0,0,1-.5-2.065h2.931a2.342,2.342,0,0,0,.113.823.706.706,0,0,0,.337.4,1.37,1.37,0,0,0,.6.11.9.9,0,0,0,.783-.388,1.825,1.825,0,0,0,.274-1.07v-7.75Z" transform="translate(-944.379 -661.974)"/>
        <path id="Path_998989" data-name="Path 998989" d="M1171.943,783.732h-3.667l-.58,1.889h-3.142l4.161-11.41h2.774l4.185,11.41h-3.15Zm-.729-2.367-1.113-3.6-1.1,3.6Z" transform="translate(-995.729 -661.974)"/>
        <path id="Path_998990" data-name="Path 998990" d="M1242.265,774.211l-3.785,11.41h-3.252l-3.754-11.41h3.252l2.131,8.04,2.132-8.04Z" transform="translate(-1052.949 -661.974)"/>
        <path id="Path_998991" data-name="Path 998991" d="M1303.463,783.732H1299.8l-.58,1.889h-3.142l4.161-11.41h2.774l4.185,11.41h-3.15Zm-.729-2.367-1.113-3.6-1.1,3.6Z" transform="translate(-1108.183 -661.974)"/>
      </g>
    </g>
  </g>
</svg>
