<svg xmlns="http://www.w3.org/2000/svg" width="51" height="51" viewBox="0 0 51 51">
  <g id="img3" transform="translate(-526.711 -813.413)">
    <g id="Group_1179273" data-name="Group 1179273">
      <path id="Path_998619" data-name="Path 998619" d="M10,0H41A10,10,0,0,1,51,10V41A10,10,0,0,1,41,51H10A10,10,0,0,1,0,41V10A10,10,0,0,1,10,0Z" transform="translate(526.711 813.413)" fill="#fff"/>
      <g id="Group_1179276" data-name="Group 1179276">
        <path id="Trazado_156550" data-name="Trazado 156550" d="M673.162,0a1.857,1.857,0,0,0-1.849,1.848v26.9a1.862,1.862,0,0,0,1.849,1.854H706.47a1.861,1.861,0,0,0,1.848-1.854V1.848A1.856,1.856,0,0,0,706.469,0Zm0,1.233H706.47a.6.6,0,0,1,.614.614V7.4H672.548V1.848a.6.6,0,0,1,.614-.614m2.467,1.234a1.848,1.848,0,1,0,1.854,1.849,1.848,1.848,0,0,0-1.854-1.849m4.935,0a1.848,1.848,0,1,0,1.849,1.849,1.849,1.849,0,0,0-1.849-1.849m4.935,0a1.848,1.848,0,1,0,1.849,1.849A1.848,1.848,0,0,0,685.5,2.467m7.369,0a.62.62,0,0,0-.585.614V5.549a.617.617,0,0,0,.614.614h12.338a.617.617,0,0,0,.614-.614V3.081a.617.617,0,0,0-.614-.614ZM675.629,3.7a.617.617,0,1,1-.614.614.608.608,0,0,1,.614-.614m4.935,0a.617.617,0,1,1-.617.617.617.617,0,0,1,.617-.617m4.935,0a.617.617,0,1,1-.617.617A.617.617,0,0,1,685.5,3.7m8.018,0h11.1V4.935h-11.1ZM672.548,8.63h34.537V28.752a.6.6,0,0,1-.614.621H673.162a.6.6,0,0,1-.614-.62Zm3.086,1.39a.617.617,0,0,0-.619.614V26.676a.617.617,0,0,0,.617.612H704a.617.617,0,0,0,.619-.614V10.636a.617.617,0,0,0-.619-.614Zm.614,1.157h27.139v14.8H676.248Z" transform="translate(-137.764 823.972)" fill="#12263f"/>
      </g>
    </g>
    <path id="Path_998622" data-name="Path 998622" d="M-9646.377-10851.538l-2.074,1.875-3.79-4.229-1.717,3.231-3.989-10.492,10.732,4.229-3.392,1.517Z" transform="translate(10204.373 11698.024)" fill="none" stroke="#12263f" stroke-linecap="round" stroke-linejoin="round" stroke-width="1"/>
  </g>
</svg>
