<svg xmlns="http://www.w3.org/2000/svg" width="51" height="51" viewBox="0 0 51 51">
  <g id="img4" transform="translate(-772.711 -813.413)">
    <g id="Group_1179263" data-name="Group 1179263" transform="translate(-463 -2830.587)">
      <path id="Path_998619" data-name="Path 998619" d="M10,0H41A10,10,0,0,1,51,10V41A10,10,0,0,1,41,51H10A10,10,0,0,1,0,41V10A10,10,0,0,1,10,0Z" transform="translate(1235.711 3644)" fill="#fff"/>
      <g id="Grupo_70142" data-name="Grupo 70142" transform="translate(847.302 -2098.352)">
        <path id="Trazado_156550" data-name="Trazado 156550" d="M673.162,0a1.857,1.857,0,0,0-1.849,1.848v26.9a1.862,1.862,0,0,0,1.849,1.854H706.47a1.861,1.861,0,0,0,1.848-1.854V1.848A1.856,1.856,0,0,0,706.469,0Zm0,1.233H706.47a.6.6,0,0,1,.614.614V7.4H672.548V1.848a.6.6,0,0,1,.614-.614m2.467,1.234a1.848,1.848,0,1,0,1.854,1.849,1.848,1.848,0,0,0-1.854-1.849m4.935,0a1.848,1.848,0,1,0,1.849,1.849,1.849,1.849,0,0,0-1.849-1.849m4.935,0a1.848,1.848,0,1,0,1.849,1.849A1.848,1.848,0,0,0,685.5,2.467m7.369,0a.62.62,0,0,0-.585.614V5.549a.617.617,0,0,0,.614.614h12.338a.617.617,0,0,0,.614-.614V3.081a.617.617,0,0,0-.614-.614ZM675.629,3.7a.617.617,0,1,1-.614.614.608.608,0,0,1,.614-.614m4.935,0a.617.617,0,1,1-.617.617.617.617,0,0,1,.617-.617m4.935,0a.617.617,0,1,1-.617.617A.617.617,0,0,1,685.5,3.7m8.018,0h11.1V4.935h-11.1ZM672.548,8.63h34.537V28.752a.6.6,0,0,1-.614.621H673.162a.6.6,0,0,1-.614-.62Zm3.086,1.39a.617.617,0,0,0-.619.614V26.676a.617.617,0,0,0,.617.612H704a.617.617,0,0,0,.619-.614V10.636a.617.617,0,0,0-.619-.614Zm.614,1.157h27.139v14.8H676.248Z" transform="translate(-276.064 5752.91)" fill="#12263f"/>
        <path id="Path_998621" data-name="Path 998621" d="M-6.3-7.072-8.622,0h-1.869l3.17-8.531h1.189ZM-4.374,0-6.7-7.072l-.187-1.459h1.2L-2.5,0Zm-.105-3.176V-1.8H-8.985V-3.176ZM-1.813-9H-.126v7.547L-.3,0H-1.813Zm5.7,5.766v.123a5.31,5.31,0,0,1-.149,1.3,2.973,2.973,0,0,1-.46,1.022,2.162,2.162,0,0,1-.771.668A2.328,2.328,0,0,1,1.427.117a2.049,2.049,0,0,1-1-.234A2.037,2.037,0,0,1-.29-.779a3.763,3.763,0,0,1-.463-1,7.626,7.626,0,0,1-.264-1.254V-3.3A7.626,7.626,0,0,1-.753-4.559a3.763,3.763,0,0,1,.463-1,2.045,2.045,0,0,1,.709-.662,2.019,2.019,0,0,1,1-.234,2.378,2.378,0,0,1,1.093.237,2.122,2.122,0,0,1,.773.668,3.008,3.008,0,0,1,.457,1.02A5.274,5.274,0,0,1,3.888-3.234ZM2.2-3.111v-.123a4.552,4.552,0,0,0-.056-.729,2.009,2.009,0,0,0-.19-.6,1.074,1.074,0,0,0-.366-.413,1.062,1.062,0,0,0-.595-.152,1.328,1.328,0,0,0-.586.117,1.06,1.06,0,0,0-.4.328,1.5,1.5,0,0,0-.234.5,2.771,2.771,0,0,0-.091.636v.768a2.515,2.515,0,0,0,.155.817,1.194,1.194,0,0,0,.422.557,1.251,1.251,0,0,0,.741.2A1.135,1.135,0,0,0,1.6-1.348a.965.965,0,0,0,.366-.4,1.975,1.975,0,0,0,.185-.606A5.086,5.086,0,0,0,2.2-3.111ZM7.556-1.2a1.215,1.215,0,0,0,.551-.12.923.923,0,0,0,.378-.34.994.994,0,0,0,.144-.519h1.588A2.1,2.1,0,0,1,9.858-.993a2.426,2.426,0,0,1-.943.814,2.92,2.92,0,0,1-1.324.3A3.116,3.116,0,0,1,6.3-.129a2.5,2.5,0,0,1-.911-.683,2.942,2.942,0,0,1-.545-1.02,4.184,4.184,0,0,1-.182-1.251v-.17a4.2,4.2,0,0,1,.182-1.257,2.942,2.942,0,0,1,.545-1.02A2.5,2.5,0,0,1,6.3-6.211a3.079,3.079,0,0,1,1.277-.246,2.985,2.985,0,0,1,1.368.3,2.256,2.256,0,0,1,.926.853A2.509,2.509,0,0,1,10.216-4H8.628A1.349,1.349,0,0,0,8.5-4.57a1.019,1.019,0,0,0-.363-.413,1.042,1.042,0,0,0-.583-.155,1.073,1.073,0,0,0-.6.155,1.035,1.035,0,0,0-.363.422,2.077,2.077,0,0,0-.179.6,4.827,4.827,0,0,0-.05.706v.17a5.187,5.187,0,0,0,.047.709,1.931,1.931,0,0,0,.179.6,1.039,1.039,0,0,0,.366.416A1.1,1.1,0,0,0,7.556-1.2Z" transform="translate(413.41 5775.938)" fill="#12263f"/>
      </g>
    </g>
  </g>
</svg>
