<svg xmlns="http://www.w3.org/2000/svg" width="500" height="226" viewBox="0 0 500 226">
  <g id="img7" transform="translate(-863.711 -968)">
    <rect id="Rectangle_455655" data-name="Rectangle 455655" width="500" height="226" transform="translate(863.711 968)" fill="none"/>
    <g id="Group_1179267" data-name="Group 1179267" transform="translate(0.207 -8)">
      <rect id="Rectangle_455721" data-name="Rectangle 455721" width="219" height="145" transform="translate(997.711 1016)" fill="#fff"/>
      <g id="Grupo_69355" data-name="Grupo 69355" transform="translate(313.504 103.207)">
        <ellipse id="Elipse_6335" data-name="Elipse 6335" cx="159" cy="16" rx="159" ry="16" transform="translate(642 1044)" fill="#306ba8"/>
        <g id="ordenador-portatil" transform="translate(675.744 820.827)">
          <g id="Grupo_68594" data-name="Grupo 68594" transform="translate(0 228.529)">
            <path id="Trazado_119432" data-name="Trazado 119432" d="M496.007,423.366a8.3,8.3,0,0,1-1.663.168,8.326,8.326,0,0,0,1.662-.168Z" transform="translate(-263.339 -407.033)" fill="#bec8dc"/>
            <path id="Trazado_119433" data-name="Trazado 119433" d="M15.759,423.533a8.306,8.306,0,0,1-1.664-.168,8.262,8.262,0,0,0,1.664.168Z" transform="translate(-7.509 -407.033)" fill="#bec8dc"/>
            <path id="Trazado_119434" data-name="Trazado 119434" d="M97.292,393.244l-2.415-4.83H4.125A4.126,4.126,0,0,0,0,392.538v4.126H102.826a6.19,6.19,0,0,1-5.534-3.42Z" transform="translate(0 -388.414)" fill="#bec8dc"/>
            <path id="Trazado_119435" data-name="Trazado 119435" d="M497.9,416.048a8.259,8.259,0,0,0,6.42-6.42,8.261,8.261,0,0,1-6.42,6.42Z" transform="translate(-265.235 -399.715)" fill="#bec8dc"/>
            <path id="Trazado_119436" data-name="Trazado 119436" d="M.359,409.628a8.259,8.259,0,0,0,6.42,6.42,8.261,8.261,0,0,1-6.42-6.42Z" transform="translate(-0.191 -399.715)" fill="#bec8dc"/>
            <path id="Trazado_119437" data-name="Trazado 119437" d="M390.656,388.414H299.9l-2.414,4.83a6.187,6.187,0,0,1-5.534,3.42h102.83v-4.125a4.125,4.125,0,0,0-4.126-4.125Z" transform="translate(-155.526 -388.414)" fill="#bec8dc"/>
            <path id="Trazado_119438" data-name="Trazado 119438" d="M.168,407.732A8.3,8.3,0,0,1,0,406.069a8.3,8.3,0,0,0,.168,1.665Z" transform="translate(0 -397.819)" fill="#bec8dc"/>
            <path id="Trazado_119439" data-name="Trazado 119439" d="M511.809,406.069a8.3,8.3,0,0,1-.168,1.664,8.3,8.3,0,0,0,.168-1.665Z" transform="translate(-272.553 -397.819)" fill="#bec8dc"/>
          </g>
          <path id="Trazado_119440" data-name="Trazado 119440" d="M102.826,406.069H0a8.242,8.242,0,0,0,8.251,8.251H231.006a8.242,8.242,0,0,0,8.251-8.251Z" transform="translate(0 -169.29)" fill="#afbbd0"/>
          <path id="Trazado_119441" data-name="Trazado 119441" d="M205.449,393.244a6.187,6.187,0,0,0,5.534,3.42h33.6a6.188,6.188,0,0,0,5.534-3.42l2.415-4.83h-49.5Z" transform="translate(-108.157 -159.885)" fill="#96a5b9"/>
          <path id="Trazado_119442" data-name="Trazado 119442" d="M153.783,228.529H240.41V96.011a7.735,7.735,0,0,0-7.735-7.735H25.39a7.735,7.735,0,0,0-7.735,7.735V228.529ZM30.03,125.4V100.651h198v115.5h-198Z" transform="translate(-9.405)" fill="#464655"/>
          <path id="Trazado_119444" data-name="Trazado 119444" d="M242.142,114.759h-198V139.51h198Zm-144.378,16.5H56.513a4.126,4.126,0,0,1,0-8.251H97.764a4.125,4.125,0,0,1,0,8.251Zm33,0h-16.5a4.126,4.126,0,1,1,0-8.251h16.5a4.125,4.125,0,1,1,0,8.251Zm33,0h-16.5a4.126,4.126,0,0,1,0-8.251h16.5a4.125,4.125,0,1,1,0,8.251Zm33,0h-16.5a4.126,4.126,0,0,1,0-8.251h16.5a4.125,4.125,0,1,1,0,8.251Zm33,0h-16.5a4.126,4.126,0,0,1,0-8.251h16.5a4.125,4.125,0,1,1,0,8.251Z" transform="translate(-23.513 -14.108)" fill="#7dbfff"/>
          <path id="Trazado_119445" data-name="Trazado 119445" d="M107.169,132.414H65.918a4.126,4.126,0,1,0,0,8.251h41.251a4.126,4.126,0,0,0,0-8.251Z" transform="translate(-32.917 -23.513)" fill="#19538d"/>
          <g id="Grupo_68595" data-name="Grupo 68595" transform="translate(86.627 108.901)">
            <path id="Trazado_119446" data-name="Trazado 119446" d="M206,132.414H189.5a4.126,4.126,0,1,0,0,8.251H206a4.126,4.126,0,1,0,0-8.251Z" transform="translate(-185.379 -132.414)" fill="#19538d"/>
            <path id="Trazado_119447" data-name="Trazado 119447" d="M276.626,132.414h-16.5a4.126,4.126,0,1,0,0,8.251h16.5a4.126,4.126,0,1,0,0-8.251Z" transform="translate(-222.999 -132.414)" fill="#19538d"/>
            <path id="Trazado_119448" data-name="Trazado 119448" d="M347.247,132.414h-16.5a4.126,4.126,0,0,0,0,8.251h16.5a4.126,4.126,0,1,0,0-8.251Z" transform="translate(-260.619 -132.414)" fill="#19538d"/>
            <path id="Trazado_119449" data-name="Trazado 119449" d="M417.866,132.414h-16.5a4.126,4.126,0,1,0,0,8.251h16.5a4.126,4.126,0,1,0,0-8.251Z" transform="translate(-298.239 -132.414)" fill="#19538d"/>
          </g>
          <path id="Trazado_119453" data-name="Trazado 119453" d="M153.122,194.207H74.745a4.126,4.126,0,0,0-4.125,4.124v4.126a4.126,4.126,0,0,0,4.125,4.125h78.377a4.126,4.126,0,0,0,4.125-4.125v-4.125A4.125,4.125,0,0,0,153.122,194.207Z" transform="translate(-37.62 -56.43)" fill="#cf9eff"/>
          <circle id="Elipse_6343" data-name="Elipse 6343" cx="31" cy="31" r="31" transform="translate(133.256 139.173)" fill="#7dbfff"/>
        </g>
        <g id="html" transform="translate(636 895.793)">
          <path id="Trazado_119398" data-name="Trazado 119398" d="M204.546,23.02a5.755,5.755,0,0,1-5.755-5.755V0H147a5.755,5.755,0,0,0-5.755,5.755V19.183H189.2a3.837,3.837,0,0,1,3.837,3.837V49.876a3.837,3.837,0,0,1-3.837,3.837H141.241v51.795A5.755,5.755,0,0,0,147,111.263h69.06a5.755,5.755,0,0,0,5.755-5.755V23.02ZM171.372,92.642a1.918,1.918,0,1,1-2.712,2.712l-11.51-11.51a1.918,1.918,0,0,1,0-2.713l11.51-11.51a1.918,1.918,0,1,1,2.713,2.713L161.219,82.488Zm17.705-24.826-11.51,30.693a1.919,1.919,0,1,1-3.593-1.349l11.51-30.693a1.919,1.919,0,1,1,3.593,1.349ZM205.9,83.844l-11.51,11.51a1.918,1.918,0,1,1-2.712-2.713l10.154-10.153L191.679,72.335a1.918,1.918,0,0,1,2.713-2.713l11.51,11.51a1.917,1.917,0,0,1,0,2.712Z" transform="translate(-110.548)" fill="#61e9c3"/>
          <path id="Trazado_119399" data-name="Trazado 119399" d="M411.824,23.02h17.265L406.069,0V17.265A5.755,5.755,0,0,0,411.824,23.02Z" transform="translate(-317.826)" fill="#37b995"/>
          <path id="Trazado_119400" data-name="Trazado 119400" d="M82.488,118.969V92.113a3.837,3.837,0,0,0-3.837-3.837H3.837A3.837,3.837,0,0,0,0,92.113v26.856a3.837,3.837,0,0,0,3.837,3.837H78.651a3.837,3.837,0,0,0,3.837-3.837ZM23.02,113.214a1.918,1.918,0,1,1-3.837,0v-3.837H9.592v3.837a1.918,1.918,0,1,1-3.837,0V97.867a1.918,1.918,0,1,1,3.837,0v7.673h9.592V97.867a1.918,1.918,0,1,1,3.837,0v15.347ZM38.366,99.786H34.53v13.428a1.919,1.919,0,1,1-3.837,0V99.786H26.856a1.918,1.918,0,1,1,0-3.837h11.51a1.918,1.918,0,1,1,0,3.837Zm21.1,13.428a1.919,1.919,0,0,1-3.837,0v-8.421l-2.192,3.653a1.92,1.92,0,0,1-1.645.931H49.876a1.92,1.92,0,0,1-1.645-.931l-2.192-3.653v8.421a1.919,1.919,0,0,1-3.837,0V97.867a1.918,1.918,0,0,1,3.563-.987l5.069,8.449L55.9,96.88a1.918,1.918,0,0,1,3.563.987v15.347Zm15.347,1.918h-9.59a1.918,1.918,0,0,1-1.918-1.918V97.867a1.918,1.918,0,0,1,3.837,0V111.3h7.673a1.918,1.918,0,1,1,0,3.837Z" transform="translate(0 -69.093)" fill="#19538d"/>
          <g id="Grupo_68589" data-name="Grupo 68589" transform="translate(5.755 26.856)">
            <path id="Trazado_119401" data-name="Trazado 119401" d="M41.829,123.586A1.918,1.918,0,0,0,39.91,125.5v7.673H30.319V125.5a1.919,1.919,0,1,0-3.837,0v15.347a1.918,1.918,0,1,0,3.837,0V137.01H39.91v3.837a1.919,1.919,0,1,0,3.837,0V125.5a1.918,1.918,0,0,0-1.918-1.914Z" transform="translate(-26.482 -123.586)" fill="#fff"/>
            <path id="Trazado_119402" data-name="Trazado 119402" d="M210.065,123.655a1.915,1.915,0,0,0-2.157.862l-5.069,8.449-5.069-8.449a1.918,1.918,0,0,0-3.563.987v15.347a1.919,1.919,0,0,0,3.837,0V132.43l2.192,3.653a1.92,1.92,0,0,0,1.645.931H203.8a1.92,1.92,0,0,0,1.645-.931l2.192-3.653v8.421a1.919,1.919,0,0,0,3.837,0V125.5a1.92,1.92,0,0,0-1.409-1.845Z" transform="translate(-157.758 -123.586)" fill="#fff"/>
            <path id="Trazado_119403" data-name="Trazado 119403" d="M128.186,123.586h-11.51a1.918,1.918,0,1,0,0,3.837h3.837v13.428a1.918,1.918,0,0,0,3.837,0V127.423h3.837a1.919,1.919,0,1,0,0-3.837Z" transform="translate(-95.575 -123.586)" fill="#fff"/>
            <path id="Trazado_119404" data-name="Trazado 119404" d="M302.82,138.933h-7.673V125.5a1.919,1.919,0,0,0-3.837,0v15.347a1.918,1.918,0,0,0,1.918,1.918h9.592a1.918,1.918,0,1,0,0-3.837Z" transform="translate(-233.76 -123.586)" fill="#fff"/>
          </g>
          <g id="Grupo_68590" data-name="Grupo 68590" transform="translate(46.039 65.224)">
            <path id="Trazado_119405" data-name="Trazado 119405" d="M305.409,300.264a1.924,1.924,0,0,0-2.47,1.122l-11.51,30.693a1.919,1.919,0,1,0,3.593,1.349l11.51-30.693a1.921,1.921,0,0,0-1.123-2.471Z" transform="translate(-274.042 -300.143)" fill="#19538d"/>
            <path id="Trazado_119406" data-name="Trazado 119406" d="M226.646,318.356a1.918,1.918,0,0,0-2.713,0l-11.51,11.51a1.918,1.918,0,0,0,0,2.713l11.51,11.51a1.918,1.918,0,0,0,2.712-2.713l-10.153-10.154,10.154-10.154a1.918,1.918,0,0,0,0-2.712Z" transform="translate(-211.861 -313.958)" fill="#19538d"/>
            <path id="Trazado_119407" data-name="Trazado 119407" d="M374.033,318.356a1.918,1.918,0,1,0-2.713,2.713l10.154,10.153L371.32,341.376a1.918,1.918,0,0,0,2.712,2.713l11.51-11.51a1.918,1.918,0,0,0,0-2.713Z" transform="translate(-336.228 -313.958)" fill="#19538d"/>
          </g>
        </g>
        <path id="Intersección_25" data-name="Intersección 25" d="M7907.27,11706.3a31.05,31.05,0,0,1,22.945,23.178l-28.641,7.243Z" transform="translate(-7060 -10745.445)" fill="#19538d"/>
        <path id="Trazado_152562" data-name="Trazado 152562" d="M558.124,1561.42a8.138,8.138,0,1,1,0-16.276h0c.231,0,.458.017.683.034a12.215,12.215,0,0,1,23.073.037,7.9,7.9,0,0,1,4.593.773,10.483,10.483,0,1,1,9.24,15.435Z" transform="translate(201.277 -542.155)" fill="#9fd4e0"/>
        <rect id="Rectángulo_7625" data-name="Rectángulo 7625" width="400" height="180" transform="translate(600 896)" fill="none"/>
      </g>
    </g>
  </g>
</svg>
