<svg xmlns="http://www.w3.org/2000/svg" width="500" height="226" viewBox="0 0 500 226">
  <g id="img8" transform="translate(9344 9982)">
    <rect id="Rectangle_455722" data-name="Rectangle 455722" width="197" height="115" transform="translate(-9189 -9936)" fill="#fff"/>
    <rect id="Rectangle_455660" data-name="Rectangle 455660" width="500" height="226" transform="translate(-9344 -9982)" fill="none"/>
    <g id="Grupo_69360" data-name="Grupo 69360" transform="translate(-2025 129)">
      <g id="Grupo_68598" data-name="Grupo 68598" transform="translate(1 -572.793)">
        <ellipse id="Elipse_6337" data-name="Elipse 6337" cx="176.5" cy="16" rx="176.5" ry="16" transform="translate(-7246 -9367)" fill="#306ba8"/>
        <path id="Trazado_119459" data-name="Trazado 119459" d="M177.655,427.084h58.932l-2.075-16.6H179.73Z" transform="translate(-7275.837 -9773.115)" fill="#afbbd0"/>
        <path id="Trazado_119460" data-name="Trazado 119460" d="M171.044,454.621a3.32,3.32,0,1,0,0,6.641h59.762a3.32,3.32,0,0,0,0-6.641Z" transform="translate(-7269.642 -9800.652)" fill="#bec8dc"/>
        <path id="Trazado_119467" data-name="Trazado 119467" d="M183.172,399.468h54.782l-.83-6.64H184Z" transform="translate(-7279.279 -9752.799)" fill="#96a5b9"/>
        <path id="Trazado_119468" data-name="Trazado 119468" d="M47.458,90.5H67.379a3.32,3.32,0,1,0,0-6.641H47.458a3.32,3.32,0,0,0,0,6.641Z" transform="translate(-7192.537 -9569.339)" fill="#ffdc69"/>
        <path id="Trazado_119469" data-name="Trazado 119469" d="M199.8,39.724H7.136A7.136,7.136,0,0,0,0,46.86V161.034H206.94V46.86a7.136,7.136,0,0,0-7.14-7.136Zm-3.568,32.111v78.5H10.7V50.43H196.236Z" transform="translate(-7170 -9540.382)" fill="#464655"/>
        <path id="Trazado_119471" data-name="Trazado 119471" d="M0,354.134a7.136,7.136,0,0,0,7.136,7.136H199.8a7.136,7.136,0,0,0,7.136-7.136V339.862H0Zm103.47-8.92a5.352,5.352,0,1,1-5.352,5.352,5.352,5.352,0,0,1,5.352-5.352Z" transform="translate(-7170 -9719.21)" fill="#bec8dc"/>
        <path id="Trazado_119473" data-name="Trazado 119473" d="M56.533,156.358H95.78a3.568,3.568,0,0,0,3.568-3.568v-3.568a3.568,3.568,0,0,0-3.568-3.568H56.533a3.568,3.568,0,0,0-3.568,3.568v3.568a3.569,3.569,0,0,0,3.568,3.568Z" transform="translate(-7171.23 -9605.23)" fill="#a0dcf0"/>
        <path id="Trazado_119482" data-name="Trazado 119482" d="M56.533,156.358H95.78a3.568,3.568,0,0,0,3.568-3.568v-3.568a3.568,3.568,0,0,0-3.568-3.568H56.533a3.568,3.568,0,0,0-3.568,3.568v3.568a3.569,3.569,0,0,0,3.568,3.568Z" transform="translate(-7119.495 -9605.23)" fill="#c8bdf1"/>
        <path id="Trazado_119478" data-name="Trazado 119478" d="M56.533,156.358H95.78a3.568,3.568,0,0,0,3.568-3.568v-3.568a3.568,3.568,0,0,0-3.568-3.568H56.533a3.568,3.568,0,0,0-3.568,3.568v3.568a3.569,3.569,0,0,0,3.568,3.568Z" transform="translate(-7171.23 -9589.088)" fill="#afafaf"/>
        <path id="Trazado_119481" data-name="Trazado 119481" d="M56.533,156.358H95.78a3.568,3.568,0,0,0,3.568-3.568v-3.568a3.568,3.568,0,0,0-3.568-3.568H56.533a3.568,3.568,0,0,0-3.568,3.568v3.568a3.569,3.569,0,0,0,3.568,3.568Z" transform="translate(-7119.495 -9589.088)" fill="#888"/>
        <path id="Trazado_119479" data-name="Trazado 119479" d="M56.533,156.358H95.78a3.568,3.568,0,0,0,3.568-3.568v-3.568a3.568,3.568,0,0,0-3.568-3.568H56.533a3.568,3.568,0,0,0-3.568,3.568v3.568a3.569,3.569,0,0,0,3.568,3.568Z" transform="translate(-7171.23 -9572.945)" fill="#afafaf"/>
        <path id="Trazado_119483" data-name="Trazado 119483" d="M56.533,156.358H95.78a3.568,3.568,0,0,0,3.568-3.568v-3.568a3.568,3.568,0,0,0-3.568-3.568H56.533a3.568,3.568,0,0,0-3.568,3.568v3.568a3.569,3.569,0,0,0,3.568,3.568Z" transform="translate(-7171.23 -9556.803)" fill="#afafaf"/>
        <path id="Trazado_119480" data-name="Trazado 119480" d="M56.533,156.358H95.78a3.568,3.568,0,0,0,3.568-3.568v-3.568a3.568,3.568,0,0,0-3.568-3.568H56.533a3.568,3.568,0,0,0-3.568,3.568v3.568a3.569,3.569,0,0,0,3.568,3.568Z" transform="translate(-7119.495 -9572.945)" fill="#888"/>
        <path id="Trazado_119484" data-name="Trazado 119484" d="M56.533,156.358H95.78a3.568,3.568,0,0,0,3.568-3.568v-3.568a3.568,3.568,0,0,0-3.568-3.568H56.533a3.568,3.568,0,0,0-3.568,3.568v3.568a3.569,3.569,0,0,0,3.568,3.568Z" transform="translate(-7119.495 -9556.803)" fill="#888"/>
        <circle id="Elipse_6340" data-name="Elipse 6340" cx="5.352" cy="5.352" r="5.352" transform="translate(-7071.882 -9373.996)" fill="#96a5b9"/>
        <g id="html" transform="translate(-7233.577 -9515.207)">
          <path id="Trazado_119398" data-name="Trazado 119398" d="M198.791,17.265V0H147a5.755,5.755,0,0,0-5.755,5.755V19.183H189.2a3.837,3.837,0,0,1,3.837,3.837V49.876a3.837,3.837,0,0,1-3.837,3.837H141.241v51.795A5.755,5.755,0,0,0,147,111.263h69.06a5.755,5.755,0,0,0,5.755-5.755V23.02S198.791,20.443,198.791,17.265Z" transform="translate(-110.548)" fill="#61e9c3"/>
          <path id="Trazado_119399" data-name="Trazado 119399" d="M411.824,23.02h17.265L406.069,0V17.265A5.755,5.755,0,0,0,411.824,23.02Z" transform="translate(-317.826)" fill="#37b995"/>
          <path id="Trazado_119400" data-name="Trazado 119400" d="M82.488,118.969V92.113a3.837,3.837,0,0,0-3.837-3.837H3.837A3.837,3.837,0,0,0,0,92.113v26.856a3.837,3.837,0,0,0,3.837,3.837H78.651a3.837,3.837,0,0,0,3.837-3.837ZM23.02,113.214a1.918,1.918,0,1,1-3.837,0v-3.837H9.592v3.837a1.918,1.918,0,1,1-3.837,0V97.867a1.918,1.918,0,1,1,3.837,0v7.673h9.592V97.867a1.918,1.918,0,1,1,3.837,0v15.347ZM38.366,99.786H34.53v13.428a1.919,1.919,0,1,1-3.837,0V99.786H26.856a1.918,1.918,0,1,1,0-3.837h11.51a1.918,1.918,0,1,1,0,3.837Zm21.1,13.428a1.919,1.919,0,0,1-3.837,0v-8.421l-2.192,3.653a1.92,1.92,0,0,1-1.645.931H49.876a1.92,1.92,0,0,1-1.645-.931l-2.192-3.653v8.421a1.919,1.919,0,0,1-3.837,0V97.867a1.918,1.918,0,0,1,3.563-.987l5.069,8.449L55.9,96.88a1.918,1.918,0,0,1,3.563.987v15.347Zm15.347,1.918h-9.59a1.918,1.918,0,0,1-1.918-1.918V97.867a1.918,1.918,0,0,1,3.837,0V111.3h7.673a1.918,1.918,0,1,1,0,3.837Z" transform="translate(0 -69.093)" fill="#19538d"/>
          <g id="Grupo_68589" data-name="Grupo 68589" transform="translate(5.755 26.856)">
            <path id="Trazado_119401" data-name="Trazado 119401" d="M41.829,123.586A1.918,1.918,0,0,0,39.91,125.5v7.673H30.319V125.5a1.919,1.919,0,1,0-3.837,0v15.347a1.918,1.918,0,1,0,3.837,0V137.01H39.91v3.837a1.919,1.919,0,1,0,3.837,0V125.5a1.918,1.918,0,0,0-1.918-1.914Z" transform="translate(-26.482 -123.586)" fill="#fff"/>
            <path id="Trazado_119402" data-name="Trazado 119402" d="M210.065,123.655a1.915,1.915,0,0,0-2.157.862l-5.069,8.449-5.069-8.449a1.918,1.918,0,0,0-3.563.987v15.347a1.919,1.919,0,0,0,3.837,0V132.43l2.192,3.653a1.92,1.92,0,0,0,1.645.931H203.8a1.92,1.92,0,0,0,1.645-.931l2.192-3.653v8.421a1.919,1.919,0,0,0,3.837,0V125.5a1.92,1.92,0,0,0-1.409-1.845Z" transform="translate(-157.758 -123.586)" fill="#fff"/>
            <path id="Trazado_119403" data-name="Trazado 119403" d="M128.186,123.586h-11.51a1.918,1.918,0,1,0,0,3.837h3.837v13.428a1.918,1.918,0,0,0,3.837,0V127.423h3.837a1.919,1.919,0,1,0,0-3.837Z" transform="translate(-95.575 -123.586)" fill="#fff"/>
            <path id="Trazado_119404" data-name="Trazado 119404" d="M302.82,138.933h-7.673V125.5a1.919,1.919,0,0,0-3.837,0v15.347a1.918,1.918,0,0,0,1.918,1.918h9.592a1.918,1.918,0,1,0,0-3.837Z" transform="translate(-233.76 -123.586)" fill="#fff"/>
          </g>
        </g>
        <path id="html-5" d="M27.3,1.25,29.749,32.6a1.159,1.159,0,0,0,.806,1.015L43.448,37.7a1.16,1.16,0,0,0,.7,0l12.894-4.088a1.159,1.159,0,0,0,.806-1.015L60.3,1.25A1.159,1.159,0,0,0,59.144,0H28.454A1.16,1.16,0,0,0,27.3,1.25Zm26.717,9.726H38.046l.482,4.444h15.14l-.99,12.67L43.8,30.906l-8.88-2.815-.52-6.62h4.66v3.247l4.86,1.3,4.831-1.3.375-5.175H34.252L33.264,6.907h21.07Z" transform="translate(-7041.81 -9456.959)" fill="#7dbfff"/>
        <rect id="Rectángulo_7331" data-name="Rectángulo 7331" width="148" height="17" transform="translate(-7122 -9490)" fill="#cf9eff"/>
      </g>
      <g id="web" transform="translate(-7193.921 -10035.563)">
        <path id="Trazado_155551" data-name="Trazado 155551" d="M21,30.938h8.3V46.967A24.179,24.179,0,0,1,21,30.938Zm-9.049,0h6.9a26.289,26.289,0,0,0,6.811,15.468A18.219,18.219,0,0,1,11.949,30.938ZM25.66,10.9a26.275,26.275,0,0,0-6.923,17.767,1.039,1.039,0,0,0,.006.135H11.809A18.247,18.247,0,0,1,25.662,10.9Zm3.635-.556V28.8h-8.41v-.135A24.158,24.158,0,0,1,29.3,10.341Zm1.073-2.29a.464.464,0,0,0-.092.006,20.73,20.73,0,0,0-17.843,10.3,20.515,20.515,0,0,0,0,20.6,20.734,20.734,0,0,0,17.859,10.3.575.575,0,0,0,.076,0,20.759,20.759,0,0,0,15.748-7.227,1.061,1.061,0,0,0-.083-1.544,1.074,1.074,0,0,0-1.546.161,18.581,18.581,0,0,1-9.528,5.9,26.334,26.334,0,0,0,4.158-5.86A1.073,1.073,0,0,0,37.21,39.7a24.255,24.255,0,0,1-5.771,7.254V30.938H33.8a1.067,1.067,0,1,0,0-2.134H31.439V10.279A24.2,24.2,0,0,1,38.124,19.5a1.072,1.072,0,0,0,1.986-.809A26.386,26.386,0,0,0,35.073,10.8,18.516,18.516,0,0,1,47.72,22.084a1.071,1.071,0,1,0,2-.758A20.714,20.714,0,0,0,30.369,8.056Z" fill="#12263f"/>
        <path id="Trazado_155552" data-name="Trazado 155552" d="M60.541,33.65a.673.673,0,0,1,.3.083L69.366,38.7l-3.282.68a1.066,1.066,0,0,0-.706,1.58l2.353,4.059a.344.344,0,0,1-.132.5l-1.567.9a.347.347,0,0,1-.5-.134l-2.354-4.049a1.074,1.074,0,0,0-1.73-.18l-2.22,2.475L59.163,34.7a1.038,1.038,0,0,1,.6-.818.035.035,0,0,0,.018-.012.1.1,0,0,0,.032-.017,1.389,1.389,0,0,1,.728-.2Zm.118-2.134a3.61,3.61,0,0,0-3.643,3.2l.062,9.877a2.431,2.431,0,0,0,1.071,2.267,1.949,1.949,0,0,0,2.309-.491l1.6-1.791,1.615,2.776a2.533,2.533,0,0,0,3.429.917l1.569-.9a2.506,2.506,0,0,0,.919-3.41l-1.617-2.782,2.377-.488a1.922,1.922,0,0,0,1.578-1.743,2.434,2.434,0,0,0-1.437-2.053l-8.565-5V31.9a2.524,2.524,0,0,0-1.267-.379Z" transform="translate(-20.562 -10.186)" fill="#12263f"/>
      </g>
      <rect id="Rectángulo_7626" data-name="Rectángulo 7626" width="400" height="180" transform="translate(-7269 -10088)" fill="none"/>
    </g>
  </g>
</svg>
