<svg xmlns="http://www.w3.org/2000/svg" width="500" height="226" viewBox="0 0 500 226">
  <g id="img9" transform="translate(9344.207 9676)">
    <rect id="Rectangle_455723" data-name="Rectangle 455723" width="210" height="135" transform="translate(-9202 -9624)" fill="#fff"/>
    <rect id="Rectangle_455661" data-name="Rectangle 455661" width="500" height="226" transform="translate(-9344.207 -9676)" fill="none"/>
    <g id="Grupo_69360" data-name="Grupo 69360" transform="translate(-2025 434)">
      <g id="Grupo_68598" data-name="Grupo 68598" transform="translate(1 -572.793)">
        <ellipse id="Elipse_6337" data-name="Elipse 6337" cx="176.5" cy="16" rx="176.5" ry="16" transform="translate(-7246 -9367)" fill="#306ba8"/>
        <g id="Grupo_69359" data-name="Grupo 69359" transform="translate(1 44.793)">
          <path id="Trazado_119468" data-name="Trazado 119468" d="M47.458,90.5H67.379a3.32,3.32,0,1,0,0-6.641H47.458a3.32,3.32,0,0,0,0,6.641Z" transform="translate(-7192.537 -9613.031)" fill="#ffdc69"/>
          <g id="Grupo_68602" data-name="Grupo 68602" transform="translate(-7869 -12261.128)">
            <g id="ordenador-portatil" transform="translate(675.744 2633.405)">
              <g id="Grupo_68594" data-name="Grupo 68594" transform="translate(0 228.529)">
                <path id="Trazado_119432" data-name="Trazado 119432" d="M496.007,423.366a8.3,8.3,0,0,1-1.663.168,8.326,8.326,0,0,0,1.662-.168Z" transform="translate(-263.339 -407.033)" fill="#bec8dc"/>
                <path id="Trazado_119433" data-name="Trazado 119433" d="M15.759,423.533a8.306,8.306,0,0,1-1.664-.168,8.262,8.262,0,0,0,1.664.168Z" transform="translate(-7.509 -407.033)" fill="#bec8dc"/>
                <path id="Trazado_119434" data-name="Trazado 119434" d="M97.292,393.244l-2.415-4.83H4.125A4.126,4.126,0,0,0,0,392.538v4.126H102.826a6.19,6.19,0,0,1-5.534-3.42Z" transform="translate(0 -388.414)" fill="#bec8dc"/>
                <path id="Trazado_119435" data-name="Trazado 119435" d="M497.9,416.048a8.259,8.259,0,0,0,6.42-6.42,8.261,8.261,0,0,1-6.42,6.42Z" transform="translate(-265.235 -399.715)" fill="#bec8dc"/>
                <path id="Trazado_119436" data-name="Trazado 119436" d="M.359,409.628a8.259,8.259,0,0,0,6.42,6.42,8.261,8.261,0,0,1-6.42-6.42Z" transform="translate(-0.191 -399.715)" fill="#bec8dc"/>
                <path id="Trazado_119437" data-name="Trazado 119437" d="M390.656,388.414H299.9l-2.414,4.83a6.187,6.187,0,0,1-5.534,3.42h102.83v-4.125a4.125,4.125,0,0,0-4.126-4.125Z" transform="translate(-155.526 -388.414)" fill="#bec8dc"/>
                <path id="Trazado_119438" data-name="Trazado 119438" d="M.168,407.732A8.3,8.3,0,0,1,0,406.069a8.3,8.3,0,0,0,.168,1.665Z" transform="translate(0 -397.819)" fill="#bec8dc"/>
                <path id="Trazado_119439" data-name="Trazado 119439" d="M511.809,406.069a8.3,8.3,0,0,1-.168,1.664,8.3,8.3,0,0,0,.168-1.665Z" transform="translate(-272.553 -397.819)" fill="#bec8dc"/>
              </g>
              <path id="Trazado_119440" data-name="Trazado 119440" d="M102.826,406.069H0a8.242,8.242,0,0,0,8.251,8.251H231.006a8.242,8.242,0,0,0,8.251-8.251Z" transform="translate(0 -169.29)" fill="#afbbd0"/>
              <path id="Trazado_119441" data-name="Trazado 119441" d="M205.449,393.244a6.187,6.187,0,0,0,5.534,3.42h33.6a6.188,6.188,0,0,0,5.534-3.42l2.415-4.83h-49.5Z" transform="translate(-108.157 -159.885)" fill="#96a5b9"/>
              <path id="Trazado_119442" data-name="Trazado 119442" d="M153.783,228.529H240.41V96.011a7.735,7.735,0,0,0-7.735-7.735H25.39a7.735,7.735,0,0,0-7.735,7.735V228.529ZM30.03,125.4V100.651h198v115.5h-198Z" transform="translate(-9.405)" fill="#464655"/>
              <path id="Trazado_119444" data-name="Trazado 119444" d="M242.142,114.759h-198V139.51h198Zm-144.378,16.5H56.513a4.126,4.126,0,0,1,0-8.251H97.764a4.125,4.125,0,0,1,0,8.251Zm33,0h-16.5a4.126,4.126,0,1,1,0-8.251h16.5a4.125,4.125,0,1,1,0,8.251Zm33,0h-16.5a4.126,4.126,0,0,1,0-8.251h16.5a4.125,4.125,0,1,1,0,8.251Zm33,0h-16.5a4.126,4.126,0,0,1,0-8.251h16.5a4.125,4.125,0,1,1,0,8.251Zm33,0h-16.5a4.126,4.126,0,0,1,0-8.251h16.5a4.125,4.125,0,1,1,0,8.251Z" transform="translate(-23.513 -14.108)" fill="#7dbfff"/>
              <path id="Trazado_119445" data-name="Trazado 119445" d="M107.169,132.414H65.918a4.126,4.126,0,1,0,0,8.251h41.251a4.126,4.126,0,0,0,0-8.251Z" transform="translate(-32.917 -23.513)" fill="#f3f9ff"/>
              <g id="Grupo_68595" data-name="Grupo 68595" transform="translate(86.627 108.901)">
                <path id="Trazado_119446" data-name="Trazado 119446" d="M206,132.414H189.5a4.126,4.126,0,1,0,0,8.251H206a4.126,4.126,0,1,0,0-8.251Z" transform="translate(-185.379 -132.414)" fill="#f3f9ff"/>
                <path id="Trazado_119447" data-name="Trazado 119447" d="M276.626,132.414h-16.5a4.126,4.126,0,1,0,0,8.251h16.5a4.126,4.126,0,1,0,0-8.251Z" transform="translate(-222.999 -132.414)" fill="#f3f9ff"/>
                <path id="Trazado_119448" data-name="Trazado 119448" d="M347.247,132.414h-16.5a4.126,4.126,0,0,0,0,8.251h16.5a4.126,4.126,0,1,0,0-8.251Z" transform="translate(-260.619 -132.414)" fill="#f3f9ff"/>
                <path id="Trazado_119449" data-name="Trazado 119449" d="M417.866,132.414h-16.5a4.126,4.126,0,1,0,0,8.251h16.5a4.126,4.126,0,1,0,0-8.251Z" transform="translate(-298.239 -132.414)" fill="#f3f9ff"/>
              </g>
            </g>
          </g>
          <g id="Grupo_68604" data-name="Grupo 68604" transform="translate(-7869 -11700)">
            <g id="html" transform="translate(635.423 2141.101)">
              <path id="Trazado_119398" data-name="Trazado 119398" d="M198.791,17.265V0H147a5.755,5.755,0,0,0-5.755,5.755V19.183H189.2a3.837,3.837,0,0,1,3.837,3.837V49.876a3.837,3.837,0,0,1-3.837,3.837H141.241v51.795A5.755,5.755,0,0,0,147,111.263h69.06a5.755,5.755,0,0,0,5.755-5.755V23.02S198.791,20.443,198.791,17.265Z" transform="translate(-110.548)" fill="#61e9c3"/>
              <path id="Trazado_119399" data-name="Trazado 119399" d="M411.824,23.02h17.265L406.069,0V17.265A5.755,5.755,0,0,0,411.824,23.02Z" transform="translate(-317.826)" fill="#37b995"/>
              <path id="Trazado_119400" data-name="Trazado 119400" d="M82.488,118.969V92.113a3.837,3.837,0,0,0-3.837-3.837H3.837A3.837,3.837,0,0,0,0,92.113v26.856a3.837,3.837,0,0,0,3.837,3.837H78.651a3.837,3.837,0,0,0,3.837-3.837ZM23.02,113.214a1.918,1.918,0,1,1-3.837,0v-3.837H9.592v3.837a1.918,1.918,0,1,1-3.837,0V97.867a1.918,1.918,0,1,1,3.837,0v7.673h9.592V97.867a1.918,1.918,0,1,1,3.837,0v15.347ZM38.366,99.786H34.53v13.428a1.919,1.919,0,1,1-3.837,0V99.786H26.856a1.918,1.918,0,1,1,0-3.837h11.51a1.918,1.918,0,1,1,0,3.837Zm21.1,13.428a1.919,1.919,0,0,1-3.837,0v-8.421l-2.192,3.653a1.92,1.92,0,0,1-1.645.931H49.876a1.92,1.92,0,0,1-1.645-.931l-2.192-3.653v8.421a1.919,1.919,0,0,1-3.837,0V97.867a1.918,1.918,0,0,1,3.563-.987l5.069,8.449L55.9,96.88a1.918,1.918,0,0,1,3.563.987v15.347Zm15.347,1.918h-9.59a1.918,1.918,0,0,1-1.918-1.918V97.867a1.918,1.918,0,0,1,3.837,0V111.3h7.673a1.918,1.918,0,1,1,0,3.837Z" transform="translate(0 -69.093)" fill="#19538d"/>
              <g id="Grupo_68589" data-name="Grupo 68589" transform="translate(5.755 26.856)">
                <path id="Trazado_119401" data-name="Trazado 119401" d="M41.829,123.586A1.918,1.918,0,0,0,39.91,125.5v7.673H30.319V125.5a1.919,1.919,0,1,0-3.837,0v15.347a1.918,1.918,0,1,0,3.837,0V137.01H39.91v3.837a1.919,1.919,0,1,0,3.837,0V125.5a1.918,1.918,0,0,0-1.918-1.914Z" transform="translate(-26.482 -123.586)" fill="#fff"/>
                <path id="Trazado_119402" data-name="Trazado 119402" d="M210.065,123.655a1.915,1.915,0,0,0-2.157.862l-5.069,8.449-5.069-8.449a1.918,1.918,0,0,0-3.563.987v15.347a1.919,1.919,0,0,0,3.837,0V132.43l2.192,3.653a1.92,1.92,0,0,0,1.645.931H203.8a1.92,1.92,0,0,0,1.645-.931l2.192-3.653v8.421a1.919,1.919,0,0,0,3.837,0V125.5a1.92,1.92,0,0,0-1.409-1.845Z" transform="translate(-157.758 -123.586)" fill="#fff"/>
                <path id="Trazado_119403" data-name="Trazado 119403" d="M128.186,123.586h-11.51a1.918,1.918,0,1,0,0,3.837h3.837v13.428a1.918,1.918,0,0,0,3.837,0V127.423h3.837a1.919,1.919,0,1,0,0-3.837Z" transform="translate(-95.575 -123.586)" fill="#fff"/>
                <path id="Trazado_119404" data-name="Trazado 119404" d="M302.82,138.933h-7.673V125.5a1.919,1.919,0,0,0-3.837,0v15.347a1.918,1.918,0,0,0,1.918,1.918h9.592a1.918,1.918,0,1,0,0-3.837Z" transform="translate(-233.76 -123.586)" fill="#fff"/>
              </g>
            </g>
            <g id="Grupo_68599" data-name="Grupo 68599" transform="translate(683.04 2203.325)">
              <path id="Trazado_119406" data-name="Trazado 119406" d="M226.646,318.356a1.918,1.918,0,0,0-2.713,0l-11.51,11.51a1.918,1.918,0,0,0,0,2.713l11.51,11.51a1.918,1.918,0,0,0,2.712-2.713l-10.153-10.154,10.154-10.154a1.918,1.918,0,0,0,0-2.712Z" transform="translate(-216.861 -313.958)" fill="#62249e"/>
              <path id="Trazado_119407" data-name="Trazado 119407" d="M374.033,318.356a1.918,1.918,0,1,0-2.713,2.713l10.154,10.153L371.32,341.376a1.918,1.918,0,0,0,2.712,2.713l11.51-11.51a1.918,1.918,0,0,0,0-2.713Z" transform="translate(-336.228 -313.958)" fill="#62249e"/>
              <text id="t" transform="translate(14.96 29.675)" fill="#12263f" font-size="40" font-family="Roboto-Bold, Roboto" font-weight="700"><tspan x="0" y="0">t</tspan></text>
            </g>
          </g>
          <path id="Trazado_155579" data-name="Trazado 155579" d="M56.533,156.358H95.78a3.568,3.568,0,0,0,3.568-3.568v-3.568a3.568,3.568,0,0,0-3.568-3.568H56.533a3.568,3.568,0,0,0-3.568,3.568v3.568a3.569,3.569,0,0,0,3.568,3.568Z" transform="translate(-7171.23 -9630.923)" fill="#c8bdf1"/>
          <path id="Trazado_155580" data-name="Trazado 155580" d="M56.533,156.358H95.78a3.568,3.568,0,0,0,3.568-3.568v-3.568a3.568,3.568,0,0,0-3.568-3.568H56.533a3.568,3.568,0,0,0-3.568,3.568v3.568a3.569,3.569,0,0,0,3.568,3.568Z" transform="translate(-7117.481 -9630.923)" fill="#a0dcf0"/>
          <rect id="Rectángulo_7336" data-name="Rectángulo 7336" width="46" height="40" rx="6" transform="translate(-7118 -9469.692)" fill="#e8e8e8"/>
          <rect id="Rectángulo_7337" data-name="Rectángulo 7337" width="46" height="40" rx="6" transform="translate(-7064.251 -9469.692)" fill="#e8e8e8"/>
          <g id="Grupo_69356" data-name="Grupo 69356" transform="translate(0 -4.001)">
            <path id="Trazado_155581" data-name="Trazado 155581" d="M250.458,331.683V256.592a5.007,5.007,0,0,0-5.005-5.006H190.384a5.007,5.007,0,0,0-5.006,5.005v75.092a5.007,5.007,0,0,0,5.005,5.006h55.068a5.007,5.007,0,0,0,5.007-5.006Zm-32.539,2.5a2.495,2.495,0,1,1,1.768-.73,2.5,2.5,0,0,1-1.768.73Zm12.515-7.509H190.385V261.6h55.066v65.079Z" transform="translate(-7234 -9715.382)" fill="#96a5b9"/>
            <path id="Trazado_155582" data-name="Trazado 155582" d="M250.09,269.241H194.207V334.32H250.09Z" transform="translate(-7238.066 -9723.024)" fill="#7dbfff"/>
            <circle id="Elipse_6350" data-name="Elipse 6350" cx="2.503" cy="2.503" r="2.503" transform="translate(-7018.584 -9386.202)" fill="#7a8593"/>
            <path id="Trazado_155583" data-name="Trazado 155583" d="M56.345,155.8H93.528a3.381,3.381,0,0,0,3.38-3.38v-3.38a3.381,3.381,0,0,0-3.38-3.38H56.345a3.381,3.381,0,0,0-3.38,3.38v3.38a3.381,3.381,0,0,0,3.38,3.38Z" transform="translate(-7090.854 -9593.225)" fill="#607b82"/>
            <rect id="Rectángulo_7338" data-name="Rectángulo 7338" width="43.58" height="37.896" rx="6" transform="translate(-7037.638 -9432.813)" fill="#e8e8e8"/>
          </g>
          <rect id="Rectángulo_7627" data-name="Rectángulo 7627" width="400" height="180" transform="translate(-7269 -9559)" fill="none"/>
        </g>
      </g>
      <rect id="Rectángulo_7626" data-name="Rectángulo 7626" width="400" height="180" transform="translate(-7269 -10088)" fill="none"/>
    </g>
  </g>
</svg>
